<?xml version="1.0" encoding="UTF-8" standalone="no"?>
<!-- Created with Inkscape (http://www.inkscape.org/) -->

<svg
   width="210mm"
   height="297mm"
   viewBox="0 0 210 297"
   version="1.1"
   id="svg1"
   xml:space="preserve"
   inkscape:version="1.4 (e7c3feb1, 2024-10-09)"
   sodipodi:docname="Africa.svg"
   xmlns:inkscape="http://www.inkscape.org/namespaces/inkscape"
   xmlns:sodipodi="http://sodipodi.sourceforge.net/DTD/sodipodi-0.dtd"
   xmlns:xlink="http://www.w3.org/1999/xlink"
   xmlns="http://www.w3.org/2000/svg"
   xmlns:svg="http://www.w3.org/2000/svg"><sodipodi:namedview
     id="namedview1"
     pagecolor="#ffffff"
     bordercolor="#000000"
     borderopacity="0.25"
     inkscape:showpageshadow="2"
     inkscape:pageopacity="0.0"
     inkscape:pagecheckerboard="0"
     inkscape:deskcolor="#d1d1d1"
     inkscape:document-units="mm"
     inkscape:zoom="5.2855148"
     inkscape:cx="390.40662"
     inkscape:cy="561.25091"
     inkscape:window-width="1472"
     inkscape:window-height="826"
     inkscape:window-x="0"
     inkscape:window-y="37"
     inkscape:window-maximized="0"
     inkscape:current-layer="g2" /><defs
     id="defs1"><inkscape:perspective
       sodipodi:type="inkscape:persp3d"
       inkscape:vp_x="0 : 512 : 1"
       inkscape:vp_y="0 : 1000 : 0"
       inkscape:vp_z="958.27698 : 512 : 1"
       inkscape:persp3d-origin="479.13849 : 341.33333 : 1"
       id="perspective2900" /><inkscape:perspective
       sodipodi:type="inkscape:persp3d"
       inkscape:vp_x="0 : 512 : 1"
       inkscape:vp_y="0 : 1000 : 0"
       inkscape:vp_z="958.27698 : 512 : 1"
       inkscape:persp3d-origin="479.13849 : 341.33333 : 1"
       id="perspective2900-0" /></defs><g
     inkscape:label="Ebene 1"
     inkscape:groupmode="layer"
     id="layer1"
     style="display:inline"><g
       id="g2"
       transform="matrix(-1,0,0,1,210,0)"><circle
         style="display:inline;fill:#000000;fill-opacity:1;stroke:#ff0000;stroke-width:0.122805;stroke-opacity:1"
         id="path2-9"
         cx="87.85405"
         cy="148.5"
         r="9.9385977"
         transform="matrix(-1,0,0,1,192.85405,0)" /><path
         id="path2-9-8"
         style="display:inline;fill:#ffffff;fill-opacity:1;stroke:none;stroke-width:0.122805;stroke-opacity:1"
         d="m 87.854313,138.56159 a 9.9385977,9.9385977 0 0 1 9.938409,9.93841 9.9385977,9.9385977 0 0 1 -9.938409,9.93841 9.9385977,9.9385977 0 0 1 -9.938936,-9.93841 9.9385977,9.9385977 0 0 1 9.938936,-9.93841 z m 0,0.88367 a 9.0549355,9.0549355 0 0 0 -9.055266,9.05474 9.0549355,9.0549355 0 0 0 9.055266,9.05474 9.0549355,9.0549355 0 0 0 9.054742,-9.05474 9.0549355,9.0549355 0 0 0 -9.054742,-9.05474 z"
         transform="matrix(-1,0,0,1,192.85405,0)" /><path
         id="path2888"
         d="m 300.44847,721.30249 c -0.0143,9e-5 -0.15553,0.16658 -0.17029,0.17028 -0.15947,0.0399 -0.12137,0.0686 -0.22698,0.1135 -0.18249,0.0773 -0.30347,0.0165 -0.39737,0 -0.25565,-0.045 -0.54325,0.0322 -0.73775,0 -0.11466,-0.019 -0.20337,-0.14181 -0.34055,-0.1135 -0.36233,0.22423 -1.10655,0.0665 -1.64595,0.1135 -0.29705,0.27809 -0.87876,0.10422 -1.3622,0.17029 -0.13567,0.0187 -0.31075,0.19858 -0.51076,0.1135 -0.19539,0.10718 -0.27657,0.32891 -0.51084,0.39737 -0.17918,0.0277 -0.20037,-0.10241 -0.39726,-0.0569 -0.20636,0.0774 -0.21473,0.35276 -0.45408,0.39727 h -0.62432 c -0.12795,-0.13905 -0.61593,-0.26586 -0.73785,-0.1135 -0.0289,0.0359 -0.0716,-0.0569 -0.0568,-0.0569 -0.17743,-9.8e-4 -0.3335,9.8e-4 -0.51085,0 -0.25677,-0.084 -0.21203,-0.46904 -0.56757,-0.45395 -0.13076,0.12291 -0.27466,0.17959 -0.28377,0.34045 -0.006,0.10692 -0.20341,0.31598 -0.22699,0.34057 -0.0498,0.052 -0.0725,0.10589 -0.11363,0.17029 -0.0406,0.0637 -0.0739,0.10808 -0.1135,0.17017 -0.0262,0.041 -0.0268,0.0789 -0.0569,0.11363 -0.0815,0.0942 -0.37459,0.22283 -0.45406,0.22698 -0.0614,0.004 -0.0306,0.045 -0.0568,0.0569 -0.12317,0.0551 -0.19392,0.0163 -0.28378,0.0567 -0.0203,0.009 -0.0325,0.10048 -0.0569,0.11363 -0.0595,0.0321 -0.1224,0.031 -0.17029,0.0569 -0.22021,0.11905 -0.66967,0.40908 -0.68102,0.62435 -0.004,0.0815 -0.1095,0.0948 -0.1135,0.17019 -0.004,0.0662 -0.0328,0.0246 -0.0569,0.0569 -0.19465,0.26089 -0.46142,0.59527 -0.51077,0.90812 -0.0245,0.15542 0.0609,0.35905 0,0.56755 -0.0224,0.077 -0.0806,0.062 -0.11363,0.1135 -0.044,0.0691 -0.009,0.16307 -0.0569,0.22708 -0.0408,0.0551 -0.14512,0.14673 -0.22699,0.22698 -0.0805,0.0789 -0.21966,0.18744 -0.28378,0.22709 -0.0721,0.0446 -0.1526,0.0191 -0.22697,0.0567 -0.068,0.0346 -0.0871,0.19432 -0.22708,0.11363 -0.23854,0.34784 -0.77527,0.3976 -1.30539,0.45397 -0.14136,0.21026 -0.18787,0.39603 -0.34058,0.56765 -0.0833,0.0936 -0.35336,0.33526 -0.45395,0.34055 -0.0658,0.004 -0.0251,0.0359 -0.0569,0.0567 -0.21954,0.14563 -0.33777,0.27273 -0.39728,0.51086 -0.0275,0.10989 -0.17024,0.24602 -0.1135,0.39727 -0.0464,0.013 -0.11092,0.0618 -0.11363,0.1135 -0.006,0.12266 -0.17443,0.16458 -0.22698,0.22709 -0.0539,0.0639 -0.0607,0.16229 -0.11363,0.22699 -0.1028,0.12602 -0.39047,0.26818 -0.39727,0.39726 -0.004,0.0659 -0.0358,0.0251 -0.0569,0.0569 -0.0903,0.13608 -0.1546,0.21039 -0.22697,0.34057 -0.004,0.006 -0.0494,-0.006 -0.0569,0 -0.0165,0.0134 0.009,0.0929 0,0.1135 -0.0152,0.033 -0.10074,0.0718 -0.0569,0.17029 -0.36532,0.25904 -0.63034,0.61834 -0.73787,1.1351 0.0614,0.0339 0.12163,0.0667 0.17031,0.11363 0.15629,0.15075 0.31309,0.29832 0.34058,0.51077 0.0491,0.37959 -0.1613,0.50641 -0.22699,0.73784 0.10047,0.20293 0.0528,0.44267 0.0568,0.68103 0.004,0.26663 0.0392,0.56082 0,0.79464 -0.013,0.0739 -0.0519,0.0782 -0.0568,0.17019 -0.003,0.0584 -0.0481,0.0339 -0.0569,0.0569 -0.057,0.15035 -0.072,0.24975 -0.11363,0.28378 -0.0166,0.0134 0.009,0.0929 0,0.1135 -0.004,0.006 -0.05,-0.005 -0.0568,0 -0.0178,0.0146 0.013,0.0929 0,0.11363 -0.0391,0.064 -0.15004,0.13067 -0.17029,0.1702 0.0521,0.20985 -0.0771,0.36759 -0.1135,0.39737 -0.0173,0.0141 0.0103,0.0929 0,0.1135 -0.0151,0.0282 -0.09,0.0847 -0.11363,0.11363 -0.0915,0.1117 -0.14556,0.15751 -0.22699,0.2269 -0.0529,0.0449 -0.13008,0.0569 -0.11363,0.17028 0.18018,0.25489 0.327,0.54332 0.45407,0.85133 -0.14059,0.0512 -0.12163,0.20898 -0.17029,0.34065 -0.0265,0.0712 -0.0334,0.11712 -0.0568,0.17019 -0.0103,0.0248 -0.0411,0.005 -0.0569,0.0567 -0.0157,0.052 0.013,0.11724 0,0.17029 0.0983,0.20432 0.27335,0.33205 0.39726,0.51086 0.0976,-0.003 0.14552,0.0437 0.17029,0.1135 0.0826,0.031 0.29328,-0.0662 0.28378,0.0569 -0.0152,0.20437 0.10499,0.27354 0.11363,0.45397 0.13894,0.12601 0.28679,0.243 0.51076,0.28388 -0.0374,0.20756 0.12292,0.21769 0.11363,0.39727 0.37618,0.17246 0.53258,0.56472 0.73775,0.90822 -0.0783,0.0733 -0.056,0.24652 -0.0567,0.39727 0.0552,0.0818 0.16613,0.15029 0.17018,0.22697 0.004,0.085 0.20316,0.2527 0.22708,0.28378 0.0979,0.1273 0.24154,0.19698 0.28378,0.34056 0.27425,0.009 0.30501,0.26252 0.62434,0.22699 0.26035,0.27893 0.65011,0.5487 0.85132,0.79464 0.0157,0.0191 0.0938,-0.0159 0.1135,0 0.0478,0.0387 0.066,0.12953 0.11363,0.17027 0.0729,0.0626 0.15793,0.0577 0.22699,0.11351 0.0982,0.0796 0.18848,0.20315 0.28377,0.28376 0.0539,0.0457 0.11556,0.0704 0.17029,0.11363 0.0539,0.0428 0.11492,0.1353 0.17019,0.17019 0.26911,0.17017 0.56803,0.21644 0.9081,0.34057 0.15486,0.0414 0.11427,-0.11286 0.22711,-0.11363 0.10924,-0.0185 0.2326,0.0245 0.34055,0 0.0736,-0.0166 0.0666,-0.0949 0.1135,-0.1135 0.0655,-0.0261 0.16032,0.0239 0.22698,0 0.0214,-0.006 0.005,-0.0439 0.0569,-0.0566 0.0795,-0.0199 0.11389,-0.0343 0.17029,-0.057 0.0141,-0.005 0.0417,9.8e-4 0.0567,0 0.0538,-0.003 0.0402,-0.0519 0.0569,-0.0567 0.11544,-0.0338 0.27613,-0.0261 0.39735,-0.0569 0.0116,-0.003 0.0134,-0.0458 0.0568,-0.0567 0.38551,-0.0964 0.8994,-0.0387 1.19189,0 0.17023,0.0224 0.22088,0.041 0.28379,0.0567 0.0333,0.006 0.0822,-0.0134 0.1135,0 0.0277,0.0116 0.0793,0.0988 0.11363,0.1135 0.11621,0.0495 0.24671,0.0453 0.3406,0.11363 0.1086,-0.10822 0.27232,-0.10473 0.39727,-0.17028 0.009,-0.005 0.0344,-0.0424 0.0568,-0.0567 0.0637,-0.0406 0.10821,-0.0739 0.1703,-0.1135 0.12072,-0.0769 0.33941,-0.11479 0.39734,-0.17027 0.1449,-0.13886 0.35851,-0.0974 0.51077,-0.22709 h 0.39727 c 0.1638,-0.0251 0.13418,-0.24418 0.28375,-0.28378 0.16699,0.0777 0.29804,-0.0942 0.45409,-0.1135 0.0175,-0.003 0.0391,-9.8e-4 0.0569,0 0.0519,0.003 0.0423,0.053 0.0568,0.0569 0.17722,0.0466 0.28565,-0.0449 0.34057,-0.0569 0.45088,-0.0982 0.88255,0.0725 1.36218,0 0.18142,0.16106 0.37115,0.26236 0.51074,0.45397 0.13183,0.18107 0.19839,0.4857 0.28378,0.62443 0.0275,0.0445 0.11105,0.12176 0.11363,0.17018 0.006,0.14546 0.16196,0.0606 0.17017,0.1703 0.41671,0.0761 0.54127,-0.1399 0.85144,-0.1703 0.25118,-0.062 0.28212,0.0962 0.45395,0.11363 0.23789,0.0103 0.17549,-0.27869 0.45406,-0.22708 0.26762,0.0917 0.39429,0.32468 0.56754,0.51086 0.12627,0.0441 0.30785,0.0326 0.34058,0.17019 -0.0761,0.12214 0.0873,0.1638 0.11351,0.28376 0.0442,0.20416 -0.0325,0.48045 0,0.73785 -0.0706,0.11866 -0.16506,0.21335 -0.28377,0.28377 0.0342,0.22347 -0.0836,0.29471 -0.1702,0.39728 0.0355,0.19156 0.20136,0.25264 0.227,0.45404 -0.1282,0.1197 -0.0273,0.27589 -0.0569,0.39727 -0.0361,0.14875 -0.25296,0.24952 -0.17019,0.45406 -0.33196,0.17703 -0.21463,0.43511 -0.11363,0.68095 0.0911,0.22171 0.13786,0.34498 0.2271,0.45405 0.26919,0.32902 0.52731,0.52737 0.79452,0.79464 0.10409,0.10408 0.45011,0.43583 0.45407,0.51077 0.004,0.0642 0.0404,0.0268 0.0569,0.0569 0.026,0.0469 0.0214,0.12382 0.0568,0.17018 0.0769,0.10086 0.22237,0.13849 0.22708,0.22708 0.0103,0.20191 0.39898,0.24557 0.34057,0.45396 v 0.39726 c 0.14084,0.14576 0.16242,0.38399 0.22699,0.51086 0.0116,0.024 0.0384,0.0103 0.0569,0.0569 0.0489,0.12215 0.0658,0.20334 0.1135,0.28377 0.009,0.0146 0.0397,0.0299 0.0569,0.0567 0.0927,0.1453 0.17729,0.30878 0.22699,0.45407 0.0755,0.2205 0.0165,0.46409 0.17029,0.68104 -0.10151,0.005 -0.0292,0.1449 -0.0569,0.22709 -0.003,0.005 -0.0515,-0.004 -0.0569,0 -0.045,0.0366 -0.0202,0.17841 -0.0569,0.22687 0.0733,0.009 0.0526,0.0902 0.0569,0.17029 0.003,0.0559 0.0504,0.0371 0.0569,0.0569 0.0438,0.13387 0.0709,0.24903 0.1135,0.28376 0.0188,0.0155 -0.0151,0.0935 0,0.11363 0.031,0.0414 0.10976,0.0406 0.11363,0.1135 0.004,0.0641 0.04,0.0268 0.0569,0.0569 0.066,0.11879 0.0829,0.4232 0.0568,0.56765 -0.021,0.11543 -0.0933,0.15428 -0.1135,0.28376 -0.0204,0.12994 0.0141,0.23896 0,0.39727 -0.0851,0.0722 -0.13116,0.17778 -0.1703,0.227 -0.009,0.0116 0.009,0.0453 0,0.0569 -0.0156,0.0191 -0.0961,-0.0178 -0.1135,0 -0.0936,0.097 -0.1924,0.17592 -0.2838,0.28378 -0.0179,0.0212 0.0116,0.0874 0,0.11363 -0.009,0.0199 -0.0999,0.0333 -0.11363,0.0568 -0.0641,0.11183 -0.0629,0.24264 -0.1135,0.28378 -0.0166,0.0137 0.009,0.093 0,0.11363 -0.004,0.006 -0.0502,-0.005 -0.0569,0 -0.0521,0.0426 -0.0346,0.3383 -0.0569,0.39727 -0.0402,0.10615 -0.0971,0.13779 -0.1135,0.22707 -0.0187,0.10331 0.0283,0.22856 0,0.34058 -0.003,0.0116 -0.046,0.0135 -0.0569,0.0569 -0.0199,0.0795 -0.0342,0.11376 -0.0567,0.1702 -0.0459,0.11466 -0.0499,0.15276 -0.0569,0.28377 -0.003,0.0557 -0.0506,0.0375 -0.0569,0.0569 -0.0837,0.25727 -0.14064,1.07673 0,1.19181 0.0166,0.0135 -0.009,0.093 0,0.11363 0.004,0.006 0.0502,-0.005 0.0569,0 0.0138,0.0116 0.0512,0.21597 0.0569,0.22698 0.0289,0.0562 0.0218,0.10885 0.0567,0.1703 0.0174,0.0307 0.0891,0.0818 0.11363,0.1135 0.0628,0.0816 0.14482,0.2005 0.17018,0.22696 0.0867,0.0906 0.0671,0.2482 0.1703,0.28378 0.10447,0.13765 0.15986,0.32736 0.22698,0.39737 0.0535,0.0558 0.11156,0.18744 0.11363,0.22699 0.004,0.0639 0.0411,0.0275 0.0569,0.0569 0.0601,0.11234 0.0748,0.24309 0.1135,0.2838 0.0498,0.052 0.0724,0.10589 0.1135,0.17026 0.0731,0.11453 0.11789,0.18917 0.11363,0.34047 0.14589,0.0383 0.13476,0.14846 0.17019,0.22709 0.009,0.0194 0.1,0.0343 0.11363,0.0569 0.0396,0.0648 0.0298,0.17589 0.0567,0.22696 0.005,0.009 0.0424,0.0343 0.0569,0.0569 0.089,0.13993 0.003,0.25726 0.0569,0.45397 0.004,0.0116 0.10499,0.0389 0.1135,0.0569 0.12666,0.26737 -0.0933,0.67915 0,0.96483 -0.0217,0.2108 0.22999,0.14833 0.17029,0.39728 v 0.51084 c 0.21101,0.16276 0.12201,0.45896 0.17028,0.73781 0.0141,0.0807 0.0929,0.096 0.1135,0.17022 0.0411,0.14764 -0.0312,0.20807 0,0.34055 0.1995,0.12253 0.37753,0.37745 0.51086,0.51076 0.009,0.009 0.0462,-0.009 0.0566,0 0.0192,0.0159 -0.0178,0.096 0,0.11363 0.0421,0.0421 0.0774,0.003 0.11363,0.0569 0.0329,0.0498 0.0323,0.12743 0.0569,0.1702 0.0655,0.11337 0.0864,0.11892 0.1135,0.22707 0.0116,0.0454 0.05,0.0397 0.0568,0.0568 0.061,0.15429 0.054,0.23021 0.11363,0.34057 0.0172,0.0321 0.0949,0.0764 0.1135,0.11363 0.0551,0.11118 0.0642,0.24257 0.11364,0.34055 0.0152,0.0306 0.0945,0.0783 0.1135,0.11363 0.0771,0.14335 0.0551,0.23154 0.11363,0.34057 0.017,0.032 0.0947,0.0764 0.1135,0.1135 0.0539,0.10693 0.0648,0.23878 0.11363,0.34058 0.0143,0.0298 0.0956,0.0788 0.1135,0.11363 0.10138,0.19795 0.0383,0.51723 0.0569,0.73774 0.0308,0.20105 -0.20101,0.13953 -0.17029,0.34057 0.22008,0.38528 0.37482,0.83593 0.79464,1.0216 0.18838,0.0575 0.17763,0.31406 0.45395,0.28376 0.16597,-0.0422 0.10989,-0.30632 0.34058,-0.28376 h 0.62434 c 0.18934,0 0.19371,-0.18449 0.39727,-0.17018 0.58958,-0.0716 1.39921,0.096 1.92974,0 0.11969,-0.0215 0.17725,-0.11517 0.28376,-0.11363 h 0.45407 c -0.0116,-0.0574 0.0281,-0.0377 0.0569,-0.0569 0.0224,-0.015 0.0453,-0.0494 0.0569,-0.0569 0.0469,-0.0291 0.12344,-0.0202 0.17028,-0.0567 0.0887,-0.0691 0.14145,-0.20983 0.22699,-0.28387 0.0815,-0.0706 0.14875,-0.16096 0.22699,-0.22697 0.0424,-0.0359 0.13006,-0.0254 0.17028,-0.0569 0.0476,-0.037 0.0686,-0.12782 0.1135,-0.17018 0.16876,-0.15899 0.34929,-0.30461 0.51086,-0.45396 0.17176,-0.15895 0.32696,-0.34372 0.51074,-0.51084 0.15987,-0.14541 0.34106,-0.29807 0.51077,-0.45408 0.17102,-0.1572 0.33768,-0.34959 0.51086,-0.51074 0.0421,-0.0391 0.13021,-0.0166 0.17027,-0.0569 0.0368,-0.0366 0.0195,-0.13446 0.0568,-0.1702 0.0454,-0.0433 0.11582,-0.0187 0.17029,-0.0569 0.047,-0.0328 0.0693,-0.13093 0.1135,-0.17027 0.047,-0.0417 0.11544,-0.0184 0.17029,-0.0567 0.0469,-0.0328 0.0694,-0.13089 0.1135,-0.17019 0.0847,-0.0758 0.22798,-0.1447 0.28378,-0.22708 0.0478,-0.0707 0.0667,-0.22271 0.11376,-0.34055 0.0103,-0.0249 0.0431,-0.003 0.0568,-0.0569 0.0182,-0.0729 0.0442,-0.12021 0.0569,-0.17019 0.0522,-0.20917 0.0737,-0.26183 0.11363,-0.45406 -0.004,0.0165 -0.0569,-0.0236 -0.0569,-0.0567 0,-0.0557 0.052,-0.0396 0.0569,-0.057 0.0671,-0.24083 0.021,-0.445 0,-0.68094 0.0568,-0.0783 0.11944,-0.11995 0.17019,-0.17029 0.0877,-0.0872 0.11363,-0.11505 0.22699,-0.17019 0.0432,-0.0212 0.12292,0.0116 0.17026,0 0.0703,-0.0165 0.0699,-0.0988 0.1135,-0.11363 0.10873,-0.0371 0.23969,-0.0184 0.3406,-0.0569 0.0724,-0.0276 0.0703,-0.0604 0.11363,-0.1135 0.0116,-0.0146 0.14887,9.8e-4 0.17029,0 0.0641,-0.004 0.0268,-0.0401 0.0569,-0.0569 0.053,-0.0295 0.11363,-0.0208 0.17019,-0.0569 0.17733,-0.11286 0.26802,-0.24677 0.39727,-0.39725 0.013,-0.1827 -0.10022,-0.24025 -0.0568,-0.45406 0.0448,-0.22253 0.2454,-0.48028 0.22698,-0.73784 -0.0134,-0.18958 -0.14113,-0.26498 -0.17029,-0.45398 v -0.51084 c -0.0948,0.006 -0.0244,-0.10989 -0.0567,-0.17019 -0.0206,-0.0379 -0.0872,-0.0604 -0.11376,-0.11363 -0.003,-0.004 -0.0448,-0.0389 -0.0569,-0.0569 -0.0535,-0.0805 -0.0806,-0.20459 -0.0569,-0.34047 0.0361,-0.20734 0.26726,-0.28909 0.45405,-0.45405 0.21175,-0.18704 0.37367,-0.35267 0.51075,-0.45407 0.0725,-0.0788 0.26801,-0.0347 0.34058,-0.11351 0.16853,-0.23698 0.33242,-0.46103 0.56755,-0.62434 0.26726,-0.18554 0.60443,-0.2442 0.85132,-0.45405 h 0.39735 c 0.10641,-0.19616 0.30038,-0.30492 0.51077,-0.39728 0.0711,-0.0552 0.0633,-0.15686 0.1135,-0.22699 0.0427,-0.0596 0.11427,-0.1095 0.1703,-0.17019 0.11608,-0.12588 0.26833,-0.2266 0.39727,-0.34055 6.6e-4,-0.15074 -0.0214,-0.32419 0.0569,-0.39737 0.0945,-0.0757 0.0882,-0.25234 0.17027,-0.34047 -0.27491,-0.23799 -0.13915,-0.56792 -0.11351,-0.96491 0.0315,-0.48889 -0.0566,-1.03839 0.0569,-1.24849 0.017,-0.0319 0.0961,-0.0757 0.1135,-0.11363 0.0142,-0.0306 -0.006,-0.0809 0,-0.11363 0.0289,-0.11531 0.16574,-0.11376 0.11364,-0.28377 -0.0184,-0.0588 -0.0768,-0.0731 -0.11364,-0.11363 -0.11105,-0.12137 -0.19373,-0.19049 -0.28379,-0.28378 -0.0917,-0.0953 -0.16487,-0.35501 -0.17008,-0.45406 -0.004,-0.0655 -0.0365,-0.0251 -0.057,-0.0567 -0.0847,-0.13087 -0.0431,-0.2348 -0.1135,-0.39728 -0.05,-0.11543 -0.10048,-0.14682 -0.11363,-0.22705 -0.0389,-0.24059 0.0285,-0.47704 0,-0.73774 0.044,-0.12627 0.0326,-0.30784 0.1702,-0.34056 -0.0379,-0.2482 -0.30675,-0.32811 -0.39728,-0.45409 -0.13357,-0.18577 -0.0476,-0.54889 0,-0.73782 0.02,-0.0793 0.0936,-0.0955 0.11363,-0.17019 0.0233,-0.0883 -0.0178,-0.19388 0,-0.28378 0.10718,-0.11195 0.24983,-0.26649 0.34046,-0.34055 0.0191,-0.0157 -0.0159,-0.0936 0,-0.11363 0.0916,-0.11402 0.14361,-0.084 0.17031,-0.22699 0.0135,-0.0729 0.0667,-0.0753 0.1135,-0.11363 0.0165,-0.0137 -0.009,-0.093 0,-0.11363 0.004,-0.006 0.0502,0.005 0.057,0 0.0165,-0.0134 -0.009,-0.0929 0,-0.11351 0.0143,-0.0308 0.0556,-0.0874 0.0569,-0.11363 0.005,-0.10434 0.10911,-0.14516 0.1135,-0.22699 0.004,-0.0815 0.10963,-0.0949 0.11363,-0.17027 0.006,-0.15431 0.39162,-0.34602 0.39725,-0.45397 0.004,-0.0789 0.12137,-0.16769 0.17031,-0.17029 0.11208,-0.005 0.13141,-0.16508 0.22708,-0.17018 0.12588,-0.006 0.0761,-0.16244 0.22699,-0.11363 0.13762,-0.33528 0.49351,-0.45227 0.56753,-0.85133 0.38959,-0.36441 0.79377,-0.74123 1.1351,-1.0784 0.1215,-0.12008 0.24579,-0.25242 0.34057,-0.39728 0.31158,-0.0289 0.38446,-0.2966 0.68105,-0.34057 0.14879,-0.24847 0.44274,-0.35186 0.51086,-0.68104 0.12059,-0.0997 0.27668,-0.22089 0.39727,-0.34056 0.10382,-0.10292 0.39306,-0.37409 0.39725,-0.45407 0.004,-0.0659 0.0359,-0.025 0.0569,-0.0567 0.0716,-0.10757 0.0873,-0.12227 0.11363,-0.22708 0.0289,-0.11518 0.16555,-0.11389 0.1135,-0.28378 0.15349,-0.0199 0.10989,-0.15511 0.17028,-0.22697 0.0591,-0.0704 0.17014,-0.0949 0.22699,-0.1703 0.0584,-0.0775 0.0535,-0.19247 0.11363,-0.28377 0.0197,-0.0301 0.0854,-0.0792 0.1135,-0.11351 0.0306,-0.0373 0.0859,-0.0716 0.11363,-0.11363 -0.0472,-0.17817 0.0706,-0.32509 0.1135,-0.45396 0.0103,-0.0312 -0.003,-0.0805 0,-0.11363 0.0116,-0.20615 0.19532,-0.16455 0.17029,-0.34057 v -0.34047 c 0.0116,-0.1126 0.16628,-0.14545 0.22698,-0.22708 0.0405,-0.0543 0.0231,-0.10318 0.0569,-0.17029 0.0774,-0.15475 0.22539,-0.2493 0.17029,-0.51074 0.10705,-0.082 0.25155,-0.12679 0.22697,-0.3406 0.13419,-0.13322 -0.009,-0.2788 0,-0.45404 0.0918,-0.17287 0.28497,-0.24461 0.34058,-0.45397 -0.12872,-0.0604 -0.0217,-0.35679 -0.0569,-0.51084 -0.013,-0.23704 0.0923,-0.268 0,-0.45397 -0.22381,-0.0188 -0.3661,0.004 -0.51076,0.0567 -0.0116,0.004 -0.0214,0.0426 -0.057,0.0569 -0.0141,0.005 -0.0415,-6.6e-4 -0.0569,0 -0.13091,0.006 -0.11053,0.17199 -0.22706,0.17028 -0.17322,-0.062 -0.31353,0.0823 -0.45397,0.1135 -0.14649,0.0328 -0.31045,0.0275 -0.45404,0.0569 -0.27313,0.0559 -0.53943,0.16077 -0.85133,0.1135 -0.19189,0.0731 -0.29015,0.23959 -0.51076,0.28378 h -0.68106 c -0.22896,0.20611 -0.52334,0.3469 -1.0216,0.28378 -0.26911,-0.14715 -0.36509,-0.46736 -0.68103,-0.56756 -0.062,-0.14618 -0.3665,-0.0495 -0.45397,-0.17028 0.037,-0.26576 0.44262,-0.16272 0.39728,-0.51077 -0.0295,-0.14078 -0.13837,-0.20213 -0.22699,-0.28376 -0.15667,-0.0137 -0.17319,-0.16737 -0.22699,-0.28378 -0.28908,-0.0553 -0.36732,-0.25372 -0.51086,-0.39726 -0.0687,-0.0687 -0.15846,-0.10125 -0.22697,-0.17029 -0.20622,-0.20746 -0.33743,-0.43909 -0.62437,-0.51086 -0.0489,-0.0116 -0.036,-0.0475 -0.0569,-0.0567 -0.0918,-0.0409 -0.19994,-0.0733 -0.28377,-0.11363 -0.006,-0.004 0.005,-0.0502 0,-0.0569 -0.013,-0.0154 -0.0935,0.006 -0.11351,0 -0.13789,-0.052 -0.19384,-0.12524 -0.28388,-0.17019 -0.0691,-0.0347 -0.1193,-0.0116 -0.17017,-0.0569 -0.089,-0.0785 -0.18191,-0.17474 -0.17031,-0.34055 -0.20879,-0.0924 -0.23751,-0.32597 -0.28376,-0.51076 -0.009,-0.0386 -0.0543,-0.0486 -0.0569,-0.0569 -0.0361,-0.11711 -0.0887,-0.25118 -0.0568,-0.39726 -0.16132,-0.082 -0.18053,-0.29689 -0.22708,-0.39727 -0.0136,-0.0293 -0.0422,9.8e-4 -0.0565,-0.0569 -0.0467,-0.18685 -0.11633,-0.19059 -0.22709,-0.28379 -0.0284,-0.0239 -0.0258,-0.0904 -0.0568,-0.11363 -0.0498,-0.0374 -0.12601,-0.0221 -0.17028,-0.0568 -0.0262,-0.0205 -0.0313,-0.0899 -0.0569,-0.1135 -0.0457,-0.0428 -0.11621,-0.0186 -0.17028,-0.057 -0.0352,-0.0249 -0.078,-0.0843 -0.1135,-0.1135 -0.0441,-0.036 -0.10344,-0.0445 -0.11363,-0.1135 -0.16897,-0.24538 -0.0624,-0.59 -0.1135,-0.90811 -0.0166,-0.10319 -0.0847,-0.17963 -0.11363,-0.28379 -0.0334,-0.11983 -0.004,-0.25124 -0.0569,-0.34056 -0.17897,-0.18048 -0.27281,-0.44615 -0.34058,-0.73782 -0.29313,-0.23663 -0.70687,-0.35254 -0.90811,-0.68106 -0.028,-0.19904 -0.0847,-0.36944 -0.0569,-0.62434 -0.24163,-0.25912 -0.46063,-0.52357 -0.62435,-0.79453 -0.0753,-0.12473 -0.0931,-0.16396 -0.17028,-0.22708 -0.0174,-0.0143 0.0116,-0.0929 0,-0.11351 -0.0179,-0.0321 -0.0914,-0.0782 -0.1135,-0.11363 -0.036,-0.0577 -0.0226,-0.1024 -0.0567,-0.17018 -0.0622,-0.12382 -0.10589,-0.22755 -0.17029,-0.34055 -0.0184,-0.0321 -0.0904,-0.0788 -0.11363,-0.1135 -0.0133,-0.0199 -0.0559,-0.0962 -0.0569,-0.11363 -0.004,-0.0814 -0.0849,-0.17857 -0.1135,-0.22699 -0.009,-0.0146 -0.0396,-0.03 -0.0569,-0.0569 -0.0258,-0.0405 -0.0251,-0.0806 -0.0569,-0.1135 0.041,-0.17341 -0.0579,-0.20688 -0.0569,-0.34055 -3.4e-4,-0.0704 -0.0626,-0.0333 -0.1135,-0.0569 -0.0702,-0.0322 -0.0628,-0.074 -0.11363,-0.11351 -0.22471,-0.17462 -0.33704,-0.37509 -0.45396,-0.62434 -0.0542,-0.1157 -0.25334,-0.34327 -0.057,-0.39726 0.3103,-0.0264 0.29926,0.26834 0.45416,0.39736 0.10009,0.19303 0.204,0.32645 0.28378,0.56756 0.0169,0.0511 -0.0135,0.11789 0,0.17017 0.24063,-0.0504 0.40194,0.14906 0.56765,0 0.11828,-0.2529 0.0319,-0.55965 0.0569,-0.79453 0.0236,-0.22147 0.0289,-0.22524 0,-0.34056 -0.0411,-0.16421 -0.0103,-0.16557 -0.0569,-0.28378 -0.0103,-0.0261 -0.0996,-0.0809 -0.11363,-0.1135 -0.0134,-0.0313 0.006,-0.0801 0,-0.11363 -0.0237,-0.0944 -0.0754,-0.16593 -0.1135,-0.22699 -0.0213,-0.0342 -0.0929,-0.074 -0.11363,-0.1135 -0.029,-0.0548 -0.0383,-0.12717 -0.0569,-0.17029 -0.0268,-0.0624 -0.0546,-0.0864 -0.0567,-0.17029 -0.23985,0.004 -0.38766,0.14405 -0.62445,0.17029 -0.14149,0.0157 -0.26977,-0.0116 -0.45397,0 -0.15539,-0.0904 -0.28002,-0.21181 -0.45404,-0.28378 -0.009,0.0749 -0.0907,0.05 -0.1702,0.0567 -0.18379,0.0155 -0.28012,0.0417 -0.34057,0.0569 -0.22662,0.0567 -0.34855,-0.0103 -0.45406,0.0569 -0.12266,0.0782 -0.15671,0.0842 -0.22699,0.17017 -0.0154,0.0187 -0.15097,0.0446 -0.17017,0.057 -0.0637,0.0406 -0.0681,0.0578 -0.11363,0.1135 -0.0136,0.0166 -0.093,-0.009 -0.11363,0 -0.006,0.004 0.005,0.05 0,0.0568 -0.009,0.0116 -0.0967,-0.003 -0.11363,0 -0.24875,0.0281 -0.4623,-0.11002 -0.73774,-0.17018 -0.19114,-0.0418 -0.32395,-0.0275 -0.39727,-0.0569 -0.0139,-0.005 -0.0417,9.9e-4 -0.0569,0 -0.0544,-0.003 -0.0391,-0.0515 -0.0568,-0.0569 -0.19119,-0.0583 -0.48942,-0.0179 -0.56764,-0.1135 -0.0136,-0.0165 -0.093,0.009 -0.11364,0 -0.006,-0.004 0.005,-0.0502 0,-0.0569 -0.0914,-0.11182 -0.54625,0.0816 -0.68102,0 -0.0936,-0.0346 -0.12549,-0.1166 -0.22699,-0.17019 -0.0281,-0.0148 -0.0823,0.006 -0.1135,0 -0.0502,-0.013 -0.0344,-0.0466 -0.0569,-0.0569 -0.20025,-0.0929 -0.4487,-0.0486 -0.73782,-0.0569 -0.1446,-0.0824 -0.15231,-0.30169 -0.28379,-0.39728 -0.21046,0.0404 -0.24359,-0.097 -0.45405,-0.0568 -0.23533,0.065 -0.22109,-0.11956 -0.39726,-0.11363 -0.013,0.18589 -0.24162,0.0716 -0.34059,0.11363 -0.13857,0.0591 -0.1676,0.18897 -0.28376,0.22699 -0.0412,0.12916 -0.32362,0.0168 -0.28377,0.22698 0.003,0.0975 -0.0437,0.1455 -0.1135,0.17029 0.0562,0.12691 0.0931,0.22079 0.1135,0.39727 0.0195,0.16795 -0.0146,0.34219 0,0.51075 -0.12537,0.0586 -0.1547,0.18954 -0.34059,0.22698 -0.27613,0.0556 -0.53904,-0.0667 -0.62425,-0.28378 -0.24984,0.0873 -0.37286,-0.10924 -0.45404,-0.1135 -0.0522,-0.003 -0.0417,-0.0526 -0.0569,-0.0567 -0.10422,-0.0281 -0.20189,0.0237 -0.34057,0 -0.0818,-0.0141 -0.20161,-0.10112 -0.28377,-0.11363 -0.12943,-0.0197 -0.2671,0.0147 -0.39728,0 -0.0273,-0.17192 -0.24281,-0.15065 -0.34055,-0.22708 -0.1215,-0.0949 -0.18943,-0.24111 -0.28378,-0.34047 0.0578,-0.26596 -0.0934,-0.32279 -0.17031,-0.45407 h -0.56753 c -0.21676,-0.30595 -0.77359,-0.0921 -1.1918,-0.17017 -0.0777,-0.0146 -0.10138,-0.0851 -0.17028,-0.11363 -0.0847,-0.0348 -0.24755,-0.0338 -0.28378,-0.0569 -0.1,-0.0633 -0.0917,-0.20221 -0.22699,-0.22698 0.045,-0.1963 -0.0631,-0.23962 -0.11363,-0.34057 -0.19784,0.081 -0.46386,0.19179 -0.56756,-0.0567 -9.8e-4,-0.16027 0.0819,-0.19895 0.17028,-0.28389 0.0313,-0.0302 0.0822,-0.0896 0.1135,-0.1135 0.0422,-0.0322 0.12955,-0.0199 0.17029,-0.0569 0.084,-0.0765 0.15585,-0.1445 0.22698,-0.22698 0.0983,-0.11428 0.17479,-0.18947 0.17028,-0.34057 -0.004,-0.13854 -0.0987,-0.19805 -0.17028,-0.28377 -0.0681,-0.0815 -0.19721,-0.12046 -0.22698,-0.28378 0.0382,-0.28343 0.42243,-0.22082 0.39726,-0.56757 -0.17852,-0.0272 -0.22181,0.0807 -0.34048,0.1135 -0.0916,-0.0787 -0.17972,-0.16077 -0.28377,-0.22697 -0.0116,-0.0543 -0.0482,-0.0531 -0.11363,-0.0569 -0.11169,-0.005 -0.13598,-0.17083 -0.22696,-0.17028 z m 27.04655,35.58377 c -0.009,0 -0.0192,0 -0.0307,0.003 -0.12627,0.13861 -0.20796,0.32185 -0.17097,0.62465 -0.16742,0.21096 -0.32473,0.43193 -0.68105,0.45396 0.0214,0.21066 0.009,0.387 -0.17028,0.39728 -0.0281,0.17861 0.12382,0.22188 0,0.34055 -0.0825,0.10654 -0.37149,0.006 -0.45396,0.11363 -0.069,0.10138 -0.0103,0.33011 -0.11363,0.39727 -0.17277,0.0161 -0.22062,-0.18185 -0.34048,-0.0569 -0.0135,0.0809 -0.0936,0.0957 -0.11376,0.17029 0.0743,9.8e-4 0.0724,0.15733 0,0.17019 -0.22637,0.0561 -0.1709,-0.16961 -0.39726,-0.1135 -0.18263,0.21477 -0.58461,0.20995 -0.90812,0.28379 -0.10293,0.37016 -0.38185,0.56413 -0.51077,0.9081 -2.5e-4,0.18938 0.18455,0.19378 0.17019,0.39727 v 1.47567 c -0.10744,0.0833 -0.10216,0.18248 -0.17019,0.28378 -0.0228,0.034 -0.0854,0.0791 -0.11363,0.1135 -0.0845,0.10319 -0.11067,0.20571 -0.17019,0.28377 -0.10396,0.13601 -0.3289,0.23248 -0.39726,0.34068 -0.0557,0.088 -0.069,0.24729 -0.11363,0.28377 -0.0166,0.0135 0.009,0.0929 0,0.1135 -0.004,0.006 -0.05,-0.005 -0.0569,0 -0.0851,0.0698 0.0622,0.41191 0,0.51086 0.0504,0.11982 0.17285,0.16771 0.1703,0.34047 0.0555,0.4171 -0.0774,0.78801 0,1.07839 0.0208,0.0782 0.0806,0.0619 0.1135,0.11363 0.0422,0.0662 0.006,0.16955 0.0569,0.22705 0.0397,0.0462 0.1175,0.0199 0.1702,0.0567 0.0473,0.0329 0.0653,0.13631 0.11363,0.17028 0.025,0.0177 0.0851,-0.013 0.11363,0 0.0196,0.009 0.0339,0.1 0.0569,0.1135 0.0645,0.0384 0.11763,0.0654 0.22708,0.0569 0.23874,-0.006 0.27196,-0.21976 0.51075,-0.22699 h 0.51086 c 0.0424,-0.12382 0.18584,-0.19339 0.22698,-0.22706 0.0152,-0.013 -0.006,-0.0935 0,-0.11351 0.0257,-0.0678 0.062,-0.12807 0.1135,-0.17027 0.0186,-0.0151 -0.0142,-0.0931 0,-0.11351 0.0316,-0.0453 0.0829,-0.0528 0.11363,-0.11363 0.0484,-0.0957 0.0678,-0.18998 0.11363,-0.28377 0.0557,-0.11415 0.13343,-0.25364 0.17028,-0.28387 0.0174,-0.0143 -0.0116,-0.0929 0,-0.11351 0.0181,-0.0325 0.0957,-0.0751 0.1135,-0.1135 0.0375,-0.0801 0.0359,-0.14333 0.0569,-0.22708 0.0116,-0.0467 0.0493,-0.0383 0.0569,-0.0569 0.0454,-0.10924 0.0673,-0.23783 0.1135,-0.34054 0.0306,-0.068 0.0963,-0.10176 0.11363,-0.17019 0.0174,-0.0703 0.0103,-0.0757 0.0569,-0.11363 0.0174,-0.0143 -0.0116,-0.0929 0,-0.1135 0.0181,-0.0325 0.0953,-0.0753 0.1135,-0.11363 0.0404,-0.084 0.0685,-0.18458 0.11363,-0.28378 0.0441,-0.0972 0.1,-0.17211 0.11363,-0.22708 0.0177,-0.0704 0.0103,-0.0756 0.0568,-0.1135 0.0186,-0.0152 -0.0142,-0.0931 0,-0.11363 0.0316,-0.0453 0.0831,-0.0527 0.11376,-0.1135 0.0479,-0.0949 0.0699,-0.19028 0.11351,-0.28377 0.0502,-0.1077 0.0667,-0.19044 0.11363,-0.28387 0.0157,-0.0312 0.0418,0.003 0.0569,-0.0568 0.0202,-0.0807 0.02,-0.11531 0.0567,-0.17029 0.0957,-0.14335 0.0651,-0.33632 0.1135,-0.51076 0.005,-0.0197 0.10344,-0.0856 0.11376,-0.11363 0.0161,-0.0436 -0.003,-0.12343 0,-0.1702 0.003,-0.0573 0.0493,-0.0355 0.0568,-0.0569 0.0458,-0.1298 0.0186,-0.25568 0.0569,-0.34055 0.009,-0.0213 0.10189,-0.0304 0.11363,-0.0569 0.0626,-0.14088 0.009,-0.17746 0.0569,-0.28378 0.009,-0.0203 0.10021,-0.0328 0.1135,-0.0569 0.0424,-0.077 0.0157,-0.15181 0.057,-0.22698 0.0264,-0.048 0.14996,-0.0544 0.1135,-0.17029 -0.0344,-0.13598 -0.0816,-0.25887 -0.0569,-0.45396 0.18444,-0.13022 0.35129,0.0748 0.51086,-0.0569 -0.10151,-0.25996 -0.15031,-0.61089 -0.17028,-0.96483 -0.0165,-0.29215 0.0406,-0.59311 0,-0.85143 -0.013,-0.081 -0.0938,-0.0957 -0.1135,-0.17019 -0.0223,-0.0841 0.0334,-0.20413 0,-0.28378 -0.0103,-0.0231 -0.0942,-0.0883 -0.11376,-0.11363 -0.0441,-0.0575 -0.0704,-0.11337 -0.1135,-0.17018 -0.0635,-0.003 -0.0761,-0.0562 -0.13958,-0.0591 z"
         style="display:inline;overflow:visible;fill:#ffffff;fill-opacity:1;stroke:none;stroke-width:0.0506619;stroke-dasharray:none"
         transform="matrix(0.26458333,0,0,0.26458333,24.52227,-47.76992)" /><circle
         style="display:inline;overflow:visible;fill:none;fill-opacity:1;stroke:none;stroke-width:0.174996;stroke-dasharray:none"
         id="path1"
         cx="-768.55615"
         cy="-228.29353"
         r="25.016779"
         transform="matrix(-0.16592935,-0.20608685,0.20608685,-0.16592935,24.522271,-47.76992)" /><text
         xml:space="preserve"
         style="font-weight:900;font-size:2.9986px;line-height:1;font-family:'Arial Black';-inkscape-font-specification:'Arial Black,  Heavy';text-align:start;letter-spacing:-0.0899583px;word-spacing:0.370417px;writing-mode:lr-tb;direction:ltr;text-anchor:start;display:inline;overflow:visible;fill:#ffffff;fill-opacity:1;stroke:none;stroke-width:0.04;stroke-dasharray:none"
         id="text1"><textPath
           xlink:href="#path1"
           id="textPath1"
           style="stroke-width:0.04"><tspan
             id="tspan1"
             style="stroke-width:0.04">Africa</tspan></textPath></text><text
         xml:space="preserve"
         style="font-weight:900;font-size:11.3333px;line-height:1;font-family:'Arial Black';-inkscape-font-specification:'Arial Black,  Heavy';text-align:start;letter-spacing:-0.34px;word-spacing:1.4px;writing-mode:lr-tb;direction:ltr;text-anchor:start;display:inline;overflow:visible;fill:#ffffff;fill-opacity:1;stroke:none;stroke-width:0.151181;stroke-dasharray:none"
         x="276.54895"
         y="757.77185"
         id="text2"
         transform="matrix(0.26458333,0,0,0.26458333,24.52227,-47.76992)"><tspan
           sodipodi:role="line"
           id="tspan2"
           x="276.54895"
           y="757.77185">XX</tspan></text></g></g></svg>
