<?xml version="1.0" encoding="UTF-8" standalone="no"?>
<!-- Created with Inkscape (http://www.inkscape.org/) -->

<svg
   width="210mm"
   height="297mm"
   viewBox="0 0 210 297"
   version="1.1"
   id="svg1"
   xml:space="preserve"
   inkscape:version="1.4 (e7c3feb1, 2024-10-09)"
   sodipodi:docname="Africa.svg"
   xmlns:inkscape="http://www.inkscape.org/namespaces/inkscape"
   xmlns:sodipodi="http://sodipodi.sourceforge.net/DTD/sodipodi-0.dtd"
   xmlns="http://www.w3.org/2000/svg"
   xmlns:svg="http://www.w3.org/2000/svg"><sodipodi:namedview
     id="namedview1"
     pagecolor="#ffffff"
     bordercolor="#000000"
     borderopacity="0.25"
     inkscape:showpageshadow="2"
     inkscape:pageopacity="0.0"
     inkscape:pagecheckerboard="0"
     inkscape:deskcolor="#d1d1d1"
     inkscape:document-units="mm"
     inkscape:zoom="2.8832274"
     inkscape:cx="311.97677"
     inkscape:cy="421.22934"
     inkscape:window-width="1472"
     inkscape:window-height="826"
     inkscape:window-x="0"
     inkscape:window-y="37"
     inkscape:window-maximized="0"
     inkscape:current-layer="layer1" /><defs
     id="defs1"><inkscape:perspective
       sodipodi:type="inkscape:persp3d"
       inkscape:vp_x="0 : 512 : 1"
       inkscape:vp_y="0 : 1000 : 0"
       inkscape:vp_z="958.27698 : 512 : 1"
       inkscape:persp3d-origin="479.13849 : 341.33333 : 1"
       id="perspective2900" /></defs><g
     inkscape:label="Ebene 1"
     inkscape:groupmode="layer"
     id="layer1"
     style="display:inline"><g
       id="g9"><path
         id="path2"
         style="display:inline;fill:#000000;fill-opacity:1;stroke:none;stroke-width:0.122805;stroke-opacity:1"
         d="M 96.427189 100.98143 A 9.9385977 9.9385977 0 0 0 86.488261 110.92036 A 9.9385977 9.9385977 0 0 0 96.427189 120.85877 A 9.9385977 9.9385977 0 0 0 106.3656 110.92036 A 9.9385977 9.9385977 0 0 0 96.427189 100.98143 z M 96.125916 101.16333 C 96.234535 101.16247 96.32182 101.17076 96.387915 101.18814 C 96.476042 101.21131 96.548655 101.25994 96.60599 101.33335 C 96.66328 101.40598 96.694904 101.49653 96.701074 101.60568 C 96.706451 101.7008 96.691185 101.78412 96.654565 101.8558 C 96.617902 101.9267 96.564959 101.98564 96.496436 102.03253 C 96.452759 102.06238 96.392265 102.0887 96.314535 102.11108 C 96.378876 102.12856 96.426091 102.14695 96.456128 102.16637 C 96.476412 102.17931 96.506285 102.20771 96.545528 102.25164 C 96.585551 102.29552 96.612259 102.32972 96.626143 102.35396 L 96.910364 102.83662 L 96.311434 102.87021 L 95.998792 102.36223 C 95.959094 102.29643 95.924652 102.2543 95.895439 102.23562 C 95.855738 102.21127 95.812002 102.20033 95.763664 102.20306 L 95.716638 102.20565 L 95.755912 102.90173 L 95.224162 102.9317 L 95.12701 101.21708 L 96.01016 101.16747 C 96.051092 101.16515 96.089709 101.16362 96.125916 101.16333 z M 97.195618 101.18607 L 97.724268 101.2424 L 97.54185 102.94979 L 97.0132 102.89346 L 97.195618 101.18607 z M 94.576656 101.31165 L 94.671741 101.66821 L 93.919332 101.86872 L 93.99633 102.15862 L 94.639185 101.98706 L 94.728585 102.32192 L 94.08573 102.49349 L 94.266597 103.17148 L 93.7519 103.30894 L 93.309033 101.64961 L 94.576656 101.31165 z M 98.796037 101.45117 C 98.884753 101.45333 98.978781 101.46855 99.078707 101.49613 C 99.287215 101.55369 99.439349 101.64099 99.53501 101.75813 C 99.631423 101.87547 99.684419 102.02948 99.694173 102.22012 L 99.215133 102.19583 C 99.213247 102.14103 99.206884 102.0994 99.196012 102.07129 C 99.178213 102.02425 99.151496 101.98442 99.115914 101.95192 C 99.080331 101.91941 99.036875 101.89628 98.985689 101.88215 C 98.869768 101.85015 98.768288 101.87251 98.680798 101.94882 C 98.615012 102.00519 98.561535 102.10748 98.520601 102.25577 C 98.469902 102.43944 98.46262 102.57291 98.499414 102.65678 C 98.536416 102.73991 98.60577 102.79534 98.706637 102.82318 C 98.804492 102.85019 98.8857 102.84323 98.950549 102.80199 C 99.016151 102.76097 99.074785 102.6911 99.126249 102.5927 L 99.537077 102.85212 C 99.472267 102.96952 99.395641 103.06164 99.307633 103.12807 C 99.219626 103.19451 99.121789 103.23579 99.013595 103.2521 C 98.906153 103.26861 98.777928 103.25634 98.629639 103.21541 C 98.449735 103.16574 98.310105 103.09894 98.210026 103.01542 C 98.110908 102.93135 98.037873 102.8124 97.991435 102.65782 C 97.944996 102.50323 97.950212 102.32278 98.006938 102.11728 C 98.082571 101.84328 98.213366 101.65294 98.399162 101.54626 C 98.515885 101.47924 98.648176 101.44757 98.796037 101.45117 z M 95.978638 101.51938 C 95.958214 101.51868 95.935627 101.51905 95.911458 101.52042 L 95.678914 101.53334 L 95.698551 101.88164 L 95.921794 101.86923 C 95.945963 101.86787 95.992296 101.85723 96.060803 101.83771 C 96.095491 101.82871 96.122769 101.8094 96.142969 101.77932 C 96.163948 101.74919 96.173506 101.71545 96.171391 101.67803 C 96.168262 101.62268 96.148205 101.58113 96.111446 101.55349 C 96.083877 101.53276 96.03991 101.52149 95.978638 101.51938 z M 92.310645 102.06457 L 93.657849 103.30997 L 93.161755 103.55905 L 92.959184 103.34356 L 92.419165 103.61486 L 92.471875 103.90529 L 91.98715 104.14868 L 91.79388 102.3245 L 92.310645 102.06457 z M 100.77111 102.17464 L 101.28167 102.44698 L 101.04241 104.26599 L 100.55252 104.0045 L 100.61143 103.7146 L 100.07813 103.42986 L 99.871423 103.64122 L 99.3929 103.38542 L 100.77111 102.17464 z M 92.246566 102.59529 L 92.355086 103.23142 L 92.69305 103.06141 L 92.246566 102.59529 z M 100.81142 102.70071 L 100.3546 103.15649 L 100.68843 103.33478 L 100.81142 102.70071 z M 95.51355 103.54665 C 95.54139 103.54648 95.549133 103.59654 95.583313 103.59833 C 95.603297 103.59938 95.614246 103.59927 95.617936 103.6159 C 95.649773 103.63616 95.676729 103.66107 95.704753 103.68514 C 95.741061 103.67514 95.754516 103.64221 95.809139 103.65052 C 95.816842 103.75661 95.698867 103.73743 95.687183 103.82415 C 95.696294 103.87415 95.736135 103.88602 95.756946 103.91097 C 95.778829 103.9372 95.807899 103.9554 95.809139 103.99779 C 95.810517 104.04402 95.787037 104.06723 95.756946 104.10217 C 95.735185 104.12741 95.712924 104.14804 95.687183 104.17142 C 95.674733 104.18271 95.6484 104.17913 95.635506 104.18899 C 95.62592 104.19632 95.609968 104.21436 95.600366 104.22361 C 95.573292 104.2496 95.547698 104.2614 95.548173 104.31043 C 95.579902 104.38646 95.661789 104.35281 95.722323 104.328 C 95.737759 104.35889 95.770682 104.37181 95.756946 104.43187 C 95.798292 104.43945 95.795611 104.48226 95.826192 104.50163 C 95.837279 104.50866 95.887098 104.50801 95.913009 104.51868 C 95.934095 104.52738 95.941435 104.54938 95.965202 104.55382 C 96.093161 104.57768 96.263715 104.51189 96.330037 104.6055 L 96.50367 104.6055 C 96.527192 104.64567 96.573064 104.66314 96.555347 104.74451 C 96.584212 104.77491 96.605529 104.81986 96.64268 104.8489 C 96.672587 104.87228 96.738188 104.86554 96.746549 104.91814 C 96.78638 104.92266 96.828389 104.91211 96.867989 104.91814 C 96.893134 104.92197 96.929783 104.949 96.954806 104.95328 C 96.997239 104.96054 97.02734 104.94466 97.059192 104.95328 C 97.063771 104.95452 97.060759 104.96949 97.076762 104.97034 C 97.1016 104.97164 97.13881 105.0317 97.215255 105.00496 C 97.241318 105.07136 97.321973 105.10881 97.406458 105.09178 C 97.463332 105.08032 97.472484 105.04046 97.510844 105.02253 C 97.506388 104.97095 97.516801 104.91786 97.510844 104.86647 C 97.504627 104.81247 97.493402 104.78336 97.476221 104.74451 C 97.497583 104.73693 97.511778 104.7227 97.510844 104.69283 C 97.498654 104.62855 97.585088 104.66258 97.59766 104.62307 C 97.633203 104.61143 97.642074 104.57191 97.684477 104.55382 C 97.714751 104.54092 97.784411 104.57608 97.788346 104.5192 C 97.84225 104.51741 97.838299 104.57372 97.910303 104.55382 C 97.974696 104.5415 97.984403 104.58317 98.048796 104.57088 C 98.089024 104.60013 98.091888 104.66761 98.136129 104.69283 C 98.224594 104.69541 98.300169 104.68148 98.361438 104.70989 C 98.368268 104.71306 98.363664 104.72361 98.379008 104.72746 C 98.388579 104.72985 98.404994 104.72291 98.413631 104.72746 C 98.444671 104.74383 98.454758 104.7691 98.483394 104.77965 C 98.524633 104.80464 98.663657 104.74544 98.69165 104.77965 C 98.69332 104.78169 98.689491 104.79566 98.69165 104.7967 C 98.69796 104.79969 98.722108 104.79164 98.726274 104.7967 C 98.750208 104.82595 98.841409 104.8135 98.899906 104.83133 C 98.905327 104.83298 98.9008 104.84802 98.917476 104.8489 C 98.922101 104.84916 98.930257 104.84721 98.93453 104.8489 C 98.956964 104.85787 98.998004 104.8537 99.056486 104.86647 C 99.140756 104.88486 99.205688 104.92673 99.281795 104.91814 C 99.286956 104.91756 99.314026 104.92167 99.316935 104.91814 C 99.318574 104.91611 99.314745 104.90213 99.316935 104.90109 C 99.323244 104.8981 99.347393 104.90616 99.351558 104.90109 C 99.365494 104.88406 99.366688 104.87887 99.386182 104.86647 C 99.392062 104.86272 99.433704 104.85462 99.438375 104.8489 C 99.459875 104.8226 99.470119 104.82061 99.507621 104.7967 C 99.539902 104.77612 99.577292 104.79699 99.646631 104.77965 C 99.665129 104.77501 99.694786 104.7668 99.751017 104.76208 C 99.775366 104.76004 99.800546 104.76745 99.80321 104.74451 C 99.856455 104.76653 99.894155 104.80363 99.941703 104.83133 C 99.998057 104.82781 100.03742 104.83612 100.08071 104.83133 C 100.15316 104.8233 100.19853 104.78077 100.27192 104.77965 C 100.27256 104.80533 100.28079 104.81223 100.28897 104.83133 C 100.29462 104.84453 100.29767 104.86672 100.30654 104.88352 C 100.31292 104.8956 100.33464 104.90768 100.34116 104.91814 C 100.35277 104.93683 100.36907 104.95901 100.3763 104.98791 C 100.37886 104.99814 100.37217 105.01293 100.3763 105.02253 C 100.38057 105.03248 100.40779 105.04921 100.41093 105.05715 C 100.42514 105.09332 100.41539 105.09373 100.42798 105.14397 C 100.43678 105.17925 100.43516 105.18059 100.42798 105.24836 C 100.42035 105.32022 100.44713 105.41386 100.41093 105.49124 C 100.36022 105.53684 100.31092 105.4758 100.23729 105.49124 C 100.23314 105.47525 100.24248 105.45519 100.23729 105.43956 C 100.21288 105.36579 100.18112 105.32499 100.15048 105.26593 C 100.10308 105.22645 100.10641 105.13585 100.01147 105.14397 C 99.951357 105.16049 100.01192 105.23 100.02852 105.26541 C 100.06429 105.34167 100.09877 105.40318 100.16753 105.45661 C 100.18306 105.46866 100.18071 105.48137 100.20215 105.49124 C 100.21774 105.49843 100.23715 105.48727 100.23729 105.50881 C 100.23692 105.54971 100.26687 105.56013 100.25435 105.61319 C 100.26399 105.62321 100.26401 105.63544 100.27192 105.64781 C 100.27714 105.65601 100.28684 105.66038 100.28949 105.66487 C 100.29824 105.67968 100.32279 105.70972 100.32411 105.73463 C 100.3244 105.73998 100.3371 105.76316 100.34116 105.76925 C 100.34827 105.77987 100.37068 105.79406 100.3763 105.80388 C 100.39601 105.83846 100.40894 105.87039 100.42798 105.90826 C 100.43841 105.929 100.43457 105.94282 100.44555 105.96046 C 100.45229 105.97133 100.47466 105.98523 100.48017 105.99508 C 100.48374 106.00145 100.47483 106.02531 100.48017 106.0297 C 100.50377 106.04901 100.50932 106.06132 100.53236 106.09947 C 100.58246 106.18237 100.64963 106.26307 100.72357 106.34235 C 100.71505 106.42034 100.73205 106.47265 100.74062 106.53355 C 100.8022 106.63407 100.92895 106.6694 101.01864 106.74181 C 101.03937 106.83105 101.06827 106.91241 101.12303 106.96763 C 101.13932 106.99497 101.12985 107.03481 101.14008 107.0715 C 101.14895 107.10337 101.17015 107.12674 101.17522 107.15832 C 101.19085 107.25565 101.15814 107.36125 101.20984 107.43634 C 101.21294 107.45742 101.23099 107.45993 101.24447 107.47096 C 101.25534 107.47986 101.26835 107.4985 101.27909 107.5061 C 101.29564 107.51784 101.31729 107.51011 101.33128 107.52315 C 101.33906 107.5304 101.34083 107.5515 101.34885 107.55778 C 101.3624 107.56839 101.38528 107.56391 101.40053 107.57535 C 101.40996 107.58244 101.40939 107.60265 101.4181 107.60997 C 101.45197 107.63848 101.47306 107.63962 101.48735 107.69679 C 101.49177 107.71452 101.50075 107.70541 101.50492 107.71436 C 101.51916 107.74507 101.52532 107.8107 101.57468 107.8358 C 101.56485 107.88049 101.58064 107.9214 101.59173 107.95723 C 101.59253 107.95976 101.60633 107.963 101.6093 107.9748 C 101.62345 108.03134 101.63223 108.10261 101.69612 108.13087 C 101.69257 108.1816 101.72107 108.21124 101.74831 108.23525 C 101.76387 108.24897 101.77882 108.24221 101.79999 108.25282 C 101.82754 108.26658 101.84462 108.2886 101.8868 108.3045 C 101.89291 108.30681 101.91812 108.29981 101.92194 108.3045 C 101.92363 108.30655 101.91975 108.32101 101.92194 108.32207 C 101.94759 108.3344 101.98061 108.3442 102.00876 108.35669 C 102.01513 108.35951 102.01085 108.37053 102.02581 108.37426 C 102.11361 108.39622 102.15393 108.46685 102.21702 108.53033 C 102.23798 108.55144 102.26521 108.56146 102.28626 108.58252 C 102.33018 108.62644 102.35439 108.68702 102.44284 108.70396 C 102.4593 108.73958 102.46416 108.78659 102.51209 108.79078 C 102.53921 108.81575 102.57283 108.83452 102.58185 108.87759 C 102.59573 108.98408 102.47121 108.95286 102.4599 109.03417 C 102.48666 109.07108 102.57998 109.04163 102.59891 109.08636 C 102.69558 109.11702 102.72482 109.21498 102.80716 109.26 C 102.95961 109.27931 103.04974 109.23624 103.1198 109.17318 L 103.32806 109.17318 C 103.39556 109.15966 103.42593 109.10869 103.48464 109.08636 C 103.58007 109.10084 103.66152 109.06831 103.74509 109.05122 C 103.78902 109.04225 103.83928 109.0442 103.8841 109.03417 C 103.92707 109.0246 103.97011 108.98058 104.02311 108.99955 C 104.05874 109.00007 104.05229 108.94945 104.09235 108.94736 C 104.09698 108.94711 104.10565 108.94905 104.10992 108.94736 C 104.12078 108.94301 104.12344 108.93109 104.12698 108.92979 C 104.17123 108.91351 104.21508 108.90699 104.28356 108.91273 C 104.31181 108.96964 104.27964 108.9787 104.28356 109.05122 C 104.29432 109.09836 104.26119 109.18934 104.30061 109.2078 C 104.2836 109.27186 104.22489 109.29392 104.19674 109.34681 C 104.19392 109.40043 104.2378 109.44454 104.19674 109.48531 C 104.20426 109.55071 104.15973 109.56459 104.12698 109.58969 C 104.14384 109.66969 104.09846 109.69841 104.07478 109.74576 C 104.06449 109.76631 104.0701 109.78132 104.05773 109.79795 C 104.03916 109.82293 103.99146 109.83327 103.98797 109.86771 L 103.98797 109.97158 C 103.99562 110.02544 103.93986 110.01289 103.93629 110.07597 C 103.93572 110.08611 103.93948 110.10104 103.93629 110.11059 C 103.92314 110.15002 103.88673 110.19509 103.90115 110.2496 C 103.89274 110.26245 103.87585 110.27283 103.86653 110.28422 C 103.85792 110.29474 103.83795 110.30966 103.83191 110.31885 C 103.81353 110.34678 103.81518 110.38194 103.79728 110.40566 C 103.77989 110.42873 103.74562 110.43634 103.72752 110.45786 C 103.709 110.47985 103.72229 110.52156 103.67533 110.52762 C 103.69125 110.57961 103.64954 110.57919 103.6407 110.61444 C 103.63269 110.6465 103.62793 110.65074 103.60608 110.68368 C 103.59966 110.69336 103.5896 110.68112 103.58851 110.70125 C 103.58722 110.72572 103.49881 110.80876 103.46707 110.84026 C 103.43018 110.87688 103.3825 110.91364 103.34563 110.94413 C 103.32479 111.04485 103.23509 111.07636 103.18957 111.15239 C 103.09882 111.16583 103.07612 111.24792 102.98079 111.25677 C 102.95179 111.30109 102.91409 111.34151 102.87692 111.37821 C 102.77249 111.48138 102.64886 111.59693 102.52966 111.70843 C 102.50701 111.83052 102.39814 111.86629 102.35603 111.96888 C 102.30984 111.95393 102.32478 112.00146 102.28626 112.0035 C 102.257 112.00506 102.25129 112.0539 102.21702 112.05569 C 102.20202 112.05649 102.16609 112.08375 102.16482 112.10789 C 102.16309 112.14092 102.04588 112.19968 102.04338 112.2469 C 102.04216 112.26996 102.00956 112.27364 102.00824 112.29857 C 102.00693 112.32361 101.97531 112.33642 101.97362 112.36833 C 101.97321 112.37631 101.96095 112.39351 101.95657 112.40296 C 101.95363 112.40925 101.96159 112.43345 101.95657 112.43758 C 101.95452 112.43924 101.94005 112.43541 101.939 112.43758 C 101.93604 112.44389 101.94407 112.46802 101.939 112.4722 C 101.92468 112.48392 101.90854 112.48503 101.90437 112.50734 C 101.89621 112.5511 101.8802 112.54172 101.85218 112.57659 C 101.84736 112.58266 101.85802 112.60644 101.85218 112.61121 C 101.82445 112.63388 101.78061 112.68136 101.74779 112.7156 C 101.74237 112.7431 101.75495 112.77536 101.74779 112.80242 C 101.74173 112.82528 101.71933 112.83029 101.71317 112.85461 C 101.69861 112.91242 101.6723 113.02359 101.71317 113.08044 C 101.74087 113.11898 101.82299 113.14299 101.83461 113.21893 C 101.79255 113.22894 101.79589 113.28468 101.78242 113.32332 C 101.79118 113.40308 101.77052 113.47553 101.78242 113.54914 C 101.7864 113.57369 101.80224 113.58304 101.81756 113.61839 C 101.83909 113.6681 101.82627 113.7003 101.85218 113.74034 C 101.85841 113.74998 101.86866 113.73732 101.86975 113.7574 C 101.87134 113.7877 101.89336 113.8673 101.92143 113.89641 C 101.94898 113.92495 101.97426 113.94612 102.00824 113.98322 C 102.01959 113.99563 102.03775 113.99984 102.04338 114.01785 C 102.05931 114.06985 102.01709 114.0694 102.00824 114.10466 C 102.00575 114.11466 102.01255 114.12999 102.00824 114.13929 C 102.00287 114.15086 101.97887 114.16467 101.97362 114.17443 C 101.93898 114.23871 101.96621 114.40673 101.95657 114.55632 C 101.94871 114.67778 101.90707 114.77857 101.99119 114.85139 C 101.96606 114.87835 101.96792 114.93262 101.939 114.95577 C 101.91508 114.97816 101.92161 115.03109 101.92143 115.07721 C 101.88198 115.11208 101.83551 115.14307 101.79999 115.1816 C 101.78287 115.20016 101.76087 115.21555 101.74779 115.23379 C 101.7324 115.25525 101.73492 115.28616 101.71317 115.30304 C 101.64879 115.33129 101.58968 115.36447 101.55711 115.42448 L 101.43515 115.42448 C 101.35961 115.48869 101.25648 115.50672 101.1747 115.56349 C 101.10276 115.61346 101.05263 115.68218 101.00107 115.75469 C 100.97887 115.77879 100.91942 115.7652 100.8972 115.78931 C 100.85526 115.82034 100.80541 115.8711 100.74062 115.92832 C 100.68347 115.9788 100.61267 116.00389 100.60161 116.06733 C 100.59432 116.10891 100.60278 116.14659 100.61918 116.1712 C 100.62284 116.17669 100.63605 116.18736 100.63675 116.18877 C 100.64485 116.20505 100.66511 116.21179 100.67137 116.2234 C 100.6813 116.24188 100.65941 116.27743 100.68843 116.27559 L 100.68843 116.43165 C 100.69736 116.48948 100.73649 116.51266 100.74062 116.57066 C 100.74626 116.64947 100.68506 116.7284 100.67137 116.79649 C 100.65802 116.86191 100.69224 116.8796 100.68843 116.9355 C 100.64889 116.98155 100.62124 117.02242 100.56699 117.05694 C 100.54967 117.06796 100.53103 117.06547 100.51479 117.07451 C 100.50562 117.07961 100.5174 117.0905 100.49774 117.09156 C 100.49119 117.0919 100.44916 117.08714 100.44555 117.09156 C 100.43227 117.10781 100.43311 117.11775 100.41093 117.12618 C 100.38005 117.13794 100.33981 117.13245 100.30654 117.14375 C 100.29325 117.14827 100.2934 117.17329 100.27192 117.17838 C 100.25743 117.18178 100.23297 117.17192 100.21972 117.17838 C 100.18504 117.19525 100.17731 117.20391 100.15048 117.23057 C 100.13498 117.24599 100.11562 117.2588 100.09828 117.28276 C 100.10467 117.35495 100.11882 117.41733 100.09828 117.49102 C 100.09681 117.49632 100.08071 117.49152 100.08071 117.50859 C 100.08071 117.51873 100.09723 117.53068 100.09828 117.52564 C 100.08608 117.58446 100.07966 117.60066 100.06366 117.66465 C 100.05983 117.67997 100.05166 117.69453 100.04609 117.71685 C 100.04194 117.7334 100.03204 117.72632 100.02904 117.7339 C 100.01469 117.76996 100.00855 117.81668 99.993896 117.83829 C 99.976822 117.86349 99.933021 117.88485 99.90708 117.90805 C 99.893604 117.92007 99.886806 117.94971 99.872457 117.95972 C 99.855673 117.97146 99.834612 117.96451 99.820264 117.97729 C 99.806773 117.98933 99.799989 118.01947 99.78564 118.02949 C 99.768979 118.04114 99.747275 118.03328 99.733447 118.04654 C 99.722069 118.05748 99.727649 118.08749 99.716394 118.09873 C 99.704143 118.11099 99.677079 118.1043 99.664201 118.1163 C 99.611216 118.16561 99.559947 118.22427 99.507621 118.27237 C 99.455693 118.3201 99.400469 118.36689 99.351558 118.41138 C 99.295328 118.46251 99.247534 118.5188 99.194979 118.56744 C 99.145547 118.61314 99.090553 118.6578 99.038916 118.70645 C 99.025195 118.71939 99.018871 118.74731 99.004293 118.75864 C 98.991996 118.76821 98.965085 118.76525 98.9521 118.77621 C 98.928165 118.79641 98.907768 118.82387 98.882853 118.84546 C 98.856683 118.86811 98.840256 118.91111 98.81309 118.93228 C 98.798757 118.94342 98.77523 118.94093 98.760897 118.94985 C 98.75739 118.95207 98.750735 118.96229 98.743844 118.9669 C 98.7351 118.97275 98.722644 118.96693 98.726274 118.98447 L 98.587264 118.98447 C 98.554677 118.98396 98.537108 119.01248 98.500448 119.01909 C 98.338125 119.04842 98.090695 118.99718 97.910303 119.01909 C 97.848023 119.01471 97.846794 119.07133 97.788863 119.07128 L 97.59766 119.07128 C 97.527081 119.06438 97.544053 119.14518 97.493274 119.1581 C 97.408729 119.16737 97.411904 119.08888 97.354264 119.07128 C 97.225815 119.01447 97.178718 118.87653 97.111385 118.75864 C 97.101983 118.69713 97.172996 118.71577 97.163578 118.65426 C 97.157928 118.58679 97.177033 118.48951 97.146008 118.42895 C 97.140541 118.41827 97.115765 118.4029 97.111385 118.39381 C 97.096393 118.36266 97.093208 118.32262 97.076762 118.28994 C 97.071019 118.27854 97.047391 118.26507 97.042139 118.25531 C 97.024191 118.22196 97.030597 118.19479 97.006999 118.15093 C 97.001195 118.14015 96.977061 118.12563 96.972375 118.1163 C 96.957307 118.08632 96.954582 118.04593 96.937752 118.01192 C 96.932086 118.00048 96.908382 117.98706 96.903129 117.97729 C 96.884937 117.94353 96.886671 117.92012 96.867989 117.87291 C 96.865952 117.86776 96.854427 117.86976 96.850936 117.85586 C 96.842667 117.82276 96.836389 117.82076 96.816313 117.78609 C 96.808748 117.77301 96.808804 117.74914 96.798743 117.7339 C 96.787671 117.71718 96.776967 117.72971 96.764119 117.71685 C 96.758699 117.71142 96.769985 117.68653 96.764119 117.68171 C 96.760858 117.67903 96.74952 117.68466 96.746549 117.68171 C 96.705755 117.64091 96.651526 117.56315 96.590487 117.52564 C 96.580931 117.48511 96.603074 117.46643 96.590487 117.42126 C 96.584147 117.39852 96.559634 117.3943 96.555347 117.36958 C 96.540554 117.28425 96.568232 117.19355 96.50367 117.14375 L 96.50367 116.98717 C 96.521939 116.91101 96.444846 116.93023 96.451477 116.86573 C 96.422963 116.77833 96.490235 116.65247 96.451477 116.57066 C 96.448874 116.56518 96.417849 116.55677 96.416854 116.55309 C 96.400438 116.49291 96.426542 116.4569 96.399284 116.41408 C 96.394889 116.40719 96.383215 116.39988 96.381714 116.39703 C 96.37346 116.38139 96.376758 116.34707 96.364661 116.32727 C 96.36048 116.32039 96.332702 116.31614 96.330037 116.31021 C 96.319196 116.28616 96.322483 116.25216 96.277844 116.24045 C 96.279177 116.19416 96.265563 116.17163 96.243221 116.13658 C 96.230664 116.11687 96.223349 116.1003 96.208081 116.08439 C 96.196198 116.07194 96.191819 116.03193 96.173458 115.99757 C 96.168665 115.98857 96.157431 115.99954 96.156405 115.98 C 96.155761 115.9679 96.137665 115.92784 96.121265 115.91075 C 96.100729 115.88933 96.083993 115.83143 96.052018 115.78931 C 96.020396 115.77843 96.026363 115.73023 95.999825 115.7025 C 95.992061 115.6944 95.96685 115.6577 95.947632 115.63274 C 95.940159 115.62303 95.918322 115.60751 95.913009 115.59811 C 95.902335 115.57929 95.904259 115.56315 95.895439 115.54592 C 95.893708 115.54255 95.882643 115.48012 95.878385 115.47667 C 95.876349 115.47502 95.861857 115.47885 95.860815 115.47667 C 95.857829 115.47036 95.865884 115.4462 95.860815 115.44205 C 95.817785 115.40684 95.835211 115.15592 95.860815 115.07721 C 95.86273 115.07129 95.877482 115.0767 95.878385 115.05964 C 95.880514 115.01955 95.881412 115.00791 95.895439 114.97283 C 95.90233 114.95557 95.906914 114.94492 95.913009 114.92063 C 95.916316 114.90742 95.92969 114.90712 95.930579 114.90358 C 95.939246 114.86931 95.924805 114.83079 95.930579 114.79919 C 95.935571 114.77188 95.952905 114.7624 95.965202 114.72995 C 95.972032 114.71191 95.966815 114.62156 95.982772 114.60851 C 95.984808 114.60687 95.998784 114.6107 95.999825 114.60851 C 96.002811 114.60221 95.994756 114.57755 95.999825 114.57337 C 96.01523 114.56078 96.014847 114.52075 96.034448 114.48655 C 96.038583 114.47939 96.066832 114.47558 96.069588 114.4695 C 96.073156 114.46154 96.064106 114.44084 96.069588 114.43436 C 96.097551 114.40136 96.127769 114.37725 96.156405 114.34754 C 96.161718 114.34206 96.18625 114.35339 96.191028 114.34754 C 96.193891 114.34405 96.188225 114.33404 96.191028 114.33049 C 96.203003 114.31544 96.217219 114.28281 96.243221 114.26073 C 96.247539 114.21229 96.236988 114.17904 96.243221 114.13929 C 96.249423 114.09967 96.271443 114.0878 96.277844 114.05247 C 96.285853 114.00828 96.280503 113.91521 96.260274 113.87884 C 96.255175 113.86968 96.244262 113.88093 96.243221 113.86127 C 96.242057 113.83899 96.217591 113.83932 96.208081 113.82664 C 96.203456 113.82049 96.213839 113.79675 96.208081 113.79202 C 96.195065 113.78139 96.186903 113.74617 96.173458 113.7052 C 96.171498 113.6992 96.157308 113.70474 96.156405 113.68763 C 96.155118 113.66312 96.161208 113.63876 96.138835 113.63596 C 96.149998 113.62113 96.142623 113.57743 96.156405 113.56619 C 96.158028 113.56485 96.172876 113.56789 96.173458 113.56619 C 96.181926 113.54105 96.159972 113.49839 96.191028 113.49695 C 96.143985 113.43056 96.161927 113.35616 96.138835 113.28869 C 96.123628 113.24424 96.097903 113.19414 96.069588 113.14968 C 96.064366 113.14151 96.054683 113.13658 96.052018 113.13211 C 96.03744 113.1075 96.032341 113.08268 96.017395 113.0453 C 96.01179 113.0313 96.003546 113.03505 95.999825 113.02773 C 95.980071 112.98891 95.973671 112.91626 95.930579 112.87166 L 95.930579 112.75022 C 95.948449 112.68646 95.829439 112.67299 95.826192 112.61121 C 95.824753 112.58411 95.780452 112.57282 95.756946 112.54197 C 95.74615 112.52777 95.747354 112.50412 95.739376 112.48977 C 95.734292 112.4806 95.722862 112.49185 95.721806 112.4722 C 95.720596 112.44928 95.61518 112.34801 95.583313 112.31614 C 95.501555 112.23437 95.422288 112.17342 95.339917 112.07275 C 95.312613 112.03938 95.298526 112.00157 95.270671 111.93374 C 95.239753 111.85852 95.20372 111.77964 95.305294 111.72548 C 95.279965 111.66289 95.346431 111.63198 95.357487 111.58647 C 95.366507 111.54934 95.335307 111.50163 95.37454 111.46503 C 95.3667 111.40341 95.316151 111.38464 95.305294 111.32602 C 95.331801 111.29464 95.367977 111.27296 95.357487 111.20458 C 95.39381 111.18304 95.422742 111.15409 95.444303 111.11777 C 95.434411 111.03901 95.45784 110.9544 95.444303 110.89194 C 95.436325 110.85523 95.386419 110.8425 95.40968 110.80512 C 95.399665 110.76306 95.34393 110.76641 95.305294 110.75293 C 95.252279 110.69596 95.213542 110.62495 95.131661 110.59687 C 95.046426 110.58108 95.065436 110.66942 94.992651 110.66611 C 94.94008 110.66078 94.9305 110.6125 94.853642 110.63149 C 94.758745 110.64079 94.720692 110.70699 94.593193 110.68368 C 94.590681 110.65013 94.543327 110.67599 94.540999 110.63149 C 94.540218 110.61667 94.514768 110.59293 94.506376 110.5793 C 94.480251 110.53685 94.459895 110.44401 94.41956 110.38861 C 94.376851 110.32999 94.319008 110.29888 94.263497 110.2496 C 94.116748 110.27181 93.984427 110.2196 93.846468 110.2496 C 93.829669 110.25323 93.796823 110.28143 93.742598 110.26717 C 93.738188 110.26601 93.740878 110.25043 93.725028 110.2496 C 93.719608 110.24929 93.712864 110.24893 93.707458 110.2496 C 93.659711 110.25551 93.620051 110.30799 93.568966 110.28422 C 93.523194 110.29634 93.53227 110.36328 93.482149 110.37104 L 93.360193 110.37104 C 93.313609 110.41075 93.248462 110.39832 93.20413 110.4408 C 93.186397 110.45779 93.119626 110.46894 93.08269 110.49248 C 93.063702 110.50459 93.049991 110.51519 93.030497 110.52762 C 93.023667 110.53198 93.015668 110.54323 93.012927 110.54467 C 92.974705 110.56473 92.924718 110.56376 92.891488 110.59687 C 92.86276 110.57598 92.822674 110.57742 92.787101 110.56224 C 92.776612 110.55777 92.760977 110.53127 92.752478 110.52762 C 92.742877 110.5235 92.728069 110.53018 92.717855 110.52762 C 92.698606 110.52281 92.683119 110.51693 92.631038 110.51005 C 92.541547 110.49823 92.384162 110.48056 92.266203 110.51005 C 92.252972 110.51336 92.252718 110.52672 92.24915 110.52762 C 92.21206 110.53704 92.162537 110.53437 92.127193 110.54467 C 92.122063 110.54617 92.126571 110.56137 92.11014 110.56224 C 92.105531 110.5625 92.096842 110.56056 92.09257 110.56224 C 92.075312 110.56915 92.064664 110.5732 92.040377 110.5793 C 92.024696 110.58322 92.029893 110.59451 92.023324 110.59687 C 92.002926 110.60413 91.973636 110.5889 91.95356 110.59687 C 91.939196 110.60255 91.941494 110.62638 91.918937 110.63149 C 91.885906 110.63899 91.847995 110.62584 91.814551 110.63149 C 91.78005 110.63174 91.792684 110.67876 91.745304 110.66611 C 91.64125 110.62814 91.549625 110.61431 91.467285 110.56224 C 91.450379 110.55157 91.432071 110.52311 91.415609 110.51005 C 91.398886 110.49677 91.379893 110.48939 91.363416 110.47543 C 91.334259 110.45076 91.306659 110.41293 91.276599 110.38861 C 91.255467 110.37151 91.229148 110.37311 91.206836 110.35399 C 91.192288 110.34152 91.186868 110.31363 91.172213 110.30179 C 91.166164 110.29694 91.142367 110.30761 91.13759 110.30179 C 91.07603 110.22654 90.956801 110.14374 90.87714 110.0584 C 90.779441 110.06927 90.769856 109.99206 90.685937 109.98915 C 90.673013 109.94522 90.629059 109.92372 90.599121 109.88477 C 90.591801 109.87526 90.531238 109.82394 90.529875 109.79795 C 90.528634 109.77449 90.494603 109.75374 90.477681 109.7287 C 90.477865 109.68258 90.471332 109.62965 90.495251 109.60726 C 90.432482 109.50217 90.384521 109.38201 90.269425 109.32924 C 90.272274 109.2743 90.222862 109.27131 90.234285 109.2078 C 90.165758 109.19529 90.120733 109.15953 90.078223 109.12099 C 90.075573 109.06578 90.038975 109.0445 90.043599 108.98198 C 90.046509 108.94432 89.98202 108.97389 89.956783 108.96441 C 89.949203 108.94303 89.934466 108.92887 89.90459 108.92979 C 89.866674 108.87507 89.813256 108.83623 89.78315 108.77372 C 89.786994 108.75752 89.778342 108.73744 89.78315 108.72153 C 89.787913 108.70579 89.796865 108.71157 89.800203 108.70396 C 89.807324 108.68774 89.809703 108.67354 89.817773 108.65177 C 89.832689 108.61148 89.826951 108.56356 89.869967 108.5479 C 89.831086 108.45366 89.786085 108.36544 89.730957 108.28745 C 89.725904 108.25272 89.749409 108.24902 89.76558 108.23525 C 89.790495 108.21403 89.807366 108.19967 89.835343 108.16549 C 89.842556 108.15667 89.865342 108.13955 89.869967 108.13087 C 89.873351 108.12451 89.864684 108.10055 89.869967 108.09624 C 89.881084 108.08713 89.920546 108.03901 89.90459 107.9748 C 89.910776 107.96271 89.944823 107.94218 89.956783 107.92261 C 89.960657 107.91626 89.951301 107.89248 89.956783 107.88799 C 89.95882 107.88635 89.972795 107.89016 89.973836 107.88799 C 89.976822 107.88168 89.968768 107.8575 89.973836 107.85337 C 89.986577 107.84295 89.99155 107.81255 90.008976 107.76655 C 90.011625 107.75955 90.025065 107.7669 90.026029 107.74898 C 90.027515 107.72082 90.039802 107.71939 90.043599 107.69679 C 90.055605 107.62524 90.044962 107.53548 90.043599 107.45391 C 90.04239 107.38097 90.056779 107.30723 90.026029 107.24513 C 90.046136 107.17432 90.11083 107.13596 90.095793 107.01982 C 90.087386 106.95482 90.03923 106.90937 89.991406 106.86324 C 89.976522 106.84888 89.958003 106.839 89.939213 106.82862 C 89.972106 106.67051 90.053266 106.56062 90.165039 106.48136 C 90.151625 106.45122 90.177938 106.43927 90.182609 106.42916 C 90.185488 106.42287 90.177586 106.39864 90.182609 106.39454 C 90.18486 106.39267 90.198315 106.39693 90.199662 106.39454 C 90.221805 106.35471 90.2418 106.33179 90.269425 106.29015 C 90.275842 106.28047 90.285407 106.29324 90.286479 106.2731 C 90.288561 106.23361 90.376997 106.18972 90.408435 106.15114 C 90.424606 106.13134 90.426612 106.10144 90.443058 106.0819 C 90.459137 106.06277 90.510329 106.04967 90.512305 106.01213 C 90.513132 105.99632 90.532702 105.98146 90.546928 105.97751 C 90.529562 105.93123 90.573661 105.88967 90.582068 105.85607 C 90.600276 105.78321 90.636343 105.74457 90.703507 105.70001 C 90.713186 105.69359 90.700439 105.68349 90.720561 105.68244 C 90.751341 105.68081 90.834058 105.60669 90.85957 105.57805 C 90.906292 105.52554 90.920712 105.46875 90.963957 105.40442 C 91.126156 105.38718 91.290432 105.37184 91.363416 105.26541 C 91.406262 105.29011 91.411851 105.24135 91.432662 105.23079 C 91.455418 105.21926 91.480358 105.22739 91.502425 105.21373 C 91.522042 105.2016 91.564633 105.16812 91.589242 105.14397 C 91.614294 105.11941 91.646023 105.09154 91.658488 105.07472 C 91.673036 105.05514 91.662628 105.02612 91.676058 105.00496 C 91.686104 104.98916 91.70379 104.9939 91.710681 104.97034 C 91.729302 104.90654 91.703162 104.84425 91.710681 104.7967 C 91.72578 104.70098 91.80719 104.59851 91.866744 104.51868 C 91.874079 104.50887 91.883227 104.52188 91.884314 104.50163 C 91.885524 104.47857 91.91762 104.47438 91.918937 104.44944 C 91.922413 104.38358 92.059814 104.29464 92.127193 104.25824 C 92.141848 104.25032 92.161225 104.25101 92.179386 104.24118 C 92.186813 104.23717 92.190739 104.20938 92.196956 104.20656 C 92.224444 104.19417 92.246102 104.20582 92.283773 104.18899 C 92.291812 104.18541 92.282052 104.17241 92.300826 104.17142 C 92.325144 104.17015 92.414921 104.13099 92.439836 104.10217 C 92.449039 104.09155 92.449381 104.08011 92.457406 104.06755 C 92.469519 104.04855 92.479594 104.03487 92.492029 104.01536 C 92.504586 103.99565 92.511385 103.97907 92.526652 103.96316 C 92.533865 103.95564 92.594562 103.89149 92.596415 103.85878 C 92.599202 103.80956 92.643218 103.79252 92.683232 103.75491 C 92.792018 103.7503 92.778307 103.86827 92.856864 103.89392 C 92.911135 103.89418 92.958641 103.89358 93.012927 103.89392 C 93.008379 103.8939 93.021723 103.92195 93.030497 103.91097 C 93.067801 103.86436 93.217167 103.90305 93.256323 103.94559 L 93.447009 103.94559 C 93.520238 103.93198 93.522882 103.84784 93.586019 103.82415 C 93.646262 103.81022 93.652636 103.85021 93.707458 103.84172 C 93.779141 103.82077 93.804254 103.7531 93.864038 103.72028 C 93.925231 103.74632 93.978586 103.69084 94.020101 103.68514 C 94.168013 103.66495 94.346245 103.71855 94.43713 103.63347 C 94.602178 103.61909 94.829604 103.66693 94.940458 103.59833 C 94.982432 103.58966 95.009777 103.62766 95.044845 103.63347 C 95.104353 103.64333 95.19245 103.61969 95.270671 103.63347 C 95.299399 103.63854 95.336277 103.65713 95.39211 103.63347 C 95.424452 103.61975 95.412568 103.61053 95.461357 103.59833 C 95.465874 103.59719 95.50917 103.54668 95.51355 103.54665 z M 103.77971 114.43436 C 103.80777 114.42949 103.8097 114.45096 103.83191 114.45193 C 103.84512 114.46931 103.85301 114.48656 103.86653 114.50412 C 103.87249 114.51184 103.89815 114.53167 103.90115 114.53875 C 103.9114 114.56311 103.89435 114.59982 103.90115 114.62556 C 103.90719 114.64835 103.93187 114.65295 103.93577 114.67775 C 103.94822 114.75679 103.93074 114.84882 103.93577 114.9382 C 103.94188 115.0465 103.95693 115.15374 103.98797 115.23328 C 103.93915 115.2735 103.88834 115.211 103.83191 115.25085 C 103.82429 115.31054 103.83845 115.34825 103.84896 115.38986 C 103.86012 115.42528 103.82241 115.42686 103.81434 115.44153 C 103.8017 115.46453 103.81027 115.48773 103.79728 115.5113 C 103.79324 115.51863 103.76493 115.52215 103.76214 115.52835 C 103.74749 115.56087 103.76422 115.57206 103.74509 115.61517 C 103.74152 115.62322 103.7129 115.62623 103.70995 115.63274 C 103.69823 115.65871 103.70688 115.69741 103.6929 115.73712 C 103.69061 115.74361 103.67626 115.73664 103.67533 115.75417 C 103.67458 115.76848 103.68024 115.79306 103.67533 115.80637 C 103.67217 115.81491 103.6424 115.83496 103.6407 115.84099 C 103.62588 115.89436 103.63536 115.95371 103.60608 115.99757 C 103.5949 116.01437 103.5947 116.02503 103.58851 116.04976 C 103.58393 116.06805 103.57623 116.05725 103.57146 116.06682 C 103.55712 116.09541 103.55168 116.12068 103.53632 116.15363 C 103.52298 116.18224 103.51636 116.21139 103.50169 116.24045 C 103.49231 116.25903 103.47673 116.26123 103.46707 116.27507 C 103.46274 116.28134 103.47275 116.30556 103.46707 116.31021 C 103.45287 116.32185 103.45487 116.32334 103.4495 116.34484 C 103.44532 116.36165 103.4284 116.3843 103.41488 116.41408 C 103.40108 116.44443 103.3926 116.47523 103.38025 116.5009 C 103.37465 116.51258 103.35116 116.52612 103.34563 116.53604 C 103.34209 116.54239 103.35097 116.56627 103.34563 116.57066 C 103.33143 116.58229 103.33343 116.5838 103.32806 116.60529 C 103.32279 116.62625 103.30279 116.63671 103.29344 116.65748 C 103.27933 116.6889 103.27212 116.72841 103.2583 116.76187 C 103.25598 116.76749 103.24483 116.7646 103.24124 116.77892 C 103.23483 116.80454 103.23513 116.82416 103.22367 116.84868 C 103.21822 116.86043 103.19456 116.87338 103.18905 116.8833 C 103.18553 116.88966 103.19439 116.91353 103.18905 116.91793 C 103.17778 116.92718 103.15393 116.9698 103.13686 117.00474 C 103.12285 117.03344 103.11704 117.06227 103.10223 117.09156 C 103.09285 117.11012 103.07727 117.11234 103.06761 117.12618 C 103.06328 117.13243 103.07329 117.15668 103.06761 117.16132 C 103.05188 117.17423 103.0403 117.19227 103.03247 117.213 C 103.03016 117.21911 103.03716 117.24431 103.03247 117.24814 C 103.01988 117.25845 102.97619 117.27952 102.96322 117.31739 L 102.80716 117.31739 C 102.7341 117.31959 102.72363 117.38446 102.65058 117.38663 C 102.61711 117.38925 102.60109 117.38133 102.58134 117.36958 C 102.57432 117.36541 102.56977 117.33767 102.56377 117.33496 C 102.55508 117.33102 102.53683 117.34036 102.52914 117.33496 C 102.51432 117.32456 102.50897 117.29282 102.49452 117.28276 C 102.47841 117.27151 102.45448 117.27928 102.44233 117.26519 C 102.42713 117.2476 102.43767 117.21621 102.42476 117.19595 C 102.41473 117.18013 102.3965 117.18471 102.39013 117.16081 C 102.36643 117.07196 102.40712 116.95873 102.39013 116.83111 C 102.39091 116.77825 102.35336 116.7634 102.33794 116.72673 C 102.35696 116.69645 102.31189 116.59199 102.33794 116.57066 C 102.33999 116.56901 102.35445 116.57284 102.35551 116.57066 C 102.35846 116.56435 102.35044 116.5402 102.35551 116.53604 C 102.36918 116.52488 102.37309 116.47616 102.39013 116.44922 C 102.41105 116.41612 102.47975 116.38644 102.51157 116.34484 C 102.52981 116.32095 102.53796 116.2896 102.56377 116.25802 C 102.57239 116.2475 102.59139 116.23381 102.59839 116.2234 C 102.6192 116.1924 102.61769 116.16206 102.65058 116.13658 L 102.65058 115.68493 C 102.65498 115.62266 102.59833 115.62143 102.59839 115.56349 C 102.63784 115.45824 102.72348 115.39873 102.75497 115.28547 C 102.85395 115.26288 102.97659 115.26436 103.03247 115.19865 C 103.10173 115.18149 103.08516 115.25044 103.15443 115.23328 C 103.17655 115.22934 103.17718 115.18184 103.15443 115.1816 C 103.16057 115.1588 103.18489 115.15418 103.18905 115.12941 C 103.22573 115.09114 103.24057 115.15136 103.29344 115.14646 C 103.32503 115.12591 103.30697 115.05603 103.32806 115.02502 C 103.3533 114.99239 103.44183 115.02301 103.46707 114.9904 C 103.50495 114.95409 103.45842 114.94066 103.46707 114.88601 C 103.52181 114.88287 103.52532 114.82903 103.51875 114.76457 C 103.62776 114.75783 103.6763 114.69011 103.72752 114.62556 C 103.7162 114.53292 103.74106 114.47676 103.77971 114.43436 z " /><circle
         style="display:inline;fill:none;stroke:#ff0000;stroke-width:0.122805;stroke-opacity:1"
         id="path2-9"
         cx="96.427025"
         cy="110.92023"
         r="9.9385977" /></g></g></svg>
