<?xml version="1.0" encoding="UTF-8" standalone="no"?>
<!-- Created with Inkscape (http://www.inkscape.org/) -->

<svg
   width="210mm"
   height="297mm"
   viewBox="0 0 210 297"
   version="1.1"
   id="svg1"
   xml:space="preserve"
   inkscape:version="1.4 (e7c3feb1, 2024-10-09)"
   sodipodi:docname="Asia.svg"
   xmlns:inkscape="http://www.inkscape.org/namespaces/inkscape"
   xmlns:sodipodi="http://sodipodi.sourceforge.net/DTD/sodipodi-0.dtd"
   xmlns="http://www.w3.org/2000/svg"
   xmlns:svg="http://www.w3.org/2000/svg"><sodipodi:namedview
     id="namedview1"
     pagecolor="#ffffff"
     bordercolor="#000000"
     borderopacity="0.25"
     inkscape:showpageshadow="2"
     inkscape:pageopacity="0.0"
     inkscape:pagecheckerboard="0"
     inkscape:deskcolor="#d1d1d1"
     inkscape:document-units="mm"
     inkscape:zoom="5.7855408"
     inkscape:cx="52.285518"
     inkscape:cy="57.12517"
     inkscape:window-width="1472"
     inkscape:window-height="826"
     inkscape:window-x="0"
     inkscape:window-y="37"
     inkscape:window-maximized="1"
     inkscape:current-layer="layer1" /><defs
     id="defs1" /><g
     inkscape:label="Ebene 1"
     inkscape:groupmode="layer"
     id="layer1"><path
       id="path1"
       style="fill:#000000;stroke-width:0.172864"
       d="M 15.652275 3.5723918 A 9.9385977 9.9385977 0 0 0 5.7133464 13.510803 A 9.9385977 9.9385977 0 0 0 15.652275 23.449731 A 9.9385977 9.9385977 0 0 0 25.590686 13.510803 A 9.9385977 9.9385977 0 0 0 15.652275 3.5723918 z M 14.790828 4.6358927 C 15.145789 4.6358927 15.41594 4.7022103 15.601632 4.834847 C 15.788586 4.9662205 15.899575 5.1762549 15.934945 5.464266 L 15.126208 5.5112915 C 15.104734 5.3862341 15.059259 5.2952842 14.989783 5.2384399 C 14.92157 5.1815957 14.82683 5.1531738 14.705562 5.1531738 C 14.605769 5.1531738 14.530265 5.1748204 14.479736 5.2177694 C 14.429208 5.2594552 14.404289 5.3106145 14.404289 5.3712484 C 14.404289 5.4154606 14.425131 5.4552512 14.466817 5.4906209 C 14.50724 5.5272539 14.60307 5.5613601 14.754655 5.5929403 C 15.129827 5.6737855 15.398083 5.7560652 15.559774 5.8394368 C 15.722727 5.9215453 15.841008 6.0238638 15.914274 6.1463949 C 15.988803 6.2689259 16.025895 6.4056377 16.025895 6.5572225 C 16.025895 6.7353346 15.976631 6.8998941 15.878101 7.0502157 C 15.77957 7.2005372 15.642055 7.3145116 15.465206 7.3928304 C 15.288357 7.469886 15.065576 7.5085856 14.796513 7.5085856 C 14.324074 7.5085856 13.996562 7.4176358 13.814661 7.235734 C 13.632759 7.0538323 13.530153 6.8226681 13.506152 6.5422363 L 14.32264 6.4910767 C 14.340325 6.6237133 14.376326 6.724941 14.430644 6.7944173 C 14.519068 6.9068427 14.645215 6.9628825 14.809432 6.9628825 C 14.931963 6.9628825 15.026415 6.9344607 15.092102 6.8776164 C 15.159052 6.8195089 15.192354 6.7523874 15.192354 6.6765951 C 15.192354 6.6045923 15.160947 6.5401695 15.097786 6.4833252 C 15.034626 6.4264809 14.887924 6.3731397 14.65802 6.3226115 C 14.281585 6.2379767 14.013328 6.1253803 13.852901 5.9851644 C 13.691211 5.8449485 13.610022 5.6660345 13.610022 5.448763 C 13.610022 5.3060207 13.65142 5.1714907 13.733529 5.0451701 C 13.8169 4.9175862 13.941152 4.8179663 14.106632 4.7459635 C 14.273376 4.6726976 14.501554 4.6358927 14.790828 4.6358927 z M 11.485604 4.6834351 L 12.421464 4.6834351 L 13.465845 7.4610433 L 12.567708 7.4610433 L 12.431283 7.0026733 L 11.453564 7.0026733 L 11.318689 7.4610433 L 10.44174 7.4610433 L 11.485604 4.6834351 z M 16.407784 4.6834351 L 17.26768 4.6834351 L 17.26768 7.4610433 L 16.407784 7.4610433 L 16.407784 4.6834351 z M 18.562691 4.6834351 L 19.498551 4.6834351 L 20.542415 7.4610433 L 19.644279 7.4610433 L 19.507853 7.0026733 L 18.530135 7.0026733 L 18.395776 7.4610433 L 17.518311 7.4610433 L 18.562691 4.6834351 z M 11.943974 5.4032878 L 11.639083 6.4021932 L 12.250932 6.4021932 L 11.943974 5.4032878 z M 19.021061 5.4032878 L 18.71617 6.4021932 L 19.328019 6.4021932 L 19.021061 5.4032878 z M 11.587406 7.4109172 C 11.700752 7.4185364 11.815299 7.4487587 11.815299 7.4884318 C 11.815299 7.5113758 11.884854 7.5302897 11.969812 7.5302897 C 12.054772 7.5302897 12.149853 7.5607696 12.181169 7.5985026 C 12.230239 7.6576266 12.213916 7.6662616 12.061279 7.6599976 C 11.963869 7.6560076 11.75548 7.6318281 11.598258 7.6062541 C 11.300485 7.5578187 11.267262 7.532716 11.37915 7.439856 C 11.397888 7.4243057 11.43449 7.4153178 11.478886 7.4114339 C 11.512183 7.408521 11.549624 7.4083774 11.587406 7.4109172 z M 12.851412 7.8217448 C 12.893161 7.8245926 12.938957 7.8326787 12.987321 7.8460327 C 13.080161 7.8716667 13.173316 7.8818883 13.194543 7.8687703 C 13.215773 7.8556553 13.233301 7.866933 13.233301 7.893575 C 13.233301 7.922313 13.345566 7.9416341 13.509253 7.9416341 C 13.775187 7.9416341 14.102498 8.035241 14.102498 8.1111328 C 14.102498 8.1313238 14.005267 8.1992906 13.887008 8.262028 C 13.744699 8.337522 13.698592 8.3807889 13.750065 8.3907023 C 13.792845 8.3989523 13.882202 8.3632736 13.948503 8.3111206 C 14.089206 8.200444 14.181477 8.1918069 14.281816 8.279598 C 14.374986 8.361116 15.38304 8.4320732 15.38304 8.3571126 C 15.38304 8.3233096 15.468258 8.3164161 15.646073 8.3364421 C 15.905458 8.3656551 15.959292 8.3873783 16.320451 8.6067098 C 16.520643 8.7282871 16.640191 8.7513491 16.605705 8.6620036 C 16.588885 8.6184266 16.677079 8.6077391 16.977775 8.6170451 C 17.326634 8.6278421 17.362954 8.6220711 17.289384 8.5643351 C 17.209684 8.5017791 17.209833 8.4975897 17.300753 8.4687337 C 17.40655 8.4351567 18.23586 8.5237898 18.378723 8.5839722 C 18.552326 8.6571012 18.791713 8.690571 19.179191 8.6955933 C 19.492116 8.6996633 19.605682 8.7212872 19.762101 8.8061808 C 19.931455 8.8980938 20.008086 8.9094984 20.356897 8.8960978 C 20.577035 8.8876478 20.777709 8.8934729 20.802865 8.9090169 C 20.871135 8.9512239 21.145996 9.0050733 21.145996 8.9761963 C 21.145996 8.9624163 21.089084 8.9196834 21.019906 8.8816284 C 20.89871 8.8149564 20.904305 8.8133742 21.168734 8.8361532 C 21.319666 8.8491552 21.542411 8.8703877 21.663794 8.8831787 C 21.943209 8.9126237 23.176649 9.2201537 23.193416 9.2645508 C 23.200316 9.2828308 23.262316 9.2898597 23.330876 9.2800537 C 23.501275 9.2556667 23.821342 9.3672652 23.822835 9.4516195 C 23.823483 9.4891705 23.84183 9.5484684 23.86366 9.5833944 C 23.89614 9.6353424 23.870886 9.6406635 23.725167 9.6138835 C 23.627197 9.5958775 23.45441 9.5532386 23.341211 9.5193156 C 23.22801 9.4853916 23.064081 9.4458469 22.976892 9.4309489 C 22.828543 9.4055989 22.82402 9.408013 22.908162 9.47229 C 22.996682 9.539907 22.996247 9.5414025 22.894727 9.5699585 C 22.805647 9.5950185 22.828642 9.616594 23.061125 9.7265381 C 23.370313 9.8727618 23.46335 9.96718 23.257495 9.9260091 C 23.100241 9.8945581 22.928597 9.9906716 22.837366 10.161137 C 22.784836 10.259297 22.754396 10.271292 22.624459 10.24692 C 22.541019 10.23126 22.436644 10.234051 22.392432 10.253121 C 22.348222 10.272161 22.260499 10.292469 22.197611 10.298079 C 22.014426 10.314429 22.011683 10.316488 22.056535 10.400399 C 22.080065 10.444419 22.110601 10.516056 22.124231 10.560079 C 22.137851 10.604099 22.186211 10.640177 22.231718 10.640177 C 22.277228 10.640177 22.346745 10.676256 22.38623 10.720276 C 22.42572 10.764296 22.497534 10.824671 22.545394 10.854635 C 22.630734 10.908065 22.630653 10.909355 22.54436 10.911995 C 22.46119 10.914495 22.461993 10.920615 22.558313 11.0231 C 22.649883 11.12057 22.652051 11.13494 22.582601 11.161593 C 22.510721 11.189173 22.511092 11.197324 22.587252 11.281482 C 22.637392 11.336892 22.647734 11.371916 22.614124 11.371916 C 22.576154 11.371916 22.568549 11.421395 22.589319 11.532113 C 22.608579 11.63476 22.601849 11.69231 22.570199 11.69231 C 22.543039 11.69231 22.336637 11.526281 22.111312 11.32334 C 21.668661 10.924661 21.550328 10.728646 21.671545 10.594702 C 21.709415 10.552852 21.740402 10.458897 21.740792 10.385413 C 21.741117 10.311923 21.760507 10.222258 21.783167 10.186458 C 21.831557 10.109998 21.70692 9.9122314 21.609017 9.9099894 C 21.563877 9.9090167 21.559314 9.92459 21.593514 9.9658 C 21.627004 10.006152 21.622925 10.048424 21.579045 10.108427 C 21.518615 10.191067 21.511877 10.190491 21.357353 10.094991 C 21.153638 9.9690886 20.982428 10.00249 20.947559 10.17509 C 20.932029 10.25195 20.946928 10.31621 20.988383 10.348206 C 21.024563 10.376136 21.054529 10.412214 21.054529 10.428304 C 21.054529 10.476034 20.697527 10.461211 20.680908 10.412801 C 20.671308 10.384951 20.469201 10.380742 20.139339 10.401432 L 19.61379 10.434505 L 19.533691 10.683586 C 19.489831 10.820522 19.433434 10.953342 19.408118 10.978658 C 19.326198 11.060578 19.359247 11.143506 19.473747 11.143506 C 19.535147 11.143506 19.59799 11.164455 19.61379 11.190015 C 19.6296 11.215575 19.66202 11.224232 19.68562 11.209652 C 19.70921 11.195062 19.742044 11.218518 19.758484 11.261328 C 19.786584 11.334548 19.79202 11.334761 19.8453 11.261845 C 19.89789 11.189925 19.914598 11.189174 20.077327 11.257194 C 20.173817 11.297514 20.302224 11.375944 20.362581 11.431344 L 20.472135 11.532113 L 20.418392 11.429277 C 20.388942 11.372677 20.378598 11.32644 20.395138 11.32644 C 20.411678 11.32644 20.397208 11.290362 20.363098 11.246342 C 20.258705 11.111539 20.486075 11.31491 20.86746 11.697477 C 21.058309 11.888922 21.178132 12.035559 21.134111 12.023556 C 20.993022 11.985096 21.043668 12.152007 21.225578 12.324829 C 21.319908 12.414449 21.373104 12.472937 21.3434 12.455054 C 21.31369 12.437174 21.276498 12.443476 21.260718 12.469006 C 21.244928 12.494536 21.117801 12.345776 20.978564 12.138277 C 20.677382 11.689438 20.60256 11.600842 20.522778 11.600842 C 20.449728 11.600842 20.482916 11.706831 20.615796 11.897982 C 20.723514 12.052952 20.731802 12.38424 20.636983 12.744442 C 20.561943 13.029539 20.514537 13.077681 20.339844 13.049333 C 20.15826 13.019863 20.02216 13.143915 20.063375 13.301514 C 20.081585 13.371144 20.059172 13.438447 19.993612 13.508219 L 19.89646 13.611572 L 20.110917 13.800708 C 20.321351 13.985942 20.459733 14.188262 20.459733 14.310754 C 20.459733 14.344684 20.384997 14.399238 20.293852 14.432194 C 20.109262 14.498944 20.050242 14.459442 20.048905 14.267863 C 20.04858 14.212743 20.027557 14.154736 20.002397 14.139189 C 19.977247 14.123639 19.956405 14.071536 19.956405 14.023433 C 19.956405 13.963093 19.910638 13.924251 19.808093 13.89786 C 19.693995 13.8685 19.656195 13.831399 19.645312 13.739213 C 19.625352 13.570194 19.400817 13.5216 19.2288 13.648779 L 19.106327 13.739213 L 19.095475 13.597103 C 19.078075 13.36876 19.005709 13.341588 18.863448 13.510286 C 18.794508 13.592046 18.713745 13.659115 18.684131 13.659115 C 18.599811 13.659115 18.621266 13.795576 18.710486 13.827063 C 18.754506 13.842613 18.834307 13.895394 18.888253 13.943852 C 18.952293 14.001372 18.997086 14.014719 19.016927 13.982609 C 19.070917 13.895249 19.407601 13.935755 19.407601 14.029635 C 19.407601 14.052105 19.378509 14.070459 19.342489 14.070459 C 19.306469 14.070459 19.233171 14.131802 19.179708 14.206885 L 19.082556 14.343827 L 19.335254 14.602726 C 19.474276 14.745115 19.577547 14.877843 19.565214 14.897799 C 19.552894 14.917749 19.578688 14.953627 19.622058 14.977897 C 19.686638 15.014037 19.690275 15.034917 19.643245 15.091585 C 19.595715 15.148855 19.601355 15.165267 19.675285 15.188737 C 19.741235 15.209667 19.764685 15.258811 19.764685 15.375806 C 19.764685 15.462956 19.751223 15.533936 19.734713 15.533936 C 19.698013 15.533936 19.578799 15.903571 19.606555 15.931327 C 19.617465 15.942237 19.541196 16.045003 19.437056 16.160254 C 19.27258 16.342272 19.030444 16.497717 18.881535 16.516821 C 18.837595 16.522421 18.775244 16.54468 18.548739 16.63516 C 18.491409 16.65807 18.426789 16.723049 18.405078 16.779854 C 18.366108 16.881827 18.365071 16.881821 18.332731 16.757633 C 18.283461 16.568416 18.086483 16.58466 17.9033 16.79329 C 17.82523 16.88221 17.76119 16.967403 17.76119 16.982426 C 17.76119 17.050846 17.958042 17.312492 18.143595 17.490922 C 18.296765 17.638211 18.360945 17.744141 18.401978 17.915186 C 18.473988 18.215378 18.437245 18.336266 18.242297 18.441252 C 18.153657 18.488982 18.081584 18.544871 18.081584 18.565792 C 18.081584 18.586712 18.057397 18.589426 18.028357 18.571476 C 17.994617 18.550626 17.98822 18.559041 18.01027 18.594731 C 18.03049 18.627461 18.009767 18.677054 17.960144 18.71462 C 17.834241 18.81 17.79859 18.795469 17.814933 18.655709 C 17.825193 18.567869 17.80909 18.530135 17.76119 18.530135 C 17.68943 18.530135 17.532263 18.395672 17.532263 18.334281 C 17.532263 18.279291 17.356033 18.141012 17.285767 18.141012 C 17.251257 18.141012 17.211737 18.097733 17.197917 18.044893 C 17.155147 17.881336 17.093508 17.9857 17.028418 18.330664 C 16.977998 18.597855 16.977014 18.664766 17.024284 18.680514 C 17.056444 18.691234 17.121652 18.79025 17.168978 18.900655 C 17.216308 19.011062 17.276024 19.101676 17.301786 19.101676 C 17.444709 19.101676 17.669722 19.423489 17.669722 19.627743 C 17.669722 19.693133 17.701106 19.807259 17.739486 19.881474 C 17.777866 19.955694 17.793112 20.016481 17.773592 20.016866 C 17.754082 20.017191 17.769452 20.037951 17.807182 20.062341 C 17.844912 20.086721 17.855069 20.105409 17.829919 20.104199 C 17.804769 20.103099 17.686367 20.027092 17.566886 19.935217 L 17.566886 19.934701 C 17.410702 19.814604 17.329033 19.709664 17.276982 19.560563 C 17.13711 19.159905 17.025909 18.954948 16.934884 18.931144 C 16.852864 18.909694 16.845834 18.877593 16.864604 18.615401 C 16.876084 18.455034 16.869408 18.323946 16.849618 18.323946 C 16.829838 18.323946 16.823148 18.272531 16.835148 18.209741 C 16.847148 18.146951 16.823605 18.025645 16.782955 17.93999 C 16.742315 17.85433 16.709058 17.760625 16.709058 17.731734 C 16.709058 17.702844 16.676917 17.616258 16.637227 17.539498 L 16.56488 17.399972 L 16.462561 17.49609 C 16.406301 17.54894 16.315483 17.592208 16.260506 17.592208 C 16.172766 17.592208 16.160254 17.567427 16.160254 17.389636 C 16.160254 17.270575 16.132371 17.158663 16.092041 17.118335 C 16.054311 17.080605 16.023311 17.03732 16.023311 17.0217 C 16.023311 17.00607 15.951152 16.919085 15.863114 16.82843 C 15.775074 16.73777 15.702917 16.627322 15.702917 16.582967 C 15.702917 16.480948 15.603 16.444567 15.542721 16.524573 C 15.505211 16.574353 15.35727 16.605544 15.051278 16.628959 C 15.032408 16.630459 15.017171 16.669882 15.017171 16.716292 C 15.017171 16.762702 14.976014 16.837677 14.925704 16.883207 C 14.875394 16.928737 14.83389 16.947308 14.83372 16.924548 C 14.833557 16.901788 14.797481 16.937217 14.753621 17.003097 C 14.640122 17.173573 14.36304 17.473185 14.237374 17.561202 C 14.140304 17.629192 14.12971 17.673167 14.122652 18.039209 C 14.114652 18.453658 14.082461 18.55192 13.880806 18.776115 L 13.773836 18.895487 L 13.686503 18.787484 C 13.638513 18.728214 13.59917 18.654078 13.59917 18.622636 C 13.59917 18.591196 13.497441 18.347776 13.372827 18.081584 C 13.133433 17.570206 12.983746 17.117036 12.936161 16.757633 C 12.920341 16.638145 12.888701 16.540076 12.865881 16.540076 C 12.843061 16.540076 12.835615 16.569378 12.849345 16.605188 C 12.863655 16.642468 12.833992 16.692339 12.779582 16.72146 C 12.673532 16.77822 12.573121 16.740618 12.442135 16.595886 C 12.363645 16.509156 12.364339 16.504898 12.465389 16.47393 C 12.569654 16.44197 12.569306 16.441873 12.447819 16.404683 C 12.306842 16.361523 12.093359 16.214804 12.091252 16.159737 C 12.086252 16.029382 11.946829 15.994352 11.442712 15.996956 C 10.829886 16.000156 10.671228 15.96214 10.588501 15.791801 C 10.543621 15.699401 10.512168 15.678913 10.470162 15.71377 C 10.280233 15.871399 9.802202 15.675447 9.6397217 15.373739 C 9.5476287 15.202731 9.4224279 15.147742 9.2996908 15.224394 C 9.2225048 15.272594 9.2224425 15.281965 9.2981405 15.416113 C 9.3418925 15.493583 9.4414074 15.625043 9.5193156 15.708085 C 9.5992846 15.793325 9.649944 15.887714 9.6355876 15.925126 C 9.6216036 15.961576 9.633067 15.991272 9.660909 15.991272 C 9.688756 15.991272 9.7115519 15.956517 9.7115519 15.913757 C 9.7115519 15.786139 9.7942037 15.907942 9.8107707 16.060002 C 9.8249107 16.189784 9.8356484 16.196329 10.008691 16.183508 C 10.151873 16.172888 10.22412 16.134301 10.340454 16.004708 C 10.466034 15.864822 10.488765 15.853332 10.488765 15.931844 C 10.488765 16.055776 10.658506 16.265674 10.758516 16.265674 C 10.802466 16.265674 10.886025 16.3204 10.944035 16.387113 C 11.048172 16.506882 11.048372 16.510255 10.965739 16.650146 C 10.919709 16.728076 10.881106 16.8019 10.879956 16.814478 C 10.878756 16.827058 10.862719 16.832503 10.844299 16.826363 C 10.825879 16.820263 10.796881 16.86954 10.780221 16.935917 C 10.748351 17.06289 10.611181 17.226339 10.536308 17.226339 C 10.512038 17.226339 10.47021 17.267496 10.44329 17.317806 C 10.41388 17.372766 10.347329 17.409273 10.276892 17.409273 C 10.208062 17.409273 10.109844 17.462041 10.038664 17.536914 C 9.9131429 17.668947 9.6292015 17.818582 9.1177897 18.021639 C 8.7776224 18.156704 8.7531011 18.145987 8.6630371 17.821134 C 8.6316535 17.707937 8.5615992 17.580765 8.507491 17.538464 C 8.453381 17.496164 8.423979 17.446795 8.441862 17.42891 C 8.459745 17.41103 8.5058413 17.422392 8.5441813 17.454232 C 8.6623011 17.552262 8.6213172 17.437293 8.4785522 17.270264 C 8.4041102 17.183174 8.3421163 17.092306 8.3410929 17.068209 C 8.3400529 17.044119 8.2669686 16.950229 8.1783122 16.859436 C 8.0794472 16.75819 8.0095433 16.63677 7.9979614 16.545243 C 7.9875714 16.463173 7.9417585 16.343005 7.8961589 16.278593 C 7.8505589 16.214183 7.7928592 16.1284 7.7680013 16.087907 C 7.4679782 15.599158 7.4166732 15.536252 7.3230672 15.546338 C 7.2512832 15.554038 7.1964455 15.508198 7.1194621 15.374255 C 6.9780333 15.128181 6.9841959 15.048462 7.1458171 15.016138 C 7.2624174 14.992818 7.2886075 14.954914 7.3633748 14.704529 C 7.4101468 14.547894 7.4412893 14.345329 7.4326213 14.254427 C 7.4193793 14.115575 7.3997364 14.089392 7.3101481 14.09113 C 7.2514971 14.09223 7.1879293 14.10895 7.1690715 14.12782 C 7.1188165 14.1781 6.8857457 14.169731 6.8528117 14.116451 C 6.8372707 14.091301 6.7848482 14.070459 6.7360229 14.070459 C 6.6871979 14.070459 6.6471395 14.091291 6.6471395 14.116451 C 6.6471395 14.177661 6.4775856 14.17512 6.4394002 14.11335 C 6.4227932 14.08648 6.3803401 14.075116 6.3453491 14.088546 C 6.2770371 14.114756 6.1327328 13.885703 6.1195231 13.729911 C 6.1153631 13.680881 6.0885685 13.6326 6.0595785 13.622941 C 6.0305885 13.613241 6.0068685 13.576406 6.0068685 13.540776 C 6.0068685 13.495586 6.062769 13.47618 6.1913534 13.47618 C 6.3130578 13.47618 6.3842993 13.45274 6.4016764 13.40745 C 6.4171344 13.36717 6.4872886 13.33813 6.5716919 13.33717 C 6.6507549 13.33636 6.7671861 13.305941 6.8300741 13.269991 C 6.988703 13.179311 7.1208211 13.185947 7.4321045 13.299447 C 7.6476316 13.378037 7.7384502 13.389011 7.893575 13.356291 C 8.1577772 13.300561 8.1667984 13.197121 7.9235474 13.020911 C 7.702658 12.8609 7.7765084 12.839382 8.0878784 12.972852 C 8.2052497 13.023162 8.3418334 13.064319 8.3917358 13.064319 C 8.4416398 13.064319 8.5481548 13.114201 8.6284139 13.175423 C 8.7086729 13.236643 8.8784274 13.33507 9.0056519 13.394014 C 9.2267504 13.49645 9.2353993 13.507427 9.200472 13.63741 C 9.145857 13.840652 9.1929901 13.923876 9.4206136 14.027568 C 9.7081629 14.158561 9.8772572 14.10337 9.8588298 13.884424 C 9.8517398 13.800244 9.8055085 13.693876 9.7559937 13.647746 C 9.7064787 13.601616 9.6655599 13.545841 9.6655599 13.523722 C 9.6655599 13.501602 9.6523753 13.445772 9.6361043 13.399699 C 9.6118863 13.331149 9.6177317 13.326047 9.6681437 13.372827 C 9.7357527 13.435557 9.8497668 13.450472 9.8474609 13.396082 C 9.8466016 13.377222 9.8164296 13.32239 9.7802816 13.274642 C 9.7259396 13.202852 9.7022801 13.19816 9.6443726 13.24622 C 9.5852876 13.29525 9.5740926 13.289036 9.5740926 13.208496 C 9.5740926 13.155996 9.5288826 13.088884 9.4733236 13.059151 C 9.4177666 13.029411 9.3372083 12.962007 9.2945231 12.90929 C 9.1950951 12.786501 9.2585555 12.652458 9.4159627 12.652458 C 9.4783617 12.652458 9.5286174 12.62617 9.5286174 12.59303 C 9.5286174 12.50425 9.4039742 12.350252 9.3642863 12.389941 C 9.3241163 12.430111 9.1625615 12.295851 9.1627482 12.22251 C 9.1628173 12.19497 9.1168605 12.086232 9.0609456 11.980664 C 9.0050306 11.875095 8.9761251 11.771946 8.9963501 11.751737 C 9.0513261 11.696807 9.9490907 11.711301 10.054683 11.768791 C 10.173632 11.833551 10.44329 11.79263 10.44329 11.70988 C 10.44329 11.675 10.422618 11.646318 10.397298 11.646318 C 10.313378 11.646318 10.146151 11.41096 10.146151 11.292851 C 10.146151 11.1286 10.016534 11.055326 9.9048218 11.156425 C 9.8230708 11.230405 9.8135104 11.229316 9.7193034 11.129036 C 9.5926216 10.994191 9.5944862 10.967735 9.7342896 10.914579 C 9.8605099 10.866589 9.8862965 10.728436 9.7849325 10.644312 C 9.7500055 10.615322 9.7067853 10.47401 9.6888143 10.330119 C 9.6708427 10.186212 9.6068125 9.9367172 9.5461873 9.7756307 C 9.4855605 9.6145458 9.4413865 9.4784257 9.4480021 9.4728068 C 9.4546221 9.4671768 9.5436185 9.4199845 9.6459229 9.3684204 C 9.9002786 9.2402175 9.9725551 9.1480088 9.904305 9.0387248 C 9.85509 8.9599188 9.8613331 8.9573295 9.9895711 9.0020345 C 10.17047 9.0650945 10.22668 9.0074166 10.049516 8.9405396 C 9.9120227 8.8886408 9.7705479 8.6775562 9.8417765 8.630481 C 9.8629817 8.616458 9.8940925 8.5482471 9.9110229 8.479069 C 9.9395558 8.3624817 10.077421 8.2961192 10.077421 8.3989705 C 10.077421 8.4241245 10.118992 8.4449626 10.169922 8.4449626 C 10.226622 8.4449626 10.279215 8.4891645 10.305831 8.5591675 C 10.329741 8.6220555 10.370485 8.6733724 10.396265 8.6733724 C 10.422045 8.6733724 10.44329 8.7026867 10.44329 8.7384847 C 10.44329 8.7742827 10.508387 8.8686969 10.587984 8.948291 C 10.731449 9.0917571 10.732145 9.0942359 10.65413 9.2263102 C 10.58481 9.3436659 10.583659 9.3596354 10.646379 9.3596354 C 10.685529 9.3596354 10.760266 9.3170615 10.81226 9.2650675 C 10.88983 9.1874915 10.896487 9.1584181 10.849467 9.10177 C 10.803137 9.045947 10.804605 9.0247845 10.857735 8.9911825 C 10.906335 8.9604325 10.890677 8.9493248 10.796757 8.9488078 C 10.704957 8.9483214 10.658206 8.9172267 10.627775 8.8371867 C 10.604635 8.7763287 10.550699 8.70715 10.507886 8.6831909 C 10.435926 8.6429209 10.435582 8.6316452 10.503752 8.5343628 C 10.574002 8.4340617 10.578654 8.4329801 10.609688 8.5167928 C 10.643718 8.6086868 10.712857 8.6716641 10.780737 8.6728556 C 10.802687 8.6731798 10.794754 8.6431103 10.763684 8.6056763 C 10.677764 8.5021474 10.827595 8.4642262 11.068575 8.5286784 C 11.364471 8.6078174 11.407427 8.5879718 11.175028 8.4795858 L 10.969356 8.3834676 L 11.233423 8.3400594 C 11.458647 8.3030934 11.486469 8.2887067 11.421008 8.2408407 C 11.355928 8.1932547 11.408308 8.1688005 11.763623 8.0827108 C 11.994354 8.0268068 12.228995 7.9846644 12.285038 7.9891764 C 12.51859 8.0079784 12.638505 7.9853541 12.638505 7.9219971 C 12.638505 7.8503091 12.726164 7.8132015 12.851412 7.8217448 z M 17.212386 8.3126709 C 17.275276 8.3105509 17.357588 8.3291143 17.395321 8.3534953 C 17.456301 8.3929043 17.456301 8.3972329 17.395321 8.3938029 C 17.357591 8.3916829 17.275274 8.3736343 17.212386 8.3534953 L 17.098181 8.316805 L 17.212386 8.3126709 z M 21.314461 12.657625 C 21.336913 12.656303 21.394646 12.686 21.491711 12.745992 C 21.574691 12.797282 21.709208 12.847335 21.790401 12.857613 C 21.975221 12.881003 22.047539 12.979616 21.922176 13.03693 C 21.872506 13.05964 21.831742 13.105466 21.831742 13.138733 C 21.831742 13.183803 21.803562 13.188666 21.721155 13.157336 C 21.660335 13.134206 21.566336 13.118653 21.512382 13.122713 C 21.427782 13.129113 21.423963 13.137004 21.484993 13.181624 C 21.523913 13.210084 21.542715 13.246893 21.526335 13.263273 C 21.477585 13.312023 21.445141 13.298175 21.385258 13.202295 C 21.317258 13.093408 21.310076 12.955838 21.374406 12.995589 C 21.446146 13.039929 21.428034 12.866991 21.349084 12.75426 C 21.304884 12.691156 21.29201 12.658947 21.314461 12.657625 z M 21.597648 13.292729 C 21.679148 13.292729 21.928464 13.679019 21.905123 13.769185 C 21.892673 13.817275 21.899179 13.889429 21.920109 13.929382 C 21.941049 13.969332 21.972669 14.089575 21.990389 14.196549 C 22.017979 14.363075 22.012281 14.386815 21.950081 14.362948 C 21.910131 14.347608 21.877734 14.356655 21.877734 14.382585 C 21.877734 14.409165 21.799167 14.423871 21.698417 14.416691 C 21.582815 14.408491 21.526347 14.421795 21.53822 14.454415 C 21.54834 14.482175 21.535665 14.536053 21.510315 14.573787 C 21.470375 14.633187 21.455278 14.630504 21.396627 14.553634 C 21.337517 14.476164 21.328931 14.474258 21.328931 14.541748 C 21.328931 14.584288 21.297171 14.619263 21.258651 14.619263 C 21.220131 14.619263 21.176746 14.650656 21.162016 14.689026 C 21.141366 14.742826 21.120372 14.747086 21.071582 14.706596 C 21.019732 14.663566 21.008537 14.683101 21.008537 14.816667 C 21.008537 14.985283 20.967693 15.047583 20.892265 14.9934 C 20.86821 14.976011 20.801434 14.894976 20.743953 14.813049 L 20.63905 14.663704 L 20.77806 14.51591 C 20.85439 14.43447 20.916954 14.354132 20.917069 14.337626 C 20.917188 14.321116 21.019422 14.293848 21.144446 14.276648 C 21.26947 14.259448 21.367025 14.229552 21.361487 14.210502 C 21.355987 14.191452 21.41822 14.113178 21.49998 14.036353 C 21.667002 13.879395 21.691595 13.720649 21.575427 13.543359 C 21.502397 13.431901 21.514598 13.292729 21.597648 13.292729 z M 7.2217814 14.274064 C 7.2310327 14.279889 7.2115755 14.302296 7.1716553 14.346411 C 7.0830483 14.444321 6.9887985 14.462889 6.944279 14.390853 C 6.928739 14.365693 6.9229011 14.344861 6.9308431 14.344861 C 6.9387731 14.344861 7.0146001 14.325226 7.0993083 14.300936 C 7.1748733 14.279261 7.2125301 14.268239 7.2217814 14.274064 z M 20.020483 17.142106 C 20.037094 17.139135 20.058051 17.140389 20.085596 17.143656 C 20.175556 17.154326 20.21206 17.193639 20.242692 17.312638 C 20.268612 17.41332 20.265547 17.484609 20.233907 17.516243 C 20.173077 17.577073 20.170233 17.729667 20.229773 17.729667 C 20.254143 17.729667 20.263217 17.757546 20.249927 17.792196 C 20.232397 17.837876 20.285747 17.864627 20.445264 17.889347 C 20.619493 17.916347 20.646382 17.931441 20.573938 17.960661 C 20.523628 17.980961 20.508382 17.998682 20.539832 18.000452 C 20.608472 18.004352 20.617643 18.232479 20.549133 18.232479 C 20.522873 18.232479 20.505306 18.207075 20.510376 18.175635 L 20.510893 18.175635 C 20.529833 18.058134 20.450317 17.955035 20.362581 17.982882 C 20.315021 17.997972 20.276799 17.988188 20.276799 17.961178 C 20.276799 17.934328 20.254339 17.912602 20.227189 17.912602 C 20.196089 17.912602 20.188439 17.967288 20.206519 18.060913 L 20.235457 18.209741 L 20.147607 18.108972 C 20.089017 18.041762 20.067779 17.967584 20.083529 17.885213 C 20.098019 17.809453 20.089398 17.77228 20.061308 17.789612 C 19.981608 17.838872 19.921513 17.62173 19.945553 17.371549 C 19.961933 17.201075 19.970653 17.151019 20.020483 17.142106 z M 20.665922 18.141012 C 20.675653 18.141297 20.689168 18.14365 20.707263 18.147213 C 20.821977 18.169803 20.876111 18.329717 20.802865 18.429883 C 20.750155 18.501963 20.742325 18.502657 20.716565 18.435567 C 20.700925 18.394827 20.700315 18.341737 20.715015 18.317745 C 20.729845 18.293755 20.715268 18.242035 20.682458 18.202507 C 20.644291 18.156524 20.636729 18.140155 20.665922 18.141012 z M 20.360514 18.283639 C 20.385381 18.274513 20.4222 18.292618 20.468518 18.338932 C 20.501988 18.372392 20.552124 18.392197 20.580139 18.382857 C 20.608159 18.373557 20.643101 18.413077 20.658171 18.470707 C 20.695641 18.613977 20.695167 18.621086 20.641117 18.621086 C 20.615047 18.621086 20.577055 18.647874 20.556885 18.680514 C 20.527335 18.728334 20.509527 18.727442 20.465417 18.674312 L 20.465417 18.673796 C 20.435307 18.637526 20.41639 18.580247 20.42356 18.546155 C 20.43076 18.512065 20.411075 18.489222 20.379635 18.495512 C 20.346095 18.502212 20.322274 18.459754 20.322274 18.392676 C 20.322274 18.329364 20.335647 18.292764 20.360514 18.283639 z M 19.950203 18.419031 C 19.960785 18.416827 19.972792 18.423151 19.986377 18.438151 C 20.012237 18.466701 19.962906 18.55287 19.855119 18.667078 C 19.760149 18.767698 19.68266 18.83226 19.68252 18.810738 C 19.682378 18.789218 19.731595 18.713122 19.792074 18.641239 C 19.852554 18.569359 19.912009 18.483962 19.923848 18.451587 C 19.930898 18.432292 19.939622 18.421235 19.950203 18.419031 z M 20.887097 18.552873 C 20.972597 18.552873 21.074491 18.983239 21.013704 19.087724 C 20.975694 19.153054 20.964281 19.156046 20.958411 19.101676 C 20.954311 19.063946 20.938304 19.09724 20.922754 19.17609 C 20.895664 19.313397 20.890067 19.317007 20.791496 19.251021 C 20.734366 19.212771 20.68866 19.13501 20.68866 19.076355 C 20.68866 18.993465 20.666021 18.973022 20.583757 18.981787 C 20.526097 18.987987 20.453939 19.008482 20.42356 19.027262 C 20.33013 19.085002 20.362405 18.973229 20.467485 18.875334 C 20.529625 18.817444 20.58535 18.798524 20.616313 18.824174 C 20.685773 18.881714 20.888777 18.709469 20.855058 18.621602 C 20.840078 18.582542 20.853965 18.552873 20.887097 18.552873 z M 14.181563 18.623153 C 14.191255 18.625003 14.203924 18.633741 14.219804 18.646924 C 14.40317 18.799104 14.48614 19.159 14.350028 19.21123 C 14.239129 19.25379 14.206056 19.244912 14.175879 19.166272 C 14.160619 19.126482 14.147974 18.980087 14.147974 18.84071 C 14.147974 18.672102 14.152488 18.617602 14.181563 18.623153 z M 19.646346 19.050517 C 19.654733 19.046758 19.661741 19.047255 19.668567 19.05155 C 19.677668 19.057277 19.686222 19.069784 19.695439 19.087724 C 19.718769 19.133124 19.792247 19.216813 19.858736 19.273759 C 19.960744 19.361129 19.968815 19.384084 19.910929 19.421554 C 19.873189 19.445974 19.861411 19.466122 19.885091 19.466512 C 19.908761 19.466837 19.890854 19.494814 19.844784 19.528524 C 19.776684 19.578324 19.767161 19.623501 19.794141 19.768819 C 19.812401 19.867179 19.859537 19.983695 19.899044 20.027718 C 19.965164 20.101408 19.962912 20.107817 19.872172 20.107817 C 19.794342 20.107817 19.77347 20.13529 19.77347 20.238041 C 19.77347 20.309611 19.733537 20.404063 19.684587 20.448364 C 19.635207 20.493054 19.58947 20.603421 19.58175 20.695894 C 19.57415 20.787554 19.543921 20.862292 19.514571 20.862292 C 19.485221 20.862292 19.445581 20.878046 19.426721 20.896916 C 19.376411 20.947216 19.326545 20.938485 19.305798 20.876245 C 19.295728 20.846075 19.201572 20.820791 19.095992 20.819401 C 18.990795 20.817901 18.904869 20.801064 18.904789 20.782194 C 18.90471 20.763324 18.855322 20.748088 18.795235 20.748088 C 18.707025 20.748088 18.680485 20.718059 18.656742 20.591508 C 18.640562 20.505298 18.603854 20.426947 18.575094 20.417358 C 18.545924 20.407658 18.521183 20.300012 18.519283 20.173962 L 18.515666 19.94762 L 18.664494 19.962089 C 18.786664 19.973889 18.813322 19.960511 18.813322 19.886641 C 18.813322 19.828351 18.86042 19.77994 18.947164 19.749699 C 19.020764 19.724039 19.115123 19.650789 19.15697 19.586918 C 19.19882 19.523058 19.268357 19.460047 19.311483 19.446358 C 19.354603 19.432658 19.448948 19.327746 19.521289 19.213298 C 19.585609 19.11154 19.621184 19.061793 19.646346 19.050517 z M 16.443958 19.303731 C 16.456632 19.299186 16.483279 19.306989 16.523539 19.328536 C 16.572199 19.354576 16.646276 19.376078 16.688387 19.376078 C 16.730497 19.376078 16.876237 19.489389 17.012398 19.627743 C 17.148561 19.766098 17.285342 19.879285 17.316256 19.879407 C 17.347166 19.879525 17.450771 19.951475 17.546733 20.039604 C 17.673141 20.155702 17.71366 20.224115 17.693494 20.287651 C 17.676964 20.339701 17.691767 20.39085 17.729667 20.413224 C 17.764837 20.433954 17.817782 20.497188 17.847489 20.553784 C 17.907369 20.667836 18.002306 20.696415 17.960661 20.587891 C 17.917911 20.476485 18.018903 20.509823 18.100187 20.633883 C 18.160767 20.726333 18.162599 20.748088 18.111039 20.748088 C 18.069049 20.748088 18.036958 20.826448 18.016988 20.977014 C 17.990098 21.17972 17.974047 21.205424 17.876428 21.205424 C 17.800088 21.205424 17.701392 21.130126 17.554484 20.959961 C 17.437929 20.824956 17.291781 20.614093 17.229439 20.491256 C 17.005596 20.050197 16.935359 19.943538 16.686837 19.66495 C 16.490293 19.444628 16.405933 19.317368 16.443958 19.303731 z M 21.267952 19.946069 C 21.276022 19.947778 21.286097 19.954428 21.298442 19.964673 C 21.332202 19.992693 21.371268 20.003984 21.385258 19.989994 C 21.399268 19.976004 21.407591 20.016175 21.403861 20.079395 C 21.399861 20.146475 21.363755 20.203076 21.317045 20.215304 C 21.251975 20.232344 21.237463 20.206503 21.237463 20.07526 C 21.237463 19.977886 21.243745 19.940943 21.267952 19.946069 z M 20.863326 19.993095 C 20.878561 20.001581 20.867781 20.042589 20.826119 20.107817 C 20.794259 20.157697 20.698131 20.176546 20.473686 20.176546 C 20.213117 20.176546 20.162516 20.189292 20.148641 20.258712 C 20.117401 20.41494 20.21282 20.469103 20.403406 20.403406 C 20.580522 20.342356 20.669709 20.358748 20.550684 20.430278 C 20.346855 20.552783 20.342848 20.558511 20.402372 20.654553 C 20.433812 20.705293 20.459733 20.776892 20.459733 20.813717 C 20.459733 20.850537 20.490032 20.897459 20.526912 20.918103 C 20.600372 20.959213 20.573773 21.159949 20.494873 21.159949 C 20.469713 21.159949 20.460156 21.117648 20.473686 21.065898 C 20.493746 20.989188 20.486285 20.981603 20.433895 21.025073 C 20.382295 21.067903 20.36065 21.054057 20.323307 20.955827 C 20.297737 20.888567 20.276799 20.804334 20.276799 20.768241 C 20.276799 20.732141 20.257164 20.702612 20.232874 20.702612 C 20.208584 20.702612 20.174703 20.805714 20.157943 20.932056 C 20.128363 21.155003 20.089534 21.23158 20.033919 21.175968 C 20.019049 21.161098 20.018845 21.087717 20.033919 21.012671 C 20.051919 20.922691 20.040503 20.863145 19.999813 20.838005 C 19.948713 20.806425 19.951283 20.757517 20.015833 20.552751 C 20.058683 20.41683 20.093864 20.275811 20.093864 20.239591 C 20.093864 20.203371 20.13299 20.140384 20.18068 20.099548 C 20.25238 20.038158 20.304283 20.033446 20.48092 20.071126 C 20.661981 20.109746 20.707741 20.104353 20.782711 20.036503 C 20.806016 20.015413 20.825346 20.002004 20.839555 19.995679 C 20.850212 19.990934 20.858248 19.990266 20.863326 19.993095 z M 21.260201 20.290751 C 21.297931 20.290751 21.328931 20.311066 21.328931 20.336226 C 21.328931 20.361386 21.297941 20.382218 21.260201 20.382218 C 21.222471 20.382218 21.191471 20.361386 21.191471 20.336226 C 21.191471 20.311066 21.222471 20.290751 21.260201 20.290751 z M 21.473108 20.730001 C 21.585331 20.739176 21.6948 20.785979 21.6948 20.837488 C 21.6948 20.867178 21.656518 20.8659 21.586279 20.83387 C 21.508399 20.79839 21.451236 20.798287 21.384741 20.83387 C 21.313451 20.87203 21.286564 20.868945 21.267952 20.820435 C 21.252212 20.779375 21.285801 20.749622 21.364071 20.734652 C 21.398246 20.728119 21.4357 20.726943 21.473108 20.730001 z M 18.144629 21.254 C 18.212672 21.257075 18.285674 21.280668 18.347201 21.323763 C 18.405771 21.364793 18.524296 21.391535 18.620569 21.385775 C 18.866085 21.371085 19.165951 21.391938 19.099093 21.418848 C 19.023843 21.449208 19.02527 21.525818 19.10116 21.525818 C 19.17783 21.525818 19.407136 21.631701 19.407601 21.667411 C 19.408249 21.714381 19.167472 21.699779 18.881535 21.635889 C 18.730604 21.602169 18.514659 21.560778 18.401461 21.543388 C 18.288261 21.526008 18.131917 21.478061 18.054195 21.436934 C 17.940286 21.376664 17.924713 21.351397 17.972546 21.30671 C 18.013711 21.268255 18.076586 21.250925 18.144629 21.254 z M 20.173962 21.637439 C 20.70567 21.635539 20.794952 21.643429 20.596676 21.674129 C 20.458321 21.695579 20.208117 21.707001 20.040637 21.699451 C 19.873158 21.691851 19.745706 21.701251 19.75745 21.720121 C 19.76919 21.738991 19.71606 21.754228 19.639111 21.754228 C 19.557651 21.754228 19.499043 21.730674 19.499068 21.697384 C 19.4991 21.654344 19.6661 21.639249 20.173962 21.637439 z M 21.019389 21.674129 C 21.118149 21.691259 21.116464 21.694753 20.991484 21.746993 C 20.919344 21.777143 20.808823 21.842399 20.745504 21.892204 C 20.60884 21.999703 20.544235 22.009021 20.580139 21.915458 C 20.620569 21.810105 20.904249 21.654153 21.019389 21.674129 z " /><circle
       style="fill:none;stroke:#ff0000;stroke-width:0.122805;stroke-opacity:1"
       id="path2-0-9"
       cx="15.652065"
       cy="13.510983"
       r="9.9385977" /></g></svg>
