<?xml version="1.0" encoding="UTF-8" standalone="no"?>
<!-- Created with Inkscape (http://www.inkscape.org/) -->

<svg
   width="210mm"
   height="297mm"
   viewBox="0 0 210 297"
   version="1.1"
   id="svg1"
   xml:space="preserve"
   inkscape:version="1.4 (e7c3feb1, 2024-10-09)"
   sodipodi:docname="Asia.svg"
   xmlns:inkscape="http://www.inkscape.org/namespaces/inkscape"
   xmlns:sodipodi="http://sodipodi.sourceforge.net/DTD/sodipodi-0.dtd"
   xmlns:xlink="http://www.w3.org/1999/xlink"
   xmlns="http://www.w3.org/2000/svg"
   xmlns:svg="http://www.w3.org/2000/svg"><sodipodi:namedview
     id="namedview1"
     pagecolor="#ffffff"
     bordercolor="#000000"
     borderopacity="0.25"
     inkscape:showpageshadow="2"
     inkscape:pageopacity="0.0"
     inkscape:pagecheckerboard="0"
     inkscape:deskcolor="#d1d1d1"
     inkscape:document-units="mm"
     inkscape:zoom="4.0079701"
     inkscape:cx="72.231078"
     inkscape:cy="111.02877"
     inkscape:window-width="1472"
     inkscape:window-height="829"
     inkscape:window-x="0"
     inkscape:window-y="37"
     inkscape:window-maximized="1"
     inkscape:current-layer="g3" /><defs
     id="defs1"><inkscape:perspective
       sodipodi:type="inkscape:persp3d"
       inkscape:vp_x="0 : 512 : 1"
       inkscape:vp_y="0 : 1000 : 0"
       inkscape:vp_z="958.27698 : 512 : 1"
       inkscape:persp3d-origin="479.13849 : 341.33333 : 1"
       id="perspective2900" /><inkscape:perspective
       sodipodi:type="inkscape:persp3d"
       inkscape:vp_x="0 : 512 : 1"
       inkscape:vp_y="0 : 1000 : 0"
       inkscape:vp_z="958.27698 : 512 : 1"
       inkscape:persp3d-origin="479.13849 : 341.33333 : 1"
       id="perspective2900-0" /></defs><g
     inkscape:label="Ebene 1"
     inkscape:groupmode="layer"
     id="layer1"><g
       id="g2"
       transform="matrix(-1,0,0,1,127.225,-117.27917)"><g
         id="g3"
         transform="matrix(-1,0,0,1,210,0)"><circle
           style="display:inline;fill:#000000;fill-opacity:1;stroke:#ff0000;stroke-width:0.122805;stroke-opacity:1"
           id="path2-9"
           cx="87.85405"
           cy="148.5"
           r="9.9385977"
           transform="matrix(-1,0,0,1,192.85405,0)" /><path
           id="path2-9-8"
           style="display:inline;fill:#ffffff;fill-opacity:1;stroke:none;stroke-width:0.122805;stroke-opacity:1"
           d="m 87.854313,138.56159 a 9.9385977,9.9385977 0 0 1 9.938409,9.93841 9.9385977,9.9385977 0 0 1 -9.938409,9.93841 9.9385977,9.9385977 0 0 1 -9.938936,-9.93841 9.9385977,9.9385977 0 0 1 9.938936,-9.93841 z m 0,0.88367 a 9.0549355,9.0549355 0 0 0 -9.055266,9.05474 9.0549355,9.0549355 0 0 0 9.055266,9.05474 9.0549355,9.0549355 0 0 0 9.054742,-9.05474 9.0549355,9.0549355 0 0 0 -9.054742,-9.05474 z"
           transform="matrix(-1,0,0,1,192.85405,0)" /><circle
           style="display:inline;overflow:visible;fill:none;fill-opacity:1;stroke:none;stroke-width:0.046301;stroke-dasharray:none"
           id="path1"
           cx="-181.77554"
           cy="5.9078112"
           r="6.6190228"
           transform="rotate(-123.40152)" /><text
           xml:space="preserve"
           style="font-weight:900;font-size:2.9986px;line-height:1;font-family:'Arial Black';-inkscape-font-specification:'Arial Black,  Heavy';text-align:start;letter-spacing:-0.0899583px;word-spacing:0.370417px;writing-mode:lr-tb;direction:ltr;text-anchor:start;display:inline;overflow:visible;fill:#ffffff;fill-opacity:1;stroke:none;stroke-width:0.04;stroke-dasharray:none"
           id="text1"
           transform="matrix(-1,0,0,1,210.02495,0)"><textPath
             xlink:href="#path1"
             id="textPath1"
             style="stroke-width:0.04">ASIA<tspan
   id="tspan1"
   style="stroke-width:0.04" /></textPath></text><path
           style="fill:#ffffff;fill-opacity:1;stroke:none;stroke-width:0.154578"
           d="m 100.48958,156.01653 c -0.0361,-0.0941 -0.2898,-0.23341 -0.39276,-0.21556 -0.0883,0.0154 -0.0871,0.0184 0.0247,0.0651 0.0645,0.027 0.16361,0.0854 0.22025,0.13001 0.1222,0.096 0.18002,0.10416 0.14791,0.0205 z m 0.96643,-0.1951 c -2e-5,-0.0385 -0.14912,-0.0517 -0.60325,-0.0533 -0.47547,-0.001 -0.55559,0.006 -0.37828,0.0327 0.12372,0.0191 0.34748,0.0293 0.49724,0.0226 0.14977,-0.007 0.2637,0.001 0.25321,0.0184 -0.0104,0.0169 0.0373,0.0307 0.10602,0.0307 0.0729,0 0.12509,-0.0213 0.12507,-0.0511 z m 0.55217,-0.0546 c 0.13496,-0.0301 0.32821,-0.0676 0.42945,-0.0832 0.10126,-0.0155 0.24089,-0.0584 0.3104,-0.0951 0.10184,-0.0539 0.11607,-0.0765 0.0733,-0.11642 -0.0737,-0.0687 -0.22518,-0.062 -0.33521,0.0152 -0.0524,0.0367 -0.15818,0.0608 -0.24427,0.0556 -0.21955,-0.0132 -0.48772,0.006 -0.42795,0.0294 0.0673,0.0271 0.0658,0.0956 -0.002,0.0956 -0.0685,0 -0.27326,0.0948 -0.27368,0.12671 -5.3e-4,0.0421 0.21433,0.0293 0.47002,-0.0279 z m 1.18682,-0.60462 c 0.10428,-0.12072 0.23511,-0.30936 0.29085,-0.41921 0.20016,-0.3944 0.26269,-0.48965 0.48492,-0.73877 0.23434,-0.26269 0.2904,-0.37788 0.1464,-0.30081 -0.0435,0.0233 -0.10996,0.0423 -0.14758,0.0423 -0.0377,0 -0.16809,0.10126 -0.28985,0.22495 -0.12175,0.1237 -0.24399,0.22502 -0.27164,0.22513 -0.0277,1.1e-4 -0.12047,0.0648 -0.20627,0.14348 -0.11309,0.10382 -0.14916,0.1649 -0.13114,0.22171 0.0148,0.0466 0.001,0.0921 -0.0322,0.11216 -0.0315,0.0185 -0.0789,0.0751 -0.10544,0.12573 -0.0536,0.10196 -0.13835,0.12771 -0.10115,0.0307 0.0382,-0.0995 -0.052,-0.0701 -0.12459,0.0409 -0.0541,0.0827 -0.0561,0.10219 -0.009,0.10219 0.0374,0 0.0664,0.0699 0.0841,0.20451 0.0241,0.18126 0.0382,0.20449 0.12561,0.20449 0.0684,0 0.15662,-0.0673 0.28798,-0.2195 z m -2.21698,0.19311 c 0.0133,-0.0133 0.0132,-0.0791 -2.3e-4,-0.14616 -0.0161,-0.0804 -0.006,-0.13362 0.0307,-0.1561 0.0456,-0.0283 0.0432,-0.0719 -0.0145,-0.25507 -0.0383,-0.12155 -0.0696,-0.24749 -0.0696,-0.27988 0,-0.0323 -0.0349,-0.0889 -0.0776,-0.12528 -0.0641,-0.0549 -0.11066,-0.0594 -0.26856,-0.0256 -0.1619,0.0345 -0.20306,0.0299 -0.2701,-0.0308 -0.0834,-0.0754 -0.10498,-0.0399 -0.0387,0.0637 0.0285,0.0447 0.11459,0.0614 0.31524,0.0614 0.23301,0 0.27835,0.0116 0.29076,0.0736 0.0279,0.1397 -0.0575,0.18827 -0.228,0.12953 -0.15838,-0.0546 -0.23823,-0.0402 -0.1318,0.0238 0.18227,0.10949 0.1858,0.11494 0.13259,0.20079 -0.0282,0.0454 -0.0511,0.10938 -0.0511,0.14237 0,0.0329 -0.027,0.075 -0.0599,0.0934 -0.0657,0.0367 -0.0419,0.2159 0.0286,0.2159 0.0226,0 0.0309,-0.0379 0.0189,-0.0841 -0.018,-0.0686 -0.0116,-0.0753 0.0355,-0.0365 0.0461,0.0382 0.0656,0.0262 0.0991,-0.0616 0.0228,-0.0601 0.0416,-0.13576 0.0416,-0.16805 0,-0.0322 0.0177,-0.0587 0.0394,-0.0587 0.0217,0 0.0518,0.0923 0.0667,0.20541 0.0265,0.19936 0.0613,0.26781 0.111,0.21809 z m 0.65111,-0.26786 c 0.009,-0.027 0.0929,-0.0499 0.18732,-0.0511 0.0941,-0.001 0.17108,-0.016 0.17115,-0.0329 7e-5,-0.0169 0.0441,-0.0307 0.0979,-0.0307 0.0789,0 0.10277,-0.027 0.12399,-0.14018 0.0145,-0.0772 0.0473,-0.14718 0.073,-0.15575 0.0261,-0.009 0.0482,-0.10509 0.0498,-0.2177 l 0.003,-0.20211 -0.13293,0.0129 c -0.10926,0.0104 -0.13291,-0.001 -0.13291,-0.0676 0,-0.0522 -0.0421,-0.0951 -0.11967,-0.12214 -0.0658,-0.0229 -0.15029,-0.0885 -0.1877,-0.14554 -0.0374,-0.0571 -0.0996,-0.1139 -0.13816,-0.1261 -0.0386,-0.0122 -0.12305,-0.10601 -0.18772,-0.20832 -0.1022,-0.16178 -0.12258,-0.17644 -0.15554,-0.11228 -0.0209,0.0407 -0.0866,0.11552 -0.14603,0.1664 -0.0912,0.0781 -0.0985,0.0988 -0.0467,0.13228 0.0338,0.0218 0.044,0.04 0.0228,0.0403 -0.0211,3e-4 -0.005,0.0253 0.0365,0.0554 0.061,0.0446 0.0694,0.0848 0.0452,0.21472 -0.0163,0.0879 -0.0586,0.19213 -0.094,0.23148 -0.0592,0.0659 -0.0572,0.0716 0.0239,0.0716 0.0696,0 0.0882,0.0246 0.0882,0.11635 0,0.064 0.0358,0.14877 0.0796,0.18838 0.0441,0.04 0.085,0.13837 0.092,0.22106 0.007,0.0819 0.034,0.14903 0.0601,0.14903 0.0263,0 0.0615,0.0138 0.0783,0.0307 0.045,0.045 0.0898,0.0375 0.10834,-0.0182 z m -1.754683,-0.0499 c 0.014,-0.0367 -0.0159,-0.0635 -0.0859,-0.0769 -0.12224,-0.0234 -0.29567,0.0306 -0.29567,0.0921 0,0.0267 0.0342,0.0254 0.0971,-0.003 0.0696,-0.0317 0.12049,-0.0317 0.17995,1.3e-4 0.0637,0.0341 0.0878,0.0314 0.10451,-0.0119 z m 0.0684,-0.43291 c 0,-0.0226 -0.0276,-0.0409 -0.0613,-0.0409 -0.0338,0 -0.0614,0.0184 -0.0614,0.0409 0,0.0226 0.0276,0.0409 0.0614,0.0409 0.0338,0 0.0613,-0.0184 0.0613,-0.0409 z m -0.0409,-0.23378 c 0,-0.1161 -0.0104,-0.13543 -0.0549,-0.0988 -0.0301,0.025 -0.0651,0.0353 -0.0776,0.0228 -0.0125,-0.0125 -0.02,0.0235 -0.0167,0.0801 0.003,0.0599 0.0358,0.11054 0.0776,0.12152 0.0582,0.0152 0.0716,-0.009 0.0716,-0.1256 z m 3.282133,-0.12528 c 0.13966,-0.10741 0.21245,-0.20149 0.25899,-0.33481 0.12508,-0.35828 0.2248,-0.54159 0.30619,-0.56288 0.0734,-0.0191 0.0796,-0.0476 0.0629,-0.28207 -0.009,-0.1434 -0.005,-0.26074 0.0135,-0.26074 0.0176,0 0.0234,-0.046 0.0126,-0.10207 -0.0104,-0.0561 0.009,-0.16474 0.0467,-0.24135 0.0363,-0.0766 0.0662,-0.16039 0.0662,-0.18623 0,-0.0258 0.0291,-0.10312 0.0645,-0.17177 l 0.0645,-0.12481 0.0914,0.086 c 0.0504,0.0473 0.13169,0.086 0.18085,0.086 0.0784,0 0.0893,-0.0222 0.0893,-0.18112 0,-0.10648 0.0252,-0.20641 0.0613,-0.24248 0.0337,-0.0337 0.0613,-0.0728 0.0613,-0.0867 0,-0.0139 0.0644,-0.0918 0.14315,-0.17279 0.0788,-0.0811 0.14314,-0.17985 0.14314,-0.21952 0,-0.0912 0.0892,-0.12381 0.14315,-0.0522 0.0336,0.0445 0.16603,0.0728 0.43966,0.0937 0.0169,0.001 0.0307,0.0363 0.0307,0.0779 0,0.0415 0.0369,0.1088 0.0818,0.14949 0.045,0.0407 0.0819,0.0574 0.082,0.0371 1.7e-4,-0.0204 0.0323,0.0116 0.0716,0.0701 0.1015,0.15244 0.34926,0.42023 0.46163,0.49894 0.0869,0.0608 0.0962,0.1 0.10254,0.42736 0.008,0.3706 0.036,0.45879 0.21642,0.65927 l 0.0958,0.10648 0.078,-0.0963 c 0.043,-0.0529 0.078,-0.11937 0.078,-0.14749 0,-0.0282 0.0912,-0.24586 0.2026,-0.48391 0.21408,-0.45726 0.34762,-0.86249 0.39017,-1.18387 0.0141,-0.10694 0.0424,-0.19428 0.0629,-0.19428 0.0204,0 0.027,0.0262 0.0148,0.0582 -0.0129,0.0334 0.014,0.0777 0.0627,0.1037 0.0948,0.0508 0.18465,0.0175 0.30178,-0.11204 0.0702,-0.0776 0.0695,-0.0815 -0.021,-0.10914 -0.0933,-0.0285 -0.0932,-0.0289 0.0155,-0.0621 0.12606,-0.0386 0.31713,-0.16978 0.31902,-0.21902 0.005,-0.11656 0.12911,-0.14784 0.57991,-0.1455 0.54799,0.003 0.69015,-0.0314 0.76413,-0.18366 0.0401,-0.0826 0.0679,-0.10104 0.10532,-0.0699 0.16984,0.14095 0.59757,-0.0338 0.74286,-0.3037 0.0824,-0.15292 0.19418,-0.20205 0.30393,-0.1335 0.0691,0.043 0.0691,0.0512 0.001,0.17123 -0.0392,0.0693 -0.12814,0.18671 -0.19781,0.26097 -0.0715,0.0762 -0.11676,0.16081 -0.10393,0.19427 0.0125,0.0326 0.002,0.0593 -0.0226,0.0593 -0.0249,0 -0.0452,-0.0313 -0.0452,-0.0695 0,-0.11413 -0.074,-0.006 -0.0889,0.13087 -0.0126,0.11606 -0.0222,0.12204 -0.17696,0.11054 -0.12804,-0.009 -0.1925,-0.0443 -0.29652,-0.16019 -0.11228,-0.12508 -0.13292,-0.13516 -0.13292,-0.0649 0,0.11088 -0.15156,0.29862 -0.24099,0.29862 -0.0393,0 -0.1139,0.0488 -0.16576,0.10845 -0.0932,0.10706 -0.0934,0.11007 -0.0195,0.23517 0.0413,0.0697 0.0758,0.1359 0.0767,0.14715 0.001,0.0116 0.0154,0.016 0.0319,0.0104 0.0165,-0.006 0.0422,0.0386 0.057,0.0979 0.0285,0.11354 0.15135,0.25968 0.21831,0.25968 0.0217,0 0.0592,0.0369 0.0832,0.0818 0.0264,0.0491 0.0856,0.0818 0.14861,0.0818 0.0615,0 0.14964,0.047 0.2133,0.11401 0.11227,0.11807 0.36624,0.25172 0.82356,0.43328 0.30418,0.12078 0.32579,0.11123 0.40633,-0.17925 0.0281,-0.10126 0.0906,-0.21499 0.13899,-0.25282 0.0484,-0.0378 0.0748,-0.0818 0.059,-0.0979 -0.016,-0.016 -0.0572,-0.006 -0.0914,0.0227 -0.10556,0.0876 -0.0689,-0.0151 0.0587,-0.16433 0.0666,-0.0779 0.12179,-0.15923 0.1227,-0.18078 7e-4,-0.0215 0.0665,-0.10555 0.14581,-0.18678 0.0884,-0.0906 0.15067,-0.19921 0.16103,-0.28106 0.009,-0.0735 0.0503,-0.18056 0.0909,-0.23816 0.0408,-0.0575 0.0924,-0.13435 0.11459,-0.17055 0.26829,-0.43705 0.31454,-0.4933 0.39824,-0.48428 0.0642,0.007 0.11286,-0.0343 0.1817,-0.15416 0.12647,-0.22002 0.1213,-0.29132 -0.0232,-0.32022 -0.10428,-0.0209 -0.12778,-0.0545 -0.19464,-0.27838 -0.0418,-0.14007 -0.0697,-0.32118 -0.0619,-0.40247 0.0118,-0.12416 0.0293,-0.14749 0.10949,-0.14594 0.0524,0.001 0.10914,0.0157 0.12603,0.0325 0.0448,0.045 0.25342,0.0375 0.28287,-0.009 0.0138,-0.0226 0.0611,-0.0409 0.10463,-0.0409 0.0437,0 0.0795,0.0184 0.0795,0.0409 0,0.0548 0.15162,0.0524 0.18577,-0.003 0.0148,-0.024 0.0525,-0.0338 0.0839,-0.0218 0.0612,0.0234 0.19009,-0.18161 0.2019,-0.32091 0.003,-0.0439 0.0279,-0.0869 0.054,-0.0955 0.026,-0.009 0.0472,-0.0418 0.0472,-0.0737 0,-0.0404 -0.0499,-0.0579 -0.16488,-0.0579 -0.10891,0 -0.17288,-0.0209 -0.18842,-0.0614 -0.0138,-0.036 -0.0766,-0.0619 -0.15208,-0.0628 -0.0707,-6.9e-4 -0.17457,-0.0278 -0.23079,-0.0599 -0.14186,-0.0811 -0.25994,-0.0754 -0.53829,0.0262 -0.19273,0.0703 -0.27393,0.0803 -0.41265,0.051 -0.23625,-0.0498 -0.24461,-0.14243 -0.0271,-0.3 0.19753,-0.14309 0.13174,-0.16239 -0.14668,-0.043 -0.10498,0.045 -0.22734,0.0818 -0.27198,0.0818 -0.0447,0 -0.13983,0.0447 -0.21161,0.0995 -0.0718,0.0548 -0.22358,0.14265 -0.33733,0.19536 -0.19773,0.0916 -0.20542,0.10127 -0.17417,0.21745 0.0488,0.18174 0.007,0.2565 -0.19686,0.34921 -0.25711,0.11714 -0.40806,0.0678 -0.39159,-0.12798 0.007,-0.0753 0.0477,-0.17061 0.092,-0.21185 0.0443,-0.0414 0.0805,-0.0912 0.0805,-0.111 0,-0.0197 0.0118,-0.0697 0.0264,-0.11088 0.0217,-0.0613 0.0165,-0.0656 -0.0286,-0.0238 -0.0605,0.0561 -0.1622,0.0691 -0.16013,0.0204 6.9e-4,-0.0169 0.0278,-0.0656 0.06,-0.10834 0.0485,-0.0642 0.0696,-0.0686 0.1214,-0.0257 0.0528,0.0439 0.0627,0.0387 0.0627,-0.0334 0,-0.0469 0.0407,-0.10706 0.0904,-0.13371 0.0497,-0.0265 0.12155,-0.0869 0.15972,-0.13403 0.0889,-0.10984 0.0323,-0.22948 -0.10834,-0.22948 -0.0559,0 -0.1008,-0.024 -0.1008,-0.0537 0,-0.0795 0.11123,-0.21697 0.14671,-0.18148 0.0358,0.0358 0.18054,-0.084 0.18038,-0.14964 -7e-5,-0.0247 0.0409,-0.12203 0.0907,-0.21642 0.05,-0.0943 0.0761,-0.18643 0.0579,-0.20449 -0.0491,-0.0491 -0.85182,-0.0363 -0.94624,0.0151 -0.10636,0.0579 -0.34763,0.0214 -0.34763,-0.0525 0,-0.0312 0.0185,-0.0568 0.0412,-0.0568 0.0751,0 0.22468,-0.21058 0.22468,-0.3162 0,-0.14687 0.11563,-0.21221 0.21546,-0.1218 0.0731,0.0662 0.0817,0.0649 0.166,-0.0248 0.11332,-0.12058 0.11169,-0.14405 -0.0134,-0.19159 -0.11285,-0.0429 -0.1361,-0.16638 -0.0454,-0.2416 0.0313,-0.0259 0.07,-0.15241 0.086,-0.28107 0.016,-0.12868 0.0736,-0.35181 0.12778,-0.49585 0.0541,-0.14404 0.0937,-0.26602 0.0878,-0.27104 -0.006,-0.006 -0.0856,-0.0468 -0.17708,-0.0929 -0.22746,-0.11459 -0.29225,-0.19734 -0.23124,-0.29506 0.044,-0.0705 0.0386,-0.0728 -0.0761,-0.0329 -0.16177,0.0563 -0.21199,0.006 -0.0537,-0.0547 0.12295,-0.0465 0.24947,-0.23538 0.18577,-0.27747 -0.019,-0.0125 -0.0468,-0.0735 -0.062,-0.13526 -0.0255,-0.10428 -0.14866,-0.16355 -0.14866,-0.0716 0,0.0226 -0.0373,0.0409 -0.0828,0.0409 -0.0506,0 -0.0979,0.0396 -0.12168,0.10219 -0.0213,0.0562 -0.0577,0.1022 -0.0808,0.1022 -0.0229,0 -0.0418,0.0262 -0.0418,0.0582 0,0.032 -0.0582,0.11644 -0.12941,0.18761 -0.12829,0.12829 -0.12879,0.13043 -0.0591,0.24853 0.062,0.10498 0.0628,0.11914 0.007,0.11914 -0.035,0 -0.10161,-0.038 -0.14819,-0.0846 -0.0693,-0.0694 -0.0753,-0.0956 -0.0334,-0.14625 0.0414,-0.0499 0.04,-0.0688 -0.008,-0.099 -0.0434,-0.0275 -0.0292,-0.0373 0.0548,-0.0378 0.082,-4.8e-4 0.12389,-0.028 0.15111,-0.0996 0.0207,-0.0543 0.0688,-0.11648 0.10717,-0.1379 0.0643,-0.036 0.0647,-0.046 0.003,-0.13306 -0.0628,-0.0897 -0.0673,-0.0905 -0.095,-0.0155 -0.0304,0.0822 -0.0919,0.1383 -0.15256,0.13937 -0.0196,3e-4 -0.013,-0.0268 0.0148,-0.0603 0.0768,-0.0926 -0.0569,-0.12626 -0.27234,-0.0686 -0.2646,0.0707 -0.30316,0.0529 -0.0954,-0.0439 l 0.18405,-0.0859 -0.23638,-0.0388 c -0.2014,-0.0331 -0.22622,-0.0462 -0.16769,-0.089 0.0582,-0.0426 0.0116,-0.0642 -0.30642,-0.14113 -0.20633,-0.0501 -0.41614,-0.0876 -0.46625,-0.0835 -0.20885,0.0168 -0.31607,-0.003 -0.31607,-0.0604 0,-0.0854 -0.13872,-0.11575 -0.31171,-0.0679 -0.0831,0.0229 -0.16648,0.032 -0.18545,0.0204 -0.019,-0.0118 -0.0344,-0.002 -0.0344,0.022 0,0.0257 -0.10034,0.0432 -0.2467,0.0432 -0.23781,0 -0.53038,0.0834 -0.53038,0.15134 0,0.0181 0.0866,0.0788 0.19228,0.13485 0.12725,0.0676 0.16875,0.10659 0.12273,0.1154 -0.0382,0.008 -0.11805,-0.0248 -0.17734,-0.0714 -0.12582,-0.099 -0.20832,-0.10683 -0.29804,-0.0284 -0.0832,0.0729 -0.98479,0.13633 -0.98479,0.0693 0,-0.0301 -0.0761,-0.036 -0.23517,-0.0182 -0.23194,0.0262 -0.2803,0.0454 -0.60326,0.24161 -0.17902,0.1088 -0.28571,0.12948 -0.25487,0.0496 0.0151,-0.039 -0.0642,-0.0486 -0.33303,-0.0402 -0.31195,0.009 -0.34416,0.005 -0.27838,-0.0474 0.0713,-0.0558 0.0708,-0.0596 -0.0104,-0.0853 -0.0945,-0.0301 -0.83595,0.0492 -0.9637,0.10312 -0.15525,0.0653 -0.36924,0.0952 -0.71574,0.0998 -0.27981,0.003 -0.38153,0.0228 -0.52142,0.0988 -0.15143,0.0821 -0.21977,0.0925 -0.53168,0.0805 -0.19685,-0.008 -0.37632,-0.002 -0.39881,0.0116 -0.0611,0.0377 -0.306743,0.0857 -0.306743,0.0599 0,-0.0123 0.0505,-0.0503 0.112503,-0.0842 0.10845,-0.0597 0.10347,-0.0612 -0.132923,-0.0408 -0.13496,0.0117 -0.3342,0.0305 -0.44274,0.0419 -0.24986,0.0264 -1.35303,0.30137 -1.36803,0.34108 -0.006,0.0163 -0.0614,0.0226 -0.122691,0.0138 -0.15237,-0.0218 -0.438408,0.078 -0.439744,0.1534 -5.88e-4,0.0336 -0.01706,0.0867 -0.03659,0.11784 -0.02904,0.0465 -0.0065,0.0514 0.123776,0.0276 0.08761,-0.0161 0.242104,-0.0541 0.34333,-0.0845 0.101229,-0.0302 0.247829,-0.066 0.325799,-0.0794 0.13265,-0.0227 0.13659,-0.0203 0.0614,0.0372 -0.0791,0.0605 -0.079,0.0618 0.0118,0.0874 0.0796,0.0224 0.0594,0.0414 -0.14845,0.13975 -0.276477,0.13075 -0.359692,0.21536 -0.17561,0.17854 0.14062,-0.0282 0.29383,0.0576 0.37541,0.21003 0.0469,0.0877 0.0743,0.0988 0.19051,0.0771 0.0746,-0.014 0.168,-0.0116 0.20753,0.006 0.0395,0.017 0.1179,0.0351 0.17413,0.0401 0.16381,0.0146 0.16614,0.0163 0.12602,0.0913 -0.0211,0.0394 -0.0482,0.1037 -0.0604,0.14315 -0.0122,0.0393 -0.0554,0.0716 -0.0962,0.0716 -0.0407,0 -0.10289,0.0322 -0.13818,0.0716 -0.0353,0.0394 -0.0992,0.0935 -0.14202,0.12028 -0.0763,0.0479 -0.0762,0.0488 9.2e-4,0.0511 0.0744,0.002 0.0737,0.008 -0.0124,0.0995 -0.0819,0.0871 -0.0841,0.0998 -0.022,0.12355 0.0643,0.0246 0.064,0.0322 -0.005,0.1074 -0.0448,0.0496 -0.0542,0.081 -0.0242,0.081 0.034,0 0.0408,0.0442 0.0222,0.14314 -0.0173,0.0918 -0.0116,0.14316 0.0173,0.14316 0.0243,0 0.20901,-0.14849 0.4105,-0.32996 0.39582,-0.3565 0.50149,-0.5316 0.3931,-0.65137 -0.0339,-0.0375 -0.0619,-0.1218 -0.0622,-0.18751 -3.5e-4,-0.0657 -0.0173,-0.14567 -0.0374,-0.17768 -0.0432,-0.0684 0.068,-0.24525 0.15557,-0.24726 0.0404,-7e-4 0.0441,0.0131 0.0136,0.05 -0.03,0.036 -0.0261,0.0738 0.0132,0.12742 0.054,0.0739 0.06,0.0736 0.19817,-0.0118 0.18217,-0.11262 0.335463,-0.0826 0.366643,0.0718 0.0138,0.0687 2.8e-4,0.12586 -0.0367,0.15448 -0.0323,0.0249 -0.0589,0.0572 -0.0589,0.0716 0,0.0427 0.31914,0.0298 0.334,-0.0136 0.009,-0.0249 0.189,-0.0287 0.48397,-0.009 l 0.47034,0.0296 0.0713,0.22264 c 0.0393,0.12245 0.0898,0.24117 0.11251,0.26379 0.0732,0.0732 0.0437,0.14751 -0.0587,0.14751 -0.0549,0 -0.11134,0.0188 -0.12553,0.0415 -0.0141,0.0228 -0.043,0.0309 -0.0641,0.0178 -0.0211,-0.0131 -0.0504,0.008 -0.0651,0.046 -0.025,0.0655 -0.0298,0.0655 -0.0775,3e-4 -0.047,-0.0643 -0.0621,-0.0647 -0.20759,-0.003 -0.0863,0.036 -0.20103,0.10613 -0.255,0.15563 l -0.0981,0.0901 0.048,-0.0921 c 0.0264,-0.0505 0.0358,-0.0921 0.021,-0.0921 -0.0148,0 -0.002,-0.0321 0.0285,-0.0716 0.0934,-0.12054 -0.10984,0.0612 -0.45085,0.40328 -0.17066,0.1712 -0.278083,0.30248 -0.238713,0.29174 0.126173,-0.0344 0.0809,0.11471 -0.0818,0.26923 -0.0844,0.0802 -0.13164,0.13263 -0.10509,0.11663 0.0265,-0.016 0.0598,-0.0104 0.074,0.0124 0.0141,0.0228 0.127523,-0.11031 0.252033,-0.29587 0.26933,-0.40136 0.3365,-0.4805 0.40784,-0.4805 0.0654,0 0.0357,0.0949 -0.0832,0.26584 -0.0963,0.13857 -0.1037,0.43453 -0.019,0.75664 0.0671,0.25492 0.10926,0.29831 0.26553,0.27297 0.16238,-0.0264 0.28399,0.0847 0.24713,0.22558 -0.0162,0.0622 0.005,0.12233 0.0628,0.18473 l 0.0869,0.0925 -0.19193,0.16892 c -0.18818,0.16564 -0.31189,0.34654 -0.31189,0.45608 0,0.0302 0.0667,0.0794 0.14819,0.1088 0.16507,0.0597 0.21808,0.0241 0.21928,-0.14721 3.4e-4,-0.0492 0.0191,-0.10103 0.0415,-0.11494 0.0225,-0.0138 0.0409,-0.0605 0.0409,-0.10347 0,-0.054 0.0412,-0.0889 0.13292,-0.11239 0.10196,-0.0263 0.13587,-0.0592 0.14561,-0.14161 0.0178,-0.15113 0.21833,-0.19482 0.37216,-0.0811 l 0.10972,0.0812 0.009,-0.12733 c 0.0156,-0.20419 0.0803,-0.22839 0.20756,-0.0775 0.0616,0.0731 0.13374,0.13291 0.16022,0.13291 0.0754,0 0.0563,0.12237 -0.0234,0.15053 -0.0394,0.0139 -0.11099,0.0607 -0.15926,0.10405 -0.0572,0.0514 -0.0972,0.0635 -0.11483,0.0348 -0.0483,-0.0781 -0.34955,-0.0417 -0.34955,0.0423 0,0.02 0.0264,0.0365 0.0586,0.0365 0.0322,0 0.0977,0.0549 0.14548,0.12207 l 0.087,0.12207 -0.22603,0.23151 c -0.12431,0.12732 -0.217,0.24611 -0.20597,0.26395 0.0116,0.0179 -0.0117,0.0503 -0.0504,0.072 -0.0577,0.0323 -0.0613,0.0506 -0.0192,0.10139 0.0425,0.0512 0.0375,0.0663 -0.0285,0.0871 -0.059,0.0188 -0.0798,0.0624 -0.0798,0.16703 0,0.0779 0.0121,0.14169 0.0268,0.14169 0.0328,0 0.13922,0.33017 0.11436,0.355 -0.009,0.009 0.0585,0.10196 0.15159,0.20511 0.14708,0.16275 0.36335,0.30156 0.49652,0.31864 0.0393,0.006 0.0951,0.0249 0.2977,0.10578 0.0512,0.0205 0.10915,0.0788 0.12852,0.12961 0.0349,0.0912 0.0356,0.0908 0.0647,-0.0202 0.044,-0.16921 0.22047,-0.15447 0.38428,0.0321 0.0699,0.0795 0.12693,0.15556 0.12693,0.16898 0,0.0612 -0.17597,0.29529 -0.34189,0.45485 -0.13698,0.13171 -0.19454,0.22608 -0.23125,0.37904 -0.0644,0.26844 -0.0316,0.37652 0.14273,0.47039 0.0793,0.0428 0.14412,0.0929 0.14412,0.11158 0,0.0188 0.0212,0.021 0.0472,0.006 0.0301,-0.0187 0.036,-0.0116 0.0163,0.0209 -0.0181,0.0293 4.6e-4,0.0737 0.0447,0.10717 0.11262,0.0853 0.14433,0.0724 0.12972,-0.0525 -0.009,-0.0786 0.006,-0.11251 0.0483,-0.11251 0.0642,0 0.20449,-0.12006 0.20449,-0.17496 0,-0.0492 0.15781,-0.17267 0.22064,-0.17267 0.0308,0 0.0663,-0.0387 0.0786,-0.086 0.0382,-0.14626 0.0935,-0.0533 0.15175,0.25521 0.045,0.23893 0.0458,0.29905 0.003,0.31314 -0.0287,0.009 -0.087,0.0981 -0.12922,0.19693 -0.0423,0.0987 -0.0958,0.1795 -0.11883,0.1795 -0.12781,0 -0.32912,0.28769 -0.32912,0.47034 0,0.0585 -0.0281,0.1606 -0.0624,0.22698 -0.0343,0.0664 -0.0482,0.12094 -0.0307,0.12129 0.0174,3e-4 0.005,0.0184 -0.0297,0.0402 -0.0337,0.0218 -0.043,0.0388 -0.0205,0.0377 0.0226,-10e-4 0.12831,-0.0692 0.23515,-0.15134 z m 5.73607,-9.74295 c 0.0138,-0.0226 0.0472,-0.0407 0.074,-0.0403 0.0293,3.2e-4 0.0242,0.0165 -0.0126,0.0403 -0.0785,0.0507 -0.0927,0.0507 -0.0613,0 z m -8.61943,9.13116 c 0.0511,-0.0342 0.0921,-0.10358 0.0921,-0.15607 0,-0.0742 0.0202,-0.0922 0.0937,-0.0845 0.0516,0.006 0.11598,0.0238 0.14315,0.0406 0.0835,0.0517 0.0546,-0.0481 -0.0393,-0.13558 -0.0556,-0.0518 -0.10532,-0.0689 -0.13292,-0.046 -0.0621,0.0515 -0.24365,-0.10254 -0.2135,-0.18114 0.0134,-0.0349 9.9e-4,-0.0614 -0.0287,-0.0614 -0.0765,0 -0.16753,0.38499 -0.1132,0.47842 0.034,0.0584 0.0443,0.0609 0.0495,0.0124 0.003,-0.0337 0.018,-0.003 0.032,0.0667 0.0242,0.12279 0.0292,0.12559 0.11731,0.0666 z m 5.91572,-0.0754 c 0.0137,-0.0354 0.0248,-0.16666 0.0248,-0.2913 0,-0.20102 -0.008,-0.22059 -0.0641,-0.17345 -0.16395,0.1361 -0.23836,0.45793 -0.11665,0.50463 0.0992,0.038 0.12889,0.0305 0.15587,-0.0399 z m -4.92415,-0.31793 c 1.3e-4,-0.0191 -0.044,-0.0876 -0.098,-0.15186 -0.054,-0.0643 -0.10706,-0.14055 -0.1176,-0.16951 -0.0126,-0.0345 -0.0321,-0.0386 -0.0563,-0.0118 -0.023,0.0255 0.021,0.10243 0.11736,0.20449 0.0849,0.09 0.1545,0.14785 0.15464,0.1286 z m -0.70023,-0.12236 c 0.0269,-0.0324 0.0437,-0.0839 0.0373,-0.11436 -0.007,-0.0305 0.0116,-0.0507 0.0394,-0.0452 0.03,0.007 0.0511,-0.032 0.0511,-0.0921 0,-0.1132 -0.0475,-0.13065 -0.13036,-0.0478 -0.03,0.03 -0.0748,0.0476 -0.0999,0.0393 -0.025,-0.009 -0.0565,0.0269 -0.0701,0.0784 -0.0335,0.12812 -0.0328,0.13459 0.0156,0.13459 0.0233,0 0.0571,0.0239 0.0752,0.0531 0.0264,0.0428 0.0423,0.0416 0.0817,-0.006 z m -0.22448,-0.21323 c 0.0139,-0.0365 0.0146,-0.0838 10e-4,-0.10532 -0.0133,-0.0214 -10e-5,-0.0679 0.0292,-0.10323 0.0455,-0.0548 0.0422,-0.0621 -0.0226,-0.0494 -0.10254,0.0202 -0.15095,0.16337 -0.0854,0.25293 0.0472,0.0645 0.0543,0.0649 0.0775,0.006 z m 0.1841,-0.23268 c -0.017,-0.10509 0.0538,-0.19718 0.1322,-0.17229 0.0425,0.0136 0.0769,0.006 0.0769,-0.0191 0,-0.024 0.0198,-0.0437 0.0442,-0.0437 0.0278,0 0.0346,0.0492 0.0185,0.13292 l -0.0257,0.13292 0.0784,-0.09 c 0.0524,-0.0601 0.0715,-0.1267 0.0575,-0.20036 -0.013,-0.0677 -0.006,-0.10057 0.0197,-0.085 0.0713,0.044 0.12513,-0.15036 0.10359,-0.37409 -0.0195,-0.20325 -0.0269,-0.21524 -0.12545,-0.20356 -0.0804,0.009 -0.11297,0.0445 -0.14035,0.15091 -0.0232,0.09 -0.0204,0.15371 0.008,0.18201 0.0543,0.0543 0.0572,0.19074 0.005,0.19074 -0.0218,0 -0.0299,0.0253 -0.018,0.0563 0.0156,0.0409 -0.0324,0.0648 -0.17511,0.0869 -0.15581,0.0241 -0.17971,0.0374 -0.11494,0.0635 0.045,0.0182 0.0589,0.0343 0.0306,0.0358 -0.0613,0.003 -0.0696,0.20737 -0.009,0.20737 0.0235,0 0.039,-0.023 0.0344,-0.0511 z m -0.34103,-2.84517 c 0.0214,-0.0154 0.0811,-0.088 0.13256,-0.1614 l 0.0936,-0.13343 -0.12411,-0.13241 c -0.0683,-0.0728 -0.12419,-0.14448 -0.12429,-0.15924 -1.1e-4,-0.0148 -0.0917,-0.0394 -0.203463,-0.0548 -0.11181,-0.0154 -0.19922,-0.0418 -0.19428,-0.059 0.006,-0.017 -0.0507,-0.0871 -0.12391,-0.15589 -0.14935,-0.14035 -0.17095,-0.28232 -0.0671,-0.44085 0.0652,-0.0998 0.0541,-0.22382 -0.0202,-0.22382 -0.0729,0 -0.29553,0.34519 -0.27465,0.42584 0.0116,0.043 0.005,0.1074 -0.0138,0.14312 -0.0188,0.0357 -0.047,0.14324 -0.0628,0.2389 -0.0247,0.14891 -0.0195,0.17033 0.0362,0.14899 0.0357,-0.0138 0.065,-0.006 0.065,0.0174 0,0.0238 0.0699,0.0373 0.16001,0.0308 0.10335,-0.008 0.15419,0.005 0.14358,0.0337 -0.009,0.0248 0.002,0.0728 0.0248,0.10649 0.0358,0.0532 0.0494,0.0506 0.10173,-0.018 0.0528,-0.0693 0.0606,-0.0706 0.0606,-0.009 0,0.038 0.0282,0.0692 0.0627,0.0692 0.0344,0 0.0735,0.0282 0.0867,0.0623 0.0184,0.0482 0.037,0.0517 0.0805,0.0155 0.0465,-0.0385 0.0565,-0.0206 0.0565,0.0988 0,0.15078 0.0367,0.20655 0.10416,0.1581 z m -0.226903,-0.45326 c -0.0116,-0.009 0.0163,-0.003 0.0613,0.0153 0.045,0.0177 0.11401,0.031 0.15337,0.0296 0.0821,-0.003 0.0968,0.0578 0.0205,0.0855 -0.0432,0.0156 -0.097,-0.0141 -0.235179,-0.13026 z m -0.12269,-0.045 c 0,-0.0225 0.008,-0.0409 0.0181,-0.0409 0.009,0 0.0294,0.0184 0.0432,0.0409 0.0139,0.0226 0.006,0.0409 -0.018,0.0409 -0.0239,0 -0.0433,-0.0184 -0.0433,-0.0409 z m 12.821783,-0.0409 c 0.0138,-0.0226 0.0195,-0.0409 0.0124,-0.0409 -0.008,0 -0.0748,-0.0177 -0.15064,-0.0394 -0.13513,-0.0388 -0.13636,-0.038 -0.0649,0.0409 0.0792,0.0875 0.16341,0.10393 0.20323,0.0395 z m -12.913433,-1.06282 c 0.0608,-0.0974 0.0673,-0.22015 0.009,-0.1846 -0.0642,0.0396 -0.0478,-0.11505 0.0227,-0.21584 0.079,-0.11286 0.046,-0.11483 -0.12757,-0.008 -0.0742,0.0459 -0.19432,0.0908 -0.26692,0.10011 -0.16527,0.021 -0.23012,0.10903 -0.11802,0.1602 0.0444,0.0204 0.0808,0.0613 0.0808,0.0909 0,0.0403 0.0251,0.0445 0.0988,0.0165 0.0543,-0.0207 0.13837,-0.0346 0.18662,-0.0309 0.0757,0.006 0.079,0.013 0.0244,0.0528 -0.0348,0.0254 -0.0513,0.0583 -0.0366,0.0729 0.0436,0.0436 0.0723,0.0311 0.12585,-0.0546 z m 1.604903,-1.8819 c 0.0368,-0.0238 0.0419,-0.0399 0.0126,-0.0403 -0.0268,-3.1e-4 -0.06,0.0177 -0.074,0.0403 -0.0314,0.0507 -0.0173,0.0507 0.0613,0 z m 2.12673,-2.45394 0.1022,-0.0327 -0.1022,-0.003 c -0.0562,-0.002 -0.12985,0.0144 -0.16359,0.0362 -0.0546,0.0353 -0.0546,0.0393 0,0.0361 0.0337,-0.002 0.1073,-0.0182 0.16359,-0.0361 z m 5.02034,-0.66806 c 0.26628,-0.0432 0.29575,-0.0657 0.1957,-0.14875 -0.067,-0.0556 -0.38996,-0.0197 -0.38996,0.0433 0,0.0205 -0.0621,0.0373 -0.13815,0.0373 -0.0759,0 -0.16104,0.0276 -0.18904,0.0613 -0.0439,0.0528 -0.029,0.0605 0.10741,0.0548 0.087,-0.003 0.2734,-0.0251 0.41398,-0.0481 z"
           id="path2"
           sodipodi:nodetypes="ssssssscscsssssssccsssssssssssssssssssssssssssssssssssssssssssssssscssscscssssssssscsssssssssssssscsssssssssscscscsssssssscsssssssscssscssscsssssssssssssssssssssscsssssccsssscsssscscssscccssscssssscssssscssssssssssssssscssssssssssscssssssssssssssssssssssssssscssssccsscsssssssssssssssssssssssssssssssscssssssssscssssssssssssssssssssssssssccsssscscsscssssssssssssssscsssscsssscssssssssscssssssssssssssssssscscssssssssssscssccscsssscsssssssssssssssssssssssssssssssssssssssscssscsssscsssssscsscscsscssssssssscsssssssscccsssccssssssscssssssssssscssssscssccsssscsssssss" /></g></g></g></svg>
