<?xml version="1.0" encoding="UTF-8" standalone="no"?>
<!-- Created with Inkscape (http://www.inkscape.org/) -->

<svg
   width="210mm"
   height="297mm"
   viewBox="0 0 210 297"
   version="1.1"
   id="svg1"
   xml:space="preserve"
   inkscape:version="1.4 (e7c3feb1, 2024-10-09)"
   sodipodi:docname="SouthAmerica.svg"
   xmlns:inkscape="http://www.inkscape.org/namespaces/inkscape"
   xmlns:sodipodi="http://sodipodi.sourceforge.net/DTD/sodipodi-0.dtd"
   xmlns:xlink="http://www.w3.org/1999/xlink"
   xmlns="http://www.w3.org/2000/svg"
   xmlns:svg="http://www.w3.org/2000/svg"><sodipodi:namedview
     id="namedview1"
     pagecolor="#ffffff"
     bordercolor="#000000"
     borderopacity="0.25"
     inkscape:showpageshadow="2"
     inkscape:pageopacity="0.0"
     inkscape:pagecheckerboard="0"
     inkscape:deskcolor="#d1d1d1"
     inkscape:document-units="mm"
     inkscape:zoom="1.9715397"
     inkscape:cx="400.70205"
     inkscape:cy="443.56196"
     inkscape:window-width="1472"
     inkscape:window-height="826"
     inkscape:window-x="0"
     inkscape:window-y="37"
     inkscape:window-maximized="0"
     inkscape:current-layer="layer1" /><defs
     id="defs1"><inkscape:perspective
       sodipodi:type="inkscape:persp3d"
       inkscape:vp_x="0 : 512 : 1"
       inkscape:vp_y="0 : 1000 : 0"
       inkscape:vp_z="958.27698 : 512 : 1"
       inkscape:persp3d-origin="479.13849 : 341.33333 : 1"
       id="perspective2900" /><inkscape:perspective
       sodipodi:type="inkscape:persp3d"
       inkscape:vp_x="0 : 512 : 1"
       inkscape:vp_y="0 : 1000 : 0"
       inkscape:vp_z="958.27698 : 512 : 1"
       inkscape:persp3d-origin="479.13849 : 341.33333 : 1"
       id="perspective2900-0" /></defs><g
     inkscape:label="Ebene 1"
     inkscape:groupmode="layer"
     id="layer1"
     style="display:inline"><g
       id="g2"
       transform="matrix(-1,0,0,1,204.99227,-33.947876)"><circle
         style="display:inline;fill:#000000;fill-opacity:1;stroke:#ff0000;stroke-width:0.122805;stroke-opacity:1"
         id="path2-9"
         cx="87.85405"
         cy="148.5"
         r="9.9385977"
         transform="matrix(-1,0,0,1,192.85405,0)" /><path
         id="path2-9-8"
         style="display:inline;fill:#ffffff;fill-opacity:1;stroke:none;stroke-width:0.122805;stroke-opacity:1"
         d="m 87.854313,138.56159 a 9.9385977,9.9385977 0 0 1 9.938409,9.93841 9.9385977,9.9385977 0 0 1 -9.938409,9.93841 9.9385977,9.9385977 0 0 1 -9.938936,-9.93841 9.9385977,9.9385977 0 0 1 9.938936,-9.93841 z m 0,0.88367 a 9.0549355,9.0549355 0 0 0 -9.055266,9.05474 9.0549355,9.0549355 0 0 0 9.055266,9.05474 9.0549355,9.0549355 0 0 0 9.054742,-9.05474 9.0549355,9.0549355 0 0 0 -9.054742,-9.05474 z"
         transform="matrix(-1,0,0,1,192.85405,0)" /><circle
         style="display:inline;overflow:visible;fill:none;fill-opacity:1;stroke:none;stroke-width:0.046301;stroke-dasharray:none"
         id="path1"
         cx="-80.068863"
         cy="-163.29796"
         r="6.6190228"
         transform="rotate(170.8568)" /><text
         xml:space="preserve"
         style="font-weight:900;font-size:2.9986px;line-height:1;font-family:'Arial Black';-inkscape-font-specification:'Arial Black,  Heavy';text-align:start;letter-spacing:-0.0899583px;word-spacing:0.370417px;writing-mode:lr-tb;direction:ltr;text-anchor:start;display:inline;overflow:visible;fill:#ffffff;fill-opacity:1;stroke:none;stroke-width:0.04;stroke-dasharray:none"
         id="text1"><textPath
           xlink:href="#path1"
           id="textPath1"
           style="stroke-width:0.04">South America<tspan
   id="tspan1"
   style="stroke-width:0.04" /></textPath></text><text
         xml:space="preserve"
         style="font-weight:900;font-size:2.9986px;line-height:1;font-family:'Arial Black';-inkscape-font-specification:'Arial Black,  Heavy';text-align:start;letter-spacing:-0.0899583px;word-spacing:0.370417px;writing-mode:lr-tb;direction:ltr;text-anchor:start;display:inline;overflow:visible;fill:#ffffff;fill-opacity:1;stroke:none;stroke-width:0.04;stroke-dasharray:none"
         x="98.365166"
         y="153.0891"
         id="text2"><tspan
           sodipodi:role="line"
           id="tspan2"
           x="98.365166"
           y="153.0891"
           style="stroke-width:0.04">XX</tspan></text><path
         fill="none"
         stroke="#000000"
         d="m 189.62322,244.29924 c 0.44436,0.15964 0.89956,0.10468 1.21619,0.64239 0.14523,0.0712 0.32528,0.11803 0.48107,0.18502 0.2571,-0.15306 0.34346,-0.41708 0.2762,-0.72032 0.87455,-0.28295 1.95811,0.24011 1.72965,0.91096 0.39964,1.13109 -0.0834,4.55448 -1.75103,4.25209 -0.11907,0.92287 -0.71733,1.60311 -0.6583,2.57397 0.17799,-0.0344 0.48051,0.0807 0.63152,0.0513 -0.14043,0.40174 -0.86029,0.72615 -0.97836,1.10322 -0.10299,0.32922 0.29149,1.16356 0.15919,1.75266 1.70311,-0.0467 1.27954,2.60405 2.22107,3.30547 0.0422,0.50027 0.50748,0.62797 0.65279,1.05469 0.18017,0.52894 -0.24451,1.12479 0.56444,1.19252 -0.33893,1.51807 4.1182,1.86798 4.1493,3.81342 1.05413,0.25716 -0.0297,2.96664 0.11964,3.55532 0.0831,-0.004 0.16075,0.015 0.23306,0.055 0.0511,0.0284 0.0163,0.54366 0.0171,0.61748 0.002,0.21162 -2e-4,0.42326 -0.01,0.63463 -0.0166,0.40826 -0.0568,0.81618 -0.13348,1.21781 -0.0612,0.31907 -0.11951,0.81606 -0.32605,1.07594 -0.09,0.11342 -0.17161,0.15507 -0.22238,0.30347 -0.0418,0.1216 -0.0566,0.25041 -0.0802,0.37594 -0.0503,0.26308 -0.15618,0.47029 -0.18738,0.75071 -0.0291,0.26165 -0.0647,0.5412 -0.14388,0.79218 -0.0408,0.12968 -0.0883,0.21144 -0.0904,0.36594 -9.1e-4,0.15326 0.009,0.30858 0,0.4615 -0.002,0.0567 -9.1e-4,0.0948 -0.0215,0.1364 0.0897,1.31223 -1.12518,2.22152 -1.31668,3.54343 -0.20177,1.39346 -0.33995,2.84499 -0.64639,4.19452 0.2079,0.012 0.44146,-0.0731 0.62497,-0.18735 -0.0572,-0.53121 0.0139,-1.35404 0.75136,-1.07542 0.0274,0.46955 -0.3892,0.87632 -0.54694,1.29798 -0.18822,0.5031 -0.0361,1.17932 -0.49924,1.56625 0.007,-0.14513 -0.0941,-0.44231 -0.0771,-0.63603 0.0194,-0.0132 -0.27018,-0.009 -0.25343,0 0.028,0.14604 -0.0275,0.36049 -0.0231,0.51263 -0.32209,-0.0418 -0.87137,0.0812 -0.53626,0.48481 0.13611,0.16396 1.00487,0.1486 1.18904,0.14699 -0.002,0.59679 -0.36641,1.27375 -1.10022,1.10129 -0.18128,0.58205 -0.21699,1.12279 -0.1827,1.75676 0.20723,-0.004 0.38702,0.15551 0.62713,0.11909 -0.11738,0.26176 -0.14588,0.48043 -0.45165,0.62358 0.27533,-0.012 0.45754,0.12543 0.73046,0.12372 -0.0502,0.12795 -0.007,0.39993 -0.0721,0.53372 0.15824,-0.0253 0.38177,0.0589 0.54019,0.0305 -0.0681,0.1354 -0.0723,0.4867 -0.16057,0.62536 0.37147,0.0457 0.66386,0.11195 1.00438,0.21331 -0.16516,0.82573 1.34879,1.04814 1.96307,1.10334 0.14626,-0.2996 0.23424,-0.26749 0.46826,-0.4528 -0.12783,1.51556 2.88274,1.09218 3.47531,0.46215 -0.52557,-0.26588 -2.07257,-0.50402 -2.25209,-1.01497 -0.93123,-0.18551 -0.96344,-0.94332 -1.3113,-1.58748 -0.0707,-0.0301 -0.21071,-0.066 -0.26129,-0.0818 0.54262,-0.79949 1.31272,-1.14951 1.91087,-1.88136 0.24379,-0.29829 0.74217,-0.85713 0.52266,-1.33689 -0.17227,-0.37642 -0.89035,-0.40125 -1.24093,-0.6509 0.27385,-0.26261 0.56398,-0.41202 0.94388,-0.48942 0.19328,-0.42655 0.66966,-0.40022 0.967,-0.80382 0.24284,-0.32967 0.39489,-0.85356 0.43865,-1.31618 -0.53805,-0.14483 -0.39836,-0.95006 -0.32377,-1.41219 1.33199,0.68641 2.02517,0.83865 2.12908,-1.03052 0.29444,0.0107 0.5129,-0.12003 0.817,-0.11752 -0.0839,-0.64547 2.77588,-1.19026 3.46596,-1.12356 -0.005,-0.014 -0.002,-0.22878 5.2e-4,-0.25124 -0.79895,-0.32426 -0.80064,-1.23514 -1.31065,-1.78039 -0.12652,-0.0262 -0.32247,-0.096 -0.38429,-0.10931 0.75726,-0.28488 1.42156,-0.1066 2.26876,-0.0469 -0.15252,0.0483 0.48294,-0.19298 0.30448,-0.18737 0.14221,-0.82405 1.50325,-0.20207 2.01411,-0.82469 0.61205,-0.74573 -0.13443,-1.26878 0.86666,-1.77505 0.099,0.22053 0.44221,-0.28001 0.60897,-0.49184 0.38982,-0.63105 0.0858,-0.71246 0.87921,-0.7134 0.38505,-0.58058 0.20369,-1.55236 0.57778,-2.21678 0.41773,-0.74188 0.78075,-0.92606 1.56695,-1.18641 1.32358,-0.43844 2.61463,-0.78189 3.77044,-1.73868 0.38888,-0.32201 1.17132,-0.96591 1.28789,-1.4243 0.19644,-0.77263 -0.24051,-1.71189 -0.16594,-2.60172 0.0538,-0.6406 0.16807,-1.53256 0.53663,-2.08203 0.39769,-0.59292 1.12448,-0.77881 1.54758,-1.36113 1.01366,-1.39534 1.18687,-2.84323 1.08485,-4.59993 -1.6597,-0.95295 -3.32428,-2.46727 -5.23106,-2.62569 0.0664,0.051 0.15458,0.12174 0.23618,0.18053 -0.56434,-0.0138 -1.47045,-0.20366 -1.82533,0.28828 -0.66461,-0.60371 -1.84878,-1.66451 -2.79734,-1.49756 -0.0406,0.40782 -0.36323,0.76607 -0.73009,0.88597 0.21726,-0.39646 0.62686,-0.82853 0.7003,-1.26211 -0.81168,-0.0436 -1.70384,-0.11341 -2.40713,0.25304 0.22747,-0.18596 0.81816,-0.5814 0.96898,-0.89254 0.30062,-0.62064 0.0171,-0.77513 -0.23355,-1.36329 -0.4616,-1.0827 -0.7476,-1.65783 -1.85591,-2.2503 -1.03847,-0.55508 -2.09113,-0.45587 -3.18527,-0.81749 -0.82842,-0.27374 -1.6433,-1.41782 -2.56403,-1.59066 0.33531,-0.18485 0.18025,-0.22101 0.28572,-0.55294 -0.57579,-0.0194 -1.58767,-0.17399 -1.39326,-0.94836 -0.0417,-0.1224 -0.2664,0.13933 -0.24352,0.17362 -0.53392,0.0463 -0.57258,-0.21492 -1.07087,-0.28633 -0.20546,0.55688 -1.15028,0.46299 -1.68868,0.39142 -0.73681,-0.0979 -0.71471,-0.39778 -1.28357,-0.68182 -0.56818,-0.2837 -1.10306,-0.3445 -1.62128,-0.073 -0.71952,0.37708 -0.52305,0.62375 -0.57112,1.4896 -0.16001,0.0517 -0.47022,0.0505 -0.62927,0.002 -0.13828,-0.62806 0.30212,-0.34259 0.46091,-0.72812 0.18036,-0.43769 -0.26512,-0.90817 0.42889,-0.95931 0.0317,-0.74715 -1.48378,-0.49514 -1.57361,0.28039 -1.01535,0.24788 -1.31918,0.52997 -1.9462,1.25987 -0.39057,0.45474 -1.6036,1.51094 -1.98826,0.3574 -0.44969,-0.1634 -0.96768,-0.4211 -1.48556,-0.29642 -0.62169,0.14969 -0.41306,0.75715 -1.14427,0.4228 -0.47404,-0.21631 -1.33124,-1.76182 -1.30381,-2.18584 -0.40893,-0.0132 -0.8647,-0.0545 -0.59448,1.04973 1.07555,1.50167 0.93474,1.40245 1.66933,1.66635 z"
         id="path4"
         sodipodi:nodetypes="sccccccccccccccscccccccscscccccsccccccccccccccccccccccccccccccccccccccccccccccccccccccccccccccccccccccccccccccs"
         style="display:inline;overflow:visible;fill:#ffffff;fill-opacity:1;stroke:none;stroke-width:0.0936842"
         transform="matrix(0.26458333,0,0,0.26458333,51.735179,79.454516)" /></g></g></svg>
