<?xml version="1.0" encoding="UTF-8" standalone="no"?>
<!-- Created with Inkscape (http://www.inkscape.org/) -->

<svg
   width="210mm"
   height="297mm"
   viewBox="0 0 210 297"
   version="1.1"
   id="svg1"
   xml:space="preserve"
   inkscape:version="1.4 (e7c3feb1, 2024-10-09)"
   sodipodi:docname="SouthAmerica.svg"
   xmlns:inkscape="http://www.inkscape.org/namespaces/inkscape"
   xmlns:sodipodi="http://sodipodi.sourceforge.net/DTD/sodipodi-0.dtd"
   xmlns="http://www.w3.org/2000/svg"
   xmlns:svg="http://www.w3.org/2000/svg"><sodipodi:namedview
     id="namedview1"
     pagecolor="#ffffff"
     bordercolor="#000000"
     borderopacity="0.25"
     inkscape:showpageshadow="2"
     inkscape:pageopacity="0.0"
     inkscape:pagecheckerboard="0"
     inkscape:deskcolor="#d1d1d1"
     inkscape:document-units="mm"
     inkscape:zoom="4.6177494"
     inkscape:cx="352.66098"
     inkscape:cy="414.37935"
     inkscape:window-width="1472"
     inkscape:window-height="826"
     inkscape:window-x="0"
     inkscape:window-y="37"
     inkscape:window-maximized="0"
     inkscape:current-layer="layer1" /><defs
     id="defs1" /><g
     inkscape:label="Ebene 1"
     inkscape:groupmode="layer"
     id="layer1"
     style="display:inline"><path
       id="path2"
       style="display:inline;fill:#000000;fill-opacity:1;stroke:none;stroke-width:0.122805;stroke-opacity:1"
       d="m 96.426861,100.98143 a 9.9385977,9.9385977 0 0 1 9.938929,9.93893 9.9385977,9.9385977 0 0 1 -9.938929,9.93841 9.9385977,9.9385977 0 0 1 -9.938411,-9.93841 9.9385977,9.9385977 0 0 1 9.938411,-9.93893 z m -0.02067,0.30696 -0.722436,0.0284 -0.722437,2.17661 0.693498,-0.0274 0.09147,-0.35812 0.754993,-0.0295 0.117822,0.34985 0.677478,-0.0263 z m -0.332279,0.56999 0.266133,0.76171 -0.472839,0.0186 z m -1.808675,0.19276 -0.515731,0.20825 0.08475,0.21032 c -0.109659,-0.0578 -0.209616,-0.0904 -0.299723,-0.0972 -0.09101,-0.006 -0.189812,0.0122 -0.296623,0.0553 -0.114957,0.0464 -0.197503,0.10328 -0.248047,0.17105 -0.05054,0.0678 -0.08092,0.15083 -0.09095,0.24856 -0.124891,-0.0591 -0.229681,-0.091 -0.314711,-0.0956 -0.0854,-0.006 -0.18077,0.0129 -0.28577,0.0553 -0.15478,0.0625 -0.25681,0.15734 -0.30644,0.28474 -0.05,0.12649 -0.03549,0.28714 0.04341,0.48266 l 0.36535,0.90588 0.553971,-0.22375 -0.331761,-0.82114 c -0.0263,-0.0652 -0.03317,-0.11881 -0.02067,-0.16072 0.017,-0.0648 0.0533,-0.10845 0.10852,-0.13074 0.0652,-0.0263 0.12721,-0.0241 0.186034,0.007 0.05882,0.031 0.109401,0.0985 0.151412,0.20257 l 0.30024,0.74414 0.553971,-0.22376 -0.32091,-0.79426 c -0.02557,-0.0634 -0.03894,-0.10778 -0.04082,-0.13333 -0.0028,-0.041 0.0056,-0.0782 0.02584,-0.11162 0.01983,-0.0343 0.04945,-0.0587 0.08837,-0.0744 0.06336,-0.0256 0.124907,-0.023 0.185002,0.009 0.06009,0.0315 0.112376,0.10235 0.156579,0.21187 l 0.29714,0.73588 0.553454,-0.22376 z m 6.202724,0.13022 -0.31523,0.72554 c -0.0409,-0.10928 -0.0908,-0.19647 -0.14986,-0.26149 -0.05902,-0.065 -0.138475,-0.11973 -0.238745,-0.16329 -0.148615,-0.0646 -0.28546,-0.07 -0.409794,-0.0165 -0.12523,0.0531 -0.228252,0.17307 -0.309542,0.36018 l -0.393774,0.90693 0.54932,0.23822 0.340548,-0.78393 c 0.03889,-0.0895 0.0827,-0.14563 0.131775,-0.16795 0.04946,-0.0232 0.104347,-0.0218 0.164331,0.004 0.06625,0.0288 0.109273,0.0772 0.128674,0.14521 0.0194,0.068 5.86e-4,0.16732 -0.05581,0.29714 l -0.297139,0.68471 0.546217,0.2372 0.85525,-1.96836 z m 1.36632,0.77256 -0.34416,0.48163 -0.26665,-0.19121 -0.2527,0.35399 0.26665,0.19068 -0.32091,0.44907 c -0.0386,0.054 -0.0692,0.086 -0.092,0.0961 -0.0352,0.0157 -0.073,0.009 -0.11265,-0.0191 -0.0357,-0.0255 -0.0781,-0.0713 -0.12764,-0.13798 l -0.27492,0.30903 c 0.10118,0.11192 0.20345,0.20521 0.30748,0.27957 0.1207,0.0863 0.22092,0.13428 0.30024,0.14418 0.0793,0.01 0.15525,-0.007 0.22789,-0.0496 0.0724,-0.0442 0.15889,-0.13719 0.25993,-0.27854 l 0.31833,-0.44545 0.1788,0.12764 0.25321,-0.35347 -0.1788,-0.12764 0.16588,-0.23254 z m -10.63966,0.80615 c -0.21637,-0.0131 -0.42892,0.0696 -0.63769,0.24753 -0.16938,0.14436 -0.28099,0.28375 -0.33538,0.41858 -0.0544,0.13484 -0.0658,0.27292 -0.0341,0.41393 0.0317,0.14101 0.11405,0.28944 0.24701,0.44545 l 0.04341,0.0512 0.90951,-0.77463 c 0.0539,0.0798 0.08038,0.15066 0.07958,0.21291 -1.5e-4,0.0886 -0.0354,0.1631 -0.10594,0.22324 -0.0446,0.038 -0.0964,0.0625 -0.15555,0.0744 -0.0365,0.007 -0.0845,0.004 -0.14314,-0.007 l -0.41134,0.42219 c 0.16965,0.0606 0.3247,0.0758 0.4656,0.0455 0.14027,-0.031 0.30058,-0.12365 0.48111,-0.2775 0.15676,-0.13359 0.26165,-0.26042 0.31419,-0.38086 0.0519,-0.12119 0.06674,-0.25503 0.04444,-0.40152 -0.0236,-0.1466 -0.0907,-0.28496 -0.20154,-0.41497 -0.15764,-0.18499 -0.34454,-0.28442 -0.56017,-0.29817 z m -0.24856,0.46303 c 0.0217,0 0.04366,0.003 0.06666,0.008 0.0579,0.0122 0.12053,0.0505 0.1881,0.11472 l -0.44648,0.38085 c -0.0658,-0.0953 -0.0957,-0.17826 -0.0894,-0.24908 0.006,-0.0702 0.0399,-0.13182 0.10232,-0.185 0.054,-0.0461 0.11363,-0.0687 0.1788,-0.0687 z m 11.60394,0.005 -1.14877,1.048 0.37466,0.41135 0.18603,-0.17002 c -0.0205,0.13103 -0.018,0.24304 0.007,0.33538 0.0241,0.0916 0.0773,0.1825 0.1602,0.27337 0.1105,0.12116 0.2337,0.18361 0.36897,0.18707 0.13533,0.002 0.27818,-0.0656 0.42891,-0.20309 l 0.73122,-0.66714 -0.40359,-0.44235 -0.63149,0.57619 c -0.0721,0.0658 -0.13554,0.0993 -0.19016,0.10025 -0.0546,9.5e-4 -0.10424,-0.023 -0.14832,-0.0713 -0.048,-0.0526 -0.067,-0.11396 -0.0568,-0.18397 0.009,-0.0707 0.0665,-0.1537 0.17105,-0.24908 l 0.55294,-0.50436 z m -4.369241,0.65474 c -0.0832,0.008 -0.147874,0.051 -0.144177,0.1385 0.216688,0.016 0.07805,0.16254 0.134358,0.2992 0.04958,0.12037 0.186835,0.0313 0.143661,0.22738 -0.04967,0.015 -0.14641,0.0156 -0.19637,-5.2e-4 -0.01501,-0.27033 0.04636,-0.34735 -0.178284,-0.46509 -0.161815,-0.0848 -0.329024,-0.0658 -0.506429,0.0227 -0.17761,0.0887 -0.170436,0.18234 -0.400493,0.21291 -0.168103,0.0224 -0.463469,0.0514 -0.527616,-0.12247 -0.147737,0.0212 -0.252825,0.0994 -0.40566,0.0951 3.42e-4,-0.0189 8.85e-4,-0.0379 -0.0047,-0.0599 0.01299,-0.0382 -0.01147,0.0503 -0.0186,0.061 0.0084,7.3e-4 0.01514,-0.001 0.02325,-0.001 -0.0034,0.18879 -0.276389,0.23063 -0.439766,0.23616 0.03294,0.10364 -0.01529,0.11541 0.0894,0.17312 -0.287475,0.054 -0.541805,0.41114 -0.800468,0.49661 -0.341618,0.11291 -0.670528,0.0815 -0.994771,0.25476 -0.346035,0.18498 -0.435175,0.36475 -0.579293,0.7028 -0.07828,0.18364 -0.166729,0.23203 -0.07286,0.42582 0.04709,0.0971 0.231287,0.22047 0.302307,0.27853 -0.219584,-0.11443 -0.497949,-0.0926 -0.751374,-0.0791 0.02293,0.13537 0.150758,0.2705 0.21859,0.39429 -0.114545,-0.0374 -0.21523,-0.14966 -0.22789,-0.27699 -0.29617,-0.0521 -0.66583,0.27918 -0.87333,0.46767 -0.11081,-0.15359 -0.39379,-0.0942 -0.57,-0.0899 0.02548,-0.0183 0.05322,-0.0404 0.0739,-0.0563 -0.59534,0.0495 -1.11529,0.52205 -1.63349,0.81959 -0.03185,0.54848 0.02251,1.00094 0.339,1.4366 0.13209,0.18183 0.359,0.23966 0.48317,0.42478 0.11507,0.17156 0.15064,0.45008 0.16743,0.65009 0.02329,0.27783 -0.11301,0.57113 -0.05167,0.81236 0.03638,0.14312 0.28062,0.34388 0.40204,0.44441 0.36086,0.29874 0.76394,0.40623 1.17719,0.54312 0.24547,0.0813 0.35895,0.13889 0.48937,0.37052 0.116806,0.20745 0.06014,0.51068 0.180355,0.69195 0.247724,2.9e-4 0.15269,0.0257 0.274402,0.22273 0.05207,0.0661 0.159281,0.22233 0.190169,0.15348 0.312573,0.15807 0.07917,0.32165 0.270268,0.55448 0.159504,0.1944 0.5845,6e-5 0.628902,0.25735 -0.05572,-0.002 0.142705,0.0735 0.09508,0.0584 0.264513,-0.0187 0.472051,-0.074 0.708484,0.015 -0.01931,0.004 -0.0804,0.0259 -0.11989,0.0341 -0.15924,0.17024 -0.159827,0.45428 -0.409277,0.55552 9.07e-4,0.007 0.0017,0.0742 0,0.0786 0.21546,-0.0208 1.108284,0.14935 1.082105,0.35088 0.09495,-7.9e-4 0.163346,0.0401 0.255281,0.0367 0.03244,0.58361 0.248673,0.53627 0.664559,0.32195 0.02328,0.14429 0.06722,0.39557 -0.100769,0.4408 0.01366,0.14444 0.06113,0.30789 0.136943,0.41082 0.09284,0.12602 0.241446,0.11797 0.30179,0.25115 0.118611,0.0242 0.209056,0.0705 0.294556,0.15245 -0.109456,0.078 -0.333265,0.0861 -0.387057,0.2036 -0.06853,0.14979 0.08667,0.3239 0.162781,0.41703 0.186765,0.22851 0.427443,0.33794 0.596863,0.58756 -0.0158,0.005 -0.05957,0.0159 -0.08165,0.0253 -0.108608,0.20113 -0.118526,0.43818 -0.409277,0.4961 -0.05604,0.15953 -0.539221,0.23376 -0.703317,0.31677 0.185011,0.19671 1.125133,0.32901 1.085205,-0.14417 0.07307,0.0579 0.100584,0.0475 0.146245,0.14107 0.191796,-0.0172 0.664451,-0.0863 0.612882,-0.34416 0.106326,-0.0317 0.197697,-0.0524 0.313676,-0.0667 -0.02752,-0.0433 -0.02886,-0.15307 -0.05013,-0.19534 0.04946,0.009 0.119061,-0.0177 0.168465,-0.01 -0.02001,-0.0418 -0.0066,-0.12644 -0.02222,-0.1664 0.08521,5.3e-4 0.141926,-0.0424 0.227893,-0.0388 -0.09547,-0.0447 -0.104425,-0.11309 -0.141076,-0.19482 0.07497,0.0114 0.131151,-0.0378 0.195853,-0.0367 0.01071,-0.19793 -2.44e-4,-0.36707 -0.05684,-0.5488 -0.22912,0.0539 -0.342653,-0.15732 -0.343648,-0.34365 0.05751,5e-4 0.328536,0.005 0.371037,-0.046 0.104629,-0.12607 -0.06687,-0.16443 -0.167432,-0.15141 0.0013,-0.0475 -0.01598,-0.1146 -0.0072,-0.1602 0.0052,-0.003 -0.08515,-0.004 -0.07906,0 0.0053,0.0605 -0.02605,0.15365 -0.02377,0.19896 -0.144644,-0.12081 -0.0973,-0.3323 -0.156062,-0.48938 -0.04926,-0.13166 -0.179561,-0.25854 -0.171049,-0.40514 0.230261,-0.087 0.252483,0.17004 0.234611,0.33589 0.0573,0.0357 0.130429,0.062 0.195336,0.0584 -0.09568,-0.42136 -0.139049,-0.87441 -0.202054,-1.30948 -0.05979,-0.41273 -0.438655,-0.69692 -0.411862,-1.1095 l -0.0057,-0.0398 c -0.0028,-0.0477 5.56e-4,-0.0958 0,-0.14366 -5.56e-4,-0.0482 -0.01512,-0.0742 -0.0279,-0.11472 -0.02475,-0.0784 -0.03586,-0.16532 -0.04496,-0.24701 -0.0097,-0.0875 -0.0432,-0.15248 -0.05891,-0.23461 -0.0075,-0.0392 -0.01179,-0.0793 -0.02481,-0.11731 -0.01585,-0.0463 -0.04165,-0.0592 -0.06976,-0.0946 -0.0645,-0.0811 -0.08218,-0.23627 -0.101286,-0.33589 -0.02401,-0.1254 -0.03665,-0.25287 -0.04186,-0.38034 -0.0027,-0.066 -0.0037,-0.13236 -0.0031,-0.19844 2.34e-4,-0.023 -0.01029,-0.18386 0.0057,-0.19275 0.02258,-0.0126 0.04692,-0.0182 0.07286,-0.0171 0.04666,-0.18381 -0.291921,-1.02971 0.03721,-1.11001 0.0097,-0.60741 1.401357,-0.71664 1.295528,-1.19062 0.25258,-0.0211 0.119968,-0.20744 0.176217,-0.37259 0.04537,-0.13323 0.190413,-0.17298 0.203605,-0.32918 0.293969,-0.219 0.16175,-1.04657 0.693501,-1.03198 -0.0413,-0.18392 0.0818,-0.44446 0.0496,-0.54725 -0.0369,-0.11773 -0.26157,-0.21874 -0.30541,-0.34416 0.0472,0.009 0.14183,-0.0268 0.1974,-0.016 0.0184,-0.30313 -0.16846,-0.51594 -0.20567,-0.80409 -0.520661,0.0944 -0.653994,-0.96303 -0.537951,-1.32188 -0.08006,-0.21514 0.258179,-0.37824 0.531231,-0.28991 -0.021,0.0947 0.006,0.177 0.0863,0.2248 0.0486,-0.0209 0.10504,-0.0357 0.15038,-0.0579 0.0989,-0.16787 0.24109,-0.15066 0.37982,-0.20051 0.22936,-0.0824 0.18509,-0.0515 0.5209,-0.52038 0.0844,-0.34478 -0.0578,-0.33158 -0.18552,-0.32763 0.009,0.13239 -0.2592,0.61511 -0.40721,0.68265 -0.2283,0.10439 -0.16298,-0.0855 -0.35708,-0.13229 -0.1617,-0.0389 -0.323654,0.0415 -0.464057,0.0925 -0.120103,0.36016 -0.498688,0.0304 -0.620634,-0.11162 -0.195774,-0.22789 -0.290696,-0.31586 -0.607714,-0.39326 -0.01753,-0.15134 -0.208595,-0.23844 -0.347266,-0.22583 z m -8.629449,0.15917 -0.33951,0.44235 0.20205,0.15503 c -0.12019,-0.0245 -0.21361,-0.0269 -0.2806,-0.007 -0.0684,0.0202 -0.12823,0.0636 -0.17932,0.13023 -0.0535,0.0697 -0.0904,0.16239 -0.11059,0.27853 l 0.44907,0.11214 c 0.0195,-0.0736 0.04167,-0.12663 0.06667,-0.15916 0.0475,-0.062 0.11032,-0.0904 0.18758,-0.0853 0.10946,0.006 0.26294,0.0857 0.46044,0.2372 l 0.41341,0.31729 0.36432,-0.47542 z m -1.37614,0.91519 -0.29146,0.51986 0.35399,0.19844 0.29093,-0.51987 z m 15.57217,0.22841 c -0.14119,-0.007 -0.28248,0.027 -0.42374,0.10128 -0.21169,0.11126 -0.34869,0.27259 -0.41031,0.48473 -0.0612,0.21082 -0.0265,0.44036 0.10387,0.68833 0.11626,0.22119 0.26654,0.37055 0.45061,0.44803 0.22722,0.0945 0.45352,0.0824 0.67903,-0.0362 0.20996,-0.11036 0.34553,-0.27173 0.4067,-0.48473 0.062,-0.21346 0.0296,-0.44107 -0.0972,-0.68213 -0.14487,-0.27563 -0.33405,-0.44185 -0.56792,-0.49867 -0.0471,-0.0114 -0.094,-0.0183 -0.14108,-0.0207 z m -15.05644,0.061 -0.29094,0.51987 1.35651,0.75964 0.29094,-0.51986 z m 15.14843,0.49817 v 5.1e-4 c 0.0232,-3.9e-4 0.0452,6.9e-4 0.0661,0.006 0.0846,0.0184 0.14582,0.0638 0.18397,0.13642 0.0404,0.0769 0.0441,0.15626 0.0109,0.23771 -0.0324,0.081 -0.10899,0.15346 -0.22996,0.21705 -0.12269,0.0645 -0.22645,0.0871 -0.31109,0.0687 -0.0851,-0.0192 -0.14756,-0.0664 -0.18707,-0.14159 -0.04,-0.076 -0.0438,-0.15321 -0.0114,-0.23203 0.032,-0.0797 0.11191,-0.15292 0.23978,-0.22014 0.0894,-0.047 0.16927,-0.0712 0.23875,-0.0723 z m -15.2678,0.66197 v 5.2e-4 c -0.0317,2.4e-4 -0.06239,0.003 -0.09199,0.007 -0.0867,0.0132 -0.16984,0.0426 -0.25011,0.0889 -0.0812,0.046 -0.14811,0.0988 -0.19999,0.15865 -0.0821,0.095 -0.1518,0.22879 -0.20929,0.401 -0.0803,0.24074 -0.09826,0.43859 -0.05426,0.59325 0.0438,0.15559 0.14014,0.2865 0.28887,0.39274 l 0.24805,-0.5085 c -0.0574,-0.0377 -0.0945,-0.084 -0.11111,-0.139 -0.0179,-0.0543 -0.01436,-0.11817 0.01034,-0.19224 0.0312,-0.0935 0.0902,-0.15853 0.17725,-0.1943 0.0858,-0.0352 0.19721,-0.0299 0.33331,0.0155 0.12129,0.0405 0.20373,0.0999 0.24753,0.17828 0.0438,0.0784 0.05089,0.16226 0.02119,0.25115 -0.0247,0.0741 -0.0647,0.12959 -0.11937,0.16691 -0.055,0.0383 -0.12586,0.0571 -0.21291,0.0558 l -0.11834,0.55758 c 0.12192,0.008 0.23558,-0.008 0.34055,-0.0481 0.10404,-0.0404 0.19638,-0.10596 0.27699,-0.19637 0.0803,-0.0895 0.14745,-0.2152 0.20153,-0.37723 0.0522,-0.15648 0.08165,-0.29197 0.08785,-0.40618 0.005,-0.11359 -0.01239,-0.2186 -0.05219,-0.31523 -0.0407,-0.0969 -0.0983,-0.18126 -0.17208,-0.25321 -0.0738,-0.0719 -0.1833,-0.13235 -0.32866,-0.18087 -0.11389,-0.038 -0.21819,-0.0565 -0.31316,-0.0558 z m 16.62999,0.68833 c -0.05,-0.003 -0.10285,-0.003 -0.15865,0.003 l 0.0992,0.61857 c 0.0979,-0.005 0.17394,0.0144 0.22841,0.0574 0.0543,0.042 0.0914,0.109 0.11162,0.2005 0.0166,0.0753 0.0131,0.13558 -0.0108,0.18087 -0.023,0.0451 -0.0576,0.0726 -0.10335,0.0827 -0.0334,0.007 -0.0666,-0.002 -0.10026,-0.0274 -0.0344,-0.0244 -0.076,-0.0909 -0.12505,-0.19998 -0.12352,-0.26961 -0.23054,-0.45878 -0.3204,-0.56689 -0.0891,-0.10927 -0.18575,-0.18115 -0.29042,-0.21601 -0.10487,-0.0358 -0.2148,-0.0413 -0.32918,-0.016 -0.13439,0.0297 -0.24974,0.0944 -0.34675,0.19379 -0.097,0.0994 -0.16054,0.22248 -0.19016,0.36897 -0.0287,0.14628 -0.0206,0.32047 0.0243,0.52348 0.0787,0.35648 0.20192,0.58862 0.36949,0.69556 0.16756,0.10694 0.35904,0.14594 0.57464,0.11731 l -0.0972,-0.62477 c -0.10303,0.009 -0.18554,-0.002 -0.24701,-0.031 -0.0996,-0.048 -0.16281,-0.13396 -0.19017,-0.25786 -0.0204,-0.0925 -0.0149,-0.16834 0.017,-0.22738 0.0327,-0.0602 0.0777,-0.0964 0.13488,-0.10903 0.0543,-0.012 0.10833,9.7e-4 0.16174,0.0393 0.0534,0.0382 0.11839,0.13984 0.19482,0.30489 0.12659,0.26993 0.25608,0.45371 0.38861,0.55139 0.13274,0.0986 0.28099,0.12978 0.44493,0.0935 0.10771,-0.0238 0.20259,-0.0772 0.28422,-0.16019 0.0824,-0.0842 0.13655,-0.19439 0.1633,-0.33125 0.0275,-0.13803 0.0172,-0.31658 -0.031,-0.53485 -0.0591,-0.26783 -0.15423,-0.46077 -0.28526,-0.57878 -0.0977,-0.0894 -0.22157,-0.13898 -0.37155,-0.14934 z m -16.58762,1.40818 c -0.11785,-0.008 -0.21707,0.0202 -0.29766,0.0842 -0.0806,0.0641 -0.14537,0.18801 -0.19482,0.37155 -0.0597,0.22004 -0.10051,0.3623 -0.12247,0.42736 -0.0229,0.065 -0.05158,0.13361 -0.08578,0.20568 -0.073,-0.005 -0.12318,-0.0232 -0.15038,-0.0553 -0.0272,-0.0322 -0.03807,-0.0863 -0.03307,-0.16226 0.007,-0.0974 0.02709,-0.16939 0.06149,-0.21601 0.0269,-0.0363 0.0744,-0.0643 0.14315,-0.0832 l -0.02171,-0.57206 c -0.10077,0.0148 -0.18062,0.0403 -0.23978,0.0765 -0.0602,0.0371 -0.11375,0.0922 -0.16071,0.16537 -0.0338,0.0525 -0.06227,0.12581 -0.08527,0.22014 -0.0229,0.0943 -0.03797,0.19696 -0.04547,0.30799 -0.0119,0.17823 -0.01113,0.32203 0.0021,0.4315 0.0123,0.10941 0.0474,0.20224 0.10593,0.27854 0.0404,0.0536 0.0999,0.0977 0.1788,0.13229 0.0779,0.0346 0.1533,0.0546 0.22635,0.0594 l 0.68522,0.046 c 0.073,0.005 0.13028,0.0127 0.17157,0.0243 0.0403,0.0125 0.0918,0.0364 0.154,0.0718 l 0.0372,-0.55759 c -0.0384,-0.0251 -0.06775,-0.0419 -0.08785,-0.0501 -0.021,-0.008 -0.05327,-0.017 -0.09767,-0.0269 0.0802,-0.0729 0.13894,-0.1469 0.17622,-0.22169 0.0499,-0.10232 0.07907,-0.22298 0.08837,-0.36225 0.0124,-0.18505 -0.021,-0.32884 -0.10025,-0.43099 -0.0793,-0.10118 -0.18184,-0.15593 -0.30748,-0.16433 z m -0.08371,0.59325 c 0.0467,0.003 0.0846,0.0216 0.11265,0.0558 0.027,0.0351 0.03831,0.084 0.03411,0.14728 -0.004,0.0662 -0.02508,0.12652 -0.06098,0.18086 -0.036,0.0553 -0.0772,0.0934 -0.12454,0.11369 -0.0484,0.0212 -0.10995,0.0292 -0.18397,0.0243 l -0.09457,-0.006 c 0.0347,-0.0799 0.06617,-0.1635 0.09457,-0.25063 0.0402,-0.11862 0.0768,-0.19268 0.11007,-0.22273 0.0344,-0.031 0.0718,-0.0451 0.11266,-0.0424 z" /><circle
       style="display:inline;fill:none;stroke:#ff0000;stroke-width:0.122805;stroke-opacity:1"
       id="path2-9"
       cx="-96.427025"
       cy="110.92023"
       r="9.9385977"
       transform="scale(-1,1)" /><circle
       style="display:inline;fill:none;fill-opacity:1;stroke:none;stroke-width:0.0426285;stroke-dasharray:none;stroke-opacity:1"
       id="path4"
       cx="88.135857"
       cy="-117.61608"
       r="7.4786859"
       transform="matrix(0.99737106,-0.07246359,-0.07246359,-0.99737106,0,0)" /></g></svg>
