<?xml version="1.0" encoding="UTF-8" standalone="no"?>
<!-- Created with Inkscape (http://www.inkscape.org/) -->

<svg
   width="210mm"
   height="297mm"
   viewBox="0 0 210 297"
   version="1.1"
   id="svg1"
   xml:space="preserve"
   inkscape:version="1.4 (e7c3feb1, 2024-10-09)"
   sodipodi:docname="SouthAmerica.svg"
   xmlns:inkscape="http://www.inkscape.org/namespaces/inkscape"
   xmlns:sodipodi="http://sodipodi.sourceforge.net/DTD/sodipodi-0.dtd"
   xmlns="http://www.w3.org/2000/svg"
   xmlns:svg="http://www.w3.org/2000/svg"><sodipodi:namedview
     id="namedview1"
     pagecolor="#ffffff"
     bordercolor="#000000"
     borderopacity="0.25"
     inkscape:showpageshadow="2"
     inkscape:pageopacity="0.0"
     inkscape:pagecheckerboard="0"
     inkscape:deskcolor="#d1d1d1"
     inkscape:document-units="mm"
     inkscape:zoom="4.8157966"
     inkscape:cx="338.36562"
     inkscape:cy="441.56765"
     inkscape:window-width="1472"
     inkscape:window-height="826"
     inkscape:window-x="0"
     inkscape:window-y="37"
     inkscape:window-maximized="0"
     inkscape:current-layer="layer1" /><defs
     id="defs1" /><g
     inkscape:label="Ebene 1"
     inkscape:groupmode="layer"
     id="layer1"
     style="display:inline"><path
       id="path2"
       style="display:inline;fill:#000000;fill-opacity:1;stroke:none;stroke-width:0.122805;stroke-opacity:1"
       d="M 96.427189 100.98143 A 9.9385977 9.9385977 0 0 0 86.488261 110.92036 A 9.9385977 9.9385977 0 0 0 96.427189 120.85877 A 9.9385977 9.9385977 0 0 0 106.3656 110.92036 A 9.9385977 9.9385977 0 0 0 96.427189 100.98143 z M 96.44786 101.28839 L 97.170296 101.31681 L 97.892733 103.49342 L 97.199235 103.46604 L 97.107768 103.10792 L 96.352775 103.07846 L 96.234953 103.42831 L 95.557475 103.40196 L 96.44786 101.28839 z M 96.780139 101.85838 L 96.514006 102.62009 L 96.986845 102.6387 L 96.780139 101.85838 z M 98.588814 102.05114 L 99.104545 102.25939 L 99.019796 102.46971 C 99.129455 102.41191 99.229412 102.37936 99.319519 102.37256 C 99.410529 102.36656 99.509331 102.38476 99.616142 102.42786 C 99.731099 102.47426 99.813645 102.53114 99.864189 102.59891 C 99.914729 102.66671 99.945109 102.74974 99.955139 102.84747 C 100.08003 102.78837 100.18482 102.75647 100.26985 102.75187 C 100.35525 102.74587 100.45062 102.76476 100.55562 102.80716 C 100.7104 102.86966 100.81243 102.9645 100.86206 103.0919 C 100.91206 103.21839 100.89755 103.37904 100.81865 103.57456 L 100.4533 104.48044 L 99.899329 104.25669 L 100.23109 103.43555 C 100.25739 103.37035 100.26426 103.31674 100.25176 103.27483 C 100.23476 103.21003 100.19846 103.16638 100.14324 103.14409 C 100.07804 103.11779 100.01603 103.12001 99.957206 103.15081 C 99.898386 103.18181 99.847805 103.24931 99.805794 103.35338 L 99.505554 104.09752 L 98.951583 103.87376 L 99.272493 103.0795 C 99.298063 103.0161 99.311428 102.97172 99.313318 102.94617 C 99.316118 102.90517 99.30772 102.86797 99.28748 102.83455 C 99.26765 102.80025 99.238033 102.77584 99.199113 102.76014 C 99.135753 102.73454 99.074206 102.73712 99.014111 102.76892 C 98.954021 102.80042 98.901735 102.87127 98.857532 102.98079 L 98.560392 103.71667 L 98.006938 103.49291 L 98.588814 102.05114 z M 92.386092 102.18136 L 92.701318 102.9069 C 92.742178 102.79762 92.792158 102.71043 92.85118 102.64541 C 92.9102 102.58041 92.989655 102.52568 93.089925 102.48212 C 93.23854 102.41752 93.375385 102.41208 93.499719 102.46558 C 93.624949 102.51868 93.727971 102.63865 93.809261 102.82576 L 94.203035 103.73269 L 93.653715 103.97091 L 93.313167 103.18698 C 93.274277 103.09748 93.230467 103.04135 93.181392 103.01903 C 93.131932 102.99583 93.077045 102.99727 93.017061 103.02317 C 92.950811 103.05197 92.907788 103.10037 92.888387 103.16838 C 92.868987 103.23638 92.887801 103.3357 92.944198 103.46552 L 93.241337 104.15023 L 92.695117 104.38743 L 91.839872 102.41907 L 92.386092 102.18136 z M 91.019767 102.95392 L 91.363932 103.43555 L 91.630583 103.24434 L 91.88328 103.59833 L 91.61663 103.78901 L 91.937541 104.23808 C 91.976141 104.29208 92.006715 104.3241 92.029525 104.3342 C 92.064705 104.3499 92.102475 104.34318 92.142179 104.31508 C 92.177919 104.28958 92.220259 104.24378 92.26982 104.1771 L 92.544739 104.48613 C 92.443562 104.59805 92.34129 104.69134 92.237264 104.7657 C 92.116562 104.852 92.016336 104.89998 91.937024 104.90988 C 91.857714 104.91988 91.781767 104.90287 91.709131 104.86027 C 91.636721 104.81607 91.550236 104.72308 91.449198 104.58173 L 91.130872 104.13628 L 90.952071 104.26392 L 90.698857 103.91045 L 90.877657 103.78281 L 90.711776 103.55027 L 91.019767 102.95392 z M 101.65943 103.76007 C 101.8758 103.74697 102.08835 103.82967 102.29712 104.0076 C 102.4665 104.15196 102.57811 104.29135 102.6325 104.42618 C 102.6869 104.56102 102.6983 104.6991 102.6666 104.84011 C 102.6349 104.98112 102.55255 105.12955 102.41959 105.28556 L 102.37618 105.33672 L 101.46667 104.56209 C 101.41277 104.64189 101.38629 104.71275 101.38709 104.775 C 101.38724 104.8636 101.42249 104.9381 101.49303 104.99824 C 101.53763 105.03624 101.58943 105.06076 101.64858 105.07266 C 101.68508 105.07966 101.73308 105.07694 101.79172 105.06594 L 102.20306 105.48813 C 102.03341 105.54873 101.87836 105.56391 101.73746 105.53361 C 101.59719 105.50261 101.43688 105.40996 101.25635 105.25611 C 101.09959 105.12252 100.9947 104.99569 100.94216 104.87525 C 100.89026 104.75406 100.87542 104.62022 100.89772 104.47373 C 100.92132 104.32713 100.98842 104.18877 101.09926 104.05876 C 101.2569 103.87377 101.4438 103.77434 101.65943 103.76059 L 101.65943 103.76007 z M 101.90799 104.2231 C 101.88629 104.2231 101.86433 104.22585 101.84133 104.23085 C 101.78343 104.24305 101.7208 104.28135 101.65323 104.34557 L 102.09971 104.72642 C 102.16551 104.63112 102.19541 104.54816 102.18911 104.47734 C 102.18311 104.40714 102.14921 104.34552 102.08679 104.29234 C 102.03279 104.24624 101.97316 104.22361 101.90799 104.22361 L 101.90799 104.2231 z M 90.304049 104.22826 L 91.452816 105.27626 L 91.078162 105.68761 L 90.892126 105.51759 C 90.912666 105.64862 90.910169 105.76063 90.885409 105.85297 C 90.861289 105.94457 90.808089 106.03547 90.725212 106.12634 C 90.614705 106.2475 90.491508 106.30995 90.356242 106.31341 C 90.220912 106.31541 90.078057 106.24781 89.927327 106.11032 L 89.196106 105.44318 L 89.599699 105.00083 L 90.231185 105.57702 C 90.303305 105.64282 90.366726 105.67632 90.421354 105.67727 C 90.475984 105.67822 90.525594 105.65426 90.569666 105.60596 C 90.617686 105.55336 90.63664 105.492 90.62651 105.42199 C 90.61701 105.35129 90.56003 105.26829 90.455461 105.17291 L 89.902523 104.66855 L 90.304049 104.22826 z M 94.673291 104.883 C 94.756494 104.89057 94.821165 104.93402 94.817468 105.0215 C 94.60078 105.03747 94.739417 105.18404 94.68311 105.3207 C 94.63353 105.44107 94.496275 105.35198 94.539449 105.54808 C 94.589117 105.56306 94.685859 105.56371 94.735819 105.54756 C 94.750825 105.27723 94.689458 105.20021 94.914103 105.08247 C 95.075918 104.99765 95.243127 105.01664 95.420532 105.10521 C 95.598142 105.1939 95.590968 105.28755 95.821025 105.31812 C 95.989128 105.34047 96.284494 105.36951 96.348641 105.19565 C 96.496378 105.21681 96.601466 105.29504 96.754301 105.29073 C 96.753959 105.27178 96.753416 105.25284 96.758952 105.23079 C 96.745965 105.19256 96.770418 105.28106 96.777555 105.29176 C 96.769148 105.29249 96.762419 105.2905 96.754301 105.29073 C 96.757703 105.47952 97.03069 105.52136 97.194067 105.52689 C 97.161131 105.63053 97.209355 105.6423 97.104667 105.70001 C 97.392142 105.75398 97.646472 106.11115 97.905135 106.19662 C 98.246753 106.30953 98.575663 106.27807 98.899906 106.45138 C 99.245941 106.63636 99.335081 106.81613 99.479199 107.15418 C 99.557474 107.33782 99.645928 107.38621 99.552063 107.58 C 99.504969 107.67714 99.320776 107.80047 99.249756 107.85853 C 99.46934 107.7441 99.747705 107.76595 100.00113 107.77947 C 99.9782 107.91484 99.850372 108.04997 99.78254 108.17376 C 99.897085 108.13632 99.99777 108.0241 100.01043 107.89677 C 100.3066 107.84465 100.67626 108.17595 100.88376 108.36444 C 100.99457 108.21085 101.27755 108.2702 101.45376 108.27453 C 101.42828 108.25619 101.40054 108.23411 101.37986 108.2182 C 101.9752 108.26766 102.49515 108.74025 103.01335 109.03779 C 103.0452 109.58627 102.99084 110.03873 102.67435 110.47439 C 102.54226 110.65622 102.31535 110.71405 102.19118 110.89917 C 102.07611 111.07073 102.04054 111.34925 102.02375 111.54926 C 102.00046 111.82709 102.13676 112.12039 102.07542 112.36162 C 102.03904 112.50474 101.7948 112.7055 101.67338 112.80603 C 101.31252 113.10477 100.90944 113.21226 100.49619 113.34915 C 100.25072 113.43044 100.13724 113.48804 100.00682 113.71967 C 99.890014 113.92712 99.946685 114.23035 99.826465 114.41162 C 99.578741 114.41191 99.673775 114.43731 99.552063 114.63435 C 99.499997 114.70048 99.392782 114.85668 99.361894 114.78783 C 99.049321 114.9459 99.28272 115.10948 99.091626 115.34231 C 98.932122 115.53671 98.507126 115.34237 98.462724 115.59966 C 98.518446 115.59791 98.320019 115.67312 98.367639 115.65806 C 98.103126 115.63937 97.895588 115.58409 97.659155 115.67304 C 97.678461 115.67717 97.739556 115.69893 97.779045 115.70715 C 97.938285 115.87739 97.938872 116.16143 98.188322 116.26267 C 98.187415 116.26969 98.186625 116.33683 98.188322 116.34122 C 97.972862 116.32039 97.080038 116.49057 97.106217 116.6921 C 97.01127 116.69131 96.942871 116.73219 96.850936 116.72879 C 96.818497 117.3124 96.602263 117.26506 96.186377 117.05074 C 96.163093 117.19503 96.11916 117.44631 96.287146 117.49154 C 96.273486 117.63598 96.226021 117.79943 96.150203 117.90236 C 96.057362 118.02838 95.908757 118.02033 95.848413 118.15351 C 95.729802 118.17767 95.639357 118.22397 95.553857 118.30596 C 95.663313 118.38391 95.887122 118.39203 95.940914 118.50956 C 96.009448 118.65935 95.854243 118.83346 95.778133 118.92659 C 95.591368 119.1551 95.35069 119.26453 95.18127 119.51415 C 95.197066 119.51904 95.240835 119.53005 95.262919 119.53947 C 95.371527 119.7406 95.381445 119.97765 95.672196 120.03557 C 95.728241 120.1951 96.211417 120.26933 96.375513 120.35234 C 96.190502 120.54905 95.25038 120.68135 95.290308 120.20817 C 95.21724 120.26602 95.189724 120.2557 95.144063 120.34924 C 94.952267 120.33201 94.479612 120.26289 94.531181 120.00508 C 94.424855 119.97343 94.333484 119.95269 94.217505 119.93842 C 94.24503 119.89512 94.246366 119.78535 94.267631 119.74308 C 94.218168 119.75194 94.14857 119.72542 94.099166 119.73326 C 94.119173 119.69149 94.105738 119.60682 94.121387 119.56686 C 94.03618 119.56739 93.979461 119.52445 93.893494 119.5281 C 93.988968 119.48341 93.997919 119.41501 94.03457 119.33328 C 93.959601 119.34466 93.903419 119.29548 93.838717 119.29659 C 93.828011 119.09866 93.838961 118.92952 93.895561 118.74779 C 94.124681 118.80164 94.238214 118.59047 94.239209 118.40414 C 94.181702 118.40464 93.910673 118.40934 93.868172 118.35815 C 93.763543 118.23208 93.93504 118.19372 94.035604 118.20674 C 94.034258 118.15924 94.051584 118.09214 94.042839 118.04654 C 94.037603 118.0437 94.127988 118.04248 94.121903 118.04654 C 94.11658 118.10703 94.147956 118.20019 94.145675 118.2455 C 94.290319 118.12469 94.242973 117.9132 94.301737 117.75612 C 94.350996 117.62446 94.481298 117.49758 94.472786 117.35098 C 94.242525 117.26399 94.220303 117.52102 94.238175 117.68687 C 94.180873 117.72259 94.107746 117.74889 94.042839 117.74527 C 94.138517 117.32391 94.181888 116.87086 94.244893 116.43579 C 94.304682 116.02306 94.683548 115.73887 94.656755 115.32629 L 94.662439 115.2865 C 94.665276 115.23877 94.661883 115.1907 94.662439 115.14284 C 94.662995 115.09461 94.677562 115.0686 94.690344 115.02812 C 94.71509 114.94976 94.726206 114.8628 94.735303 114.78111 C 94.745043 114.69356 94.778506 114.62863 94.794214 114.5465 C 94.801702 114.5073 94.806002 114.46716 94.819019 114.42919 C 94.834872 114.38286 94.860672 114.37002 94.888782 114.33462 C 94.953279 114.25348 94.970967 114.09835 94.990068 113.99873 C 95.014082 113.87333 95.026719 113.74586 95.031925 113.61839 C 95.034646 113.5524 95.03564 113.48603 95.035026 113.41995 C 95.034792 113.3969 95.045312 113.23609 95.029342 113.2272 C 95.00676 113.21462 94.982423 113.20903 94.956478 113.21014 C 94.909823 113.02633 95.248399 112.18043 94.919271 112.10013 C 94.90956 111.49272 93.517914 111.38349 93.623743 110.90951 C 93.371163 110.88836 93.503775 110.70207 93.447526 110.53692 C 93.402158 110.40369 93.257113 110.36394 93.243921 110.20774 C 92.949952 109.98874 93.082171 109.16117 92.550423 109.17576 C 92.591725 108.99184 92.468609 108.7313 92.500814 108.62851 C 92.53767 108.51078 92.762375 108.40977 92.806222 108.28435 C 92.759069 108.29353 92.664394 108.25759 92.608818 108.26833 C 92.59039 107.9652 92.777283 107.75239 92.81449 107.46424 C 93.335151 107.55866 93.468484 106.50121 93.352441 106.14236 C 93.432496 105.92722 93.094262 105.76412 92.821208 105.85245 C 92.84221 105.94714 92.815172 106.02945 92.734908 106.07725 C 92.686264 106.05633 92.629868 106.0416 92.58453 106.01937 C 92.485662 105.8515 92.343444 105.86871 92.204708 105.81886 C 91.975354 105.73646 92.019621 105.76734 91.683809 105.29848 C 91.599436 104.9537 91.741649 104.9669 91.869328 104.97085 C 91.860757 105.10324 92.12853 105.58596 92.276538 105.6535 C 92.504839 105.75789 92.439515 105.56795 92.633622 105.52121 C 92.79532 105.48228 92.957274 105.5627 93.097677 105.61371 C 93.21778 105.97387 93.596365 105.64407 93.718311 105.50209 C 93.914085 105.2742 94.009007 105.18623 94.326025 105.10883 C 94.343557 104.95749 94.53462 104.87039 94.673291 104.883 z M 103.30274 105.04217 L 103.64225 105.48452 L 103.4402 105.63955 C 103.56039 105.61505 103.65381 105.61261 103.7208 105.63231 C 103.7892 105.65251 103.84903 105.69591 103.90012 105.76254 C 103.95362 105.83224 103.99052 105.92493 104.01071 106.04107 L 103.56164 106.15321 C 103.54214 106.07961 103.51997 106.02658 103.49497 105.99405 C 103.44747 105.93205 103.38465 105.90368 103.30739 105.90878 C 103.19793 105.91478 103.04445 105.99448 102.84695 106.14598 L 102.43354 106.46327 L 102.06922 105.98785 L 103.30274 105.04217 z M 104.67888 105.95736 L 104.97034 106.47722 L 104.61635 106.67566 L 104.32542 106.15579 L 104.67888 105.95736 z M 89.106706 106.18577 C 89.247904 106.17877 89.389185 106.21276 89.530452 106.28705 C 89.742138 106.39831 89.879138 106.55964 89.940763 106.77178 C 90.001973 106.9826 89.967233 107.21214 89.836894 107.46011 C 89.720631 107.6813 89.570354 107.83066 89.386275 107.90814 C 89.159062 108.00264 88.932757 107.99057 88.707247 107.87197 C 88.497289 107.76161 88.361724 107.60024 88.300553 107.38724 C 88.238523 107.17378 88.270995 106.94617 88.397705 106.70511 C 88.54258 106.42948 88.731758 106.26326 88.965629 106.20644 C 89.012689 106.19504 89.059639 106.18817 89.106706 106.18577 z M 104.16315 106.24674 L 104.45409 106.76661 L 103.09758 107.52625 L 102.80664 107.00639 L 104.16315 106.24674 z M 89.014722 106.74491 L 89.014722 106.74542 C 88.991562 106.74503 88.969526 106.74611 88.948576 106.75111 C 88.863936 106.76951 88.802757 106.81491 88.764608 106.88753 C 88.724188 106.96443 88.720476 107.04379 88.753756 107.12524 C 88.786166 107.20624 88.862753 107.2787 88.983716 107.34229 C 89.106407 107.40679 89.210168 107.42941 89.294808 107.41101 C 89.379898 107.39181 89.442365 107.34461 89.481877 107.26942 C 89.521847 107.19342 89.525695 107.11621 89.493245 107.03739 C 89.461245 106.95769 89.381342 106.88447 89.253467 106.81725 C 89.164037 106.77025 89.084202 106.74601 89.014722 106.74491 z M 104.28252 107.40688 L 104.28252 107.4074 C 104.31422 107.40764 104.34491 107.41012 104.37451 107.41412 C 104.46121 107.42732 104.54435 107.4567 104.62462 107.503 C 104.70582 107.549 104.77273 107.6018 104.82461 107.66165 C 104.90671 107.75665 104.97641 107.89044 105.0339 108.06265 C 105.1142 108.30339 105.13216 108.50124 105.08816 108.6559 C 105.04436 108.81149 104.94802 108.9424 104.79929 109.04864 L 104.55124 108.54014 C 104.60864 108.50244 104.64574 108.45614 104.66235 108.40114 C 104.68025 108.34684 104.67671 108.28297 104.65201 108.2089 C 104.62081 108.1154 104.56181 108.05037 104.47476 108.0146 C 104.38896 107.9794 104.27755 107.9847 104.14145 108.0301 C 104.02016 108.0706 103.93772 108.13 103.89392 108.20838 C 103.85012 108.28678 103.84303 108.37064 103.87273 108.45953 C 103.89743 108.53363 103.93743 108.58912 103.9921 108.62644 C 104.0471 108.66474 104.11796 108.68356 104.20501 108.68226 L 104.32335 109.23984 C 104.20143 109.24784 104.08777 109.23188 103.9828 109.19178 C 103.87876 109.15138 103.78642 109.08582 103.70581 108.99541 C 103.62551 108.90591 103.55836 108.78021 103.50428 108.61818 C 103.45208 108.4617 103.42263 108.32621 103.41643 108.212 C 103.41143 108.09841 103.42882 107.9934 103.46862 107.89677 C 103.50932 107.79987 103.56692 107.71551 103.6407 107.64356 C 103.7145 107.57166 103.824 107.51121 103.96936 107.46269 C 104.08325 107.42469 104.18755 107.40618 104.28252 107.40688 z M 87.652531 108.09521 C 87.702521 108.09221 87.755375 108.09231 87.811178 108.09831 L 87.711959 108.71688 C 87.614019 108.71188 87.538018 108.73124 87.483549 108.77424 C 87.429289 108.81624 87.392139 108.88324 87.371928 108.97474 C 87.355298 109.05004 87.3588 109.11032 87.38278 109.15561 C 87.40581 109.20071 87.44038 109.22819 87.486133 109.23829 C 87.519493 109.24529 87.552753 109.2363 87.586385 109.2109 C 87.620765 109.1865 87.662355 109.12001 87.711442 109.01092 C 87.834963 108.74131 87.941984 108.55214 88.031836 108.44403 C 88.120946 108.33476 88.217594 108.26288 88.322257 108.22802 C 88.427132 108.19222 88.537059 108.1867 88.651436 108.212 C 88.785829 108.2417 88.901181 108.30641 88.998185 108.40579 C 89.095185 108.50519 89.15873 108.62827 89.188354 108.77476 C 89.217024 108.92104 89.208907 109.09523 89.164067 109.29824 C 89.085337 109.65472 88.962145 109.88686 88.79458 109.9938 C 88.627015 110.10074 88.435535 110.13974 88.219938 110.11111 L 88.31709 109.48634 C 88.420117 109.49534 88.502629 109.48433 88.564103 109.45533 C 88.663663 109.40733 88.726907 109.32137 88.754272 109.19747 C 88.774692 109.10497 88.769159 109.02913 88.737219 108.97009 C 88.704529 108.90989 88.659529 108.8737 88.602344 108.86106 C 88.548014 108.84906 88.494013 108.86203 88.440597 108.90033 C 88.387177 108.93853 88.322214 109.04017 88.245776 109.20522 C 88.119186 109.47515 87.989702 109.65893 87.85717 109.75661 C 87.724426 109.85521 87.576176 109.88639 87.412236 109.85014 C 87.304531 109.82634 87.209647 109.77295 87.128015 109.68995 C 87.045645 109.60575 86.991471 109.49556 86.964718 109.3587 C 86.937218 109.22067 86.947523 109.04212 86.995723 108.82385 C 87.054873 108.55602 87.149953 108.36308 87.280977 108.24507 C 87.378687 108.15567 87.502547 108.10609 87.652531 108.09573 L 87.652531 108.09521 z M 104.24015 109.50339 C 104.358 109.49539 104.45722 109.52363 104.53781 109.58763 C 104.61841 109.65173 104.68318 109.77564 104.73263 109.95918 C 104.79233 110.17922 104.83314 110.32148 104.8551 110.38654 C 104.878 110.45154 104.90668 110.52015 104.94088 110.59222 C 105.01388 110.58722 105.06406 110.56902 105.09126 110.53692 C 105.11846 110.50472 105.12933 110.45063 105.12433 110.37466 C 105.11733 110.27726 105.09724 110.20527 105.06284 110.15865 C 105.03594 110.12235 104.98844 110.09435 104.91969 110.07545 L 104.9414 109.50339 C 105.04217 109.51819 105.12202 109.54367 105.18118 109.57987 C 105.24138 109.61697 105.29493 109.67208 105.34189 109.74524 C 105.37569 109.79774 105.40416 109.87105 105.42716 109.96538 C 105.45006 110.05968 105.46513 110.16234 105.47263 110.27337 C 105.48453 110.4516 105.48376 110.5954 105.47056 110.70487 C 105.45826 110.81428 105.42316 110.90711 105.36463 110.98341 C 105.32423 111.03701 105.26473 111.08111 105.18583 111.1157 C 105.10793 111.1503 105.03253 111.17033 104.95948 111.17513 L 104.27426 111.22112 C 104.20126 111.22612 104.14398 111.23381 104.10269 111.24541 C 104.06239 111.25791 104.01089 111.28184 103.94869 111.31724 L 103.91149 110.75965 C 103.94989 110.73455 103.97924 110.71772 103.99934 110.70952 C 104.02034 110.70152 104.05261 110.69255 104.09701 110.68265 C 104.01681 110.60975 103.95807 110.53575 103.92079 110.46096 C 103.87089 110.35864 103.84172 110.23798 103.83242 110.09871 C 103.82002 109.91366 103.85342 109.76987 103.93267 109.66772 C 104.01197 109.56654 104.11451 109.51179 104.24015 109.50339 z M 104.32386 110.09664 C 104.27716 110.09964 104.23926 110.11825 104.21121 110.15245 C 104.18421 110.18755 104.1729 110.23645 104.1771 110.29973 C 104.1811 110.36593 104.20218 110.42625 104.23808 110.48059 C 104.27408 110.53589 104.31528 110.57399 104.36262 110.59428 C 104.41102 110.61548 104.47257 110.62347 104.54659 110.61857 L 104.64116 110.61237 C 104.60646 110.53247 104.57499 110.44887 104.54659 110.36174 C 104.50639 110.24312 104.46979 110.16906 104.43652 110.13901 C 104.40212 110.10801 104.36472 110.09394 104.32386 110.09664 z " /><circle
       style="display:inline;fill:none;stroke:#ff0000;stroke-width:0.122805;stroke-opacity:1"
       id="path2-9"
       cx="96.427025"
       cy="110.92023"
       r="9.9385977" /><circle
       style="display:inline;fill:none;fill-opacity:1;stroke:none;stroke-width:0.0426285;stroke-dasharray:none;stroke-opacity:1"
       id="path4"
       cx="-104.21119"
       cy="-103.64118"
       r="7.4786859"
       transform="rotate(-175.8445)" /></g></svg>
