<?xml version="1.0" encoding="utf-8"?>
<!-- Generator: Adobe Illustrator 12.0.0, SVG Export Plug-In . SVG Version: 6.00 Build 51448)  -->
<!DOCTYPE svg PUBLIC "-//W3C//DTD SVG 1.1//EN" "http://www.w3.org/Graphics/SVG/1.1/DTD/svg11.dtd" [
	<!ENTITY ns_svg "http://www.w3.org/2000/svg">
	<!ENTITY ns_xlink "http://www.w3.org/1999/xlink">
]>
<svg  version="1.1" id="Ebene_1" xmlns="&ns_svg;" xmlns:xlink="&ns_xlink;" width="394.785" height="536.021"
	 viewBox="0 0 394.785 536.021" overflow="visible" enable-background="new 0 0 394.785 536.021" xml:space="preserve">
<path fill="none" stroke="#000000" d="M108.334,357.576c0.916,14.105-12.052,23.811-14.096,37.921
	c-2.154,14.874-3.629,30.368-6.9,44.773c2.219,0.124,4.712-0.779,6.671-2c-0.611-5.67,0.148-14.453,8.02-11.479
	c0.291,5.012-4.154,9.354-5.838,13.855c-2.009,5.37-0.384,12.588-5.329,16.718c0.078-1.549-1.004-4.721-0.822-6.789
	c0.208-0.139-2.884-0.097-2.705,0c0.299,1.559-0.293,3.848-0.247,5.472c-3.438-0.445-9.301,0.865-5.724,5.175
	c1.453,1.75,10.726,1.586,12.692,1.569c-0.034,6.37-3.911,13.596-11.744,11.755c-1.935,6.213-2.316,11.985-1.95,18.752
	c2.212-0.038,4.131,1.66,6.694,1.271c-1.253,2.794-1.557,5.128-4.821,6.656c2.939-0.125,4.884,1.339,7.797,1.321
	c-0.535,1.366-0.085,4.269-0.769,5.697c1.689-0.268,4.075,0.628,5.766,0.325c-0.727,1.445-0.773,5.195-1.714,6.675
	c3.965,0.488,7.086,1.195,10.721,2.277c-1.763,8.814,14.397,11.188,20.954,11.777c1.561-3.198,2.5-2.855,4.998-4.833
	c-1.365,16.177,30.771,11.658,37.096,4.933c-5.61-2.838-22.123-5.38-24.039-10.834c-9.94-1.98-10.284-10.069-13.997-16.945
	c-0.755-0.322-2.249-0.704-2.789-0.871c5.792-8.534,14.012-12.27,20.397-20.082c2.602-3.184,7.922-9.149,5.579-14.27
	c-1.839-4.018-9.504-4.283-13.246-6.948c2.923-2.803,6.02-4.398,10.075-5.224c2.063-4.553,7.148-4.272,10.322-8.58
	c2.592-3.519,4.215-9.111,4.682-14.049c-5.743-1.546-4.252-10.141-3.456-15.074c14.218,7.327,21.617,8.952,22.726-11
	c3.143,0.116,5.475-1.281,8.721-1.254c-0.895-6.89,29.63-12.705,36.996-11.993c-0.058-0.15-0.025-2.442,0.006-2.682
	c-8.528-3.461-8.546-13.184-13.99-19.004c-1.35-0.281-3.442-1.026-4.102-1.167c8.083-3.041,15.174-1.139,24.217-0.5
	c-1.628,0.515,5.155-2.06,3.25-2c1.518-8.796,16.046-2.157,21.499-8.803c6.533-7.96-1.435-13.543,9.251-18.947
	c1.056,2.354,4.72-2.989,6.5-5.25c4.161-6.736,0.916-7.605,9.385-7.615c4.11-6.197,2.174-16.57,6.167-23.662
	c4.459-7.919,8.334-9.885,16.726-12.664c14.128-4.68,27.909-8.346,40.246-18.559c4.151-3.437,12.503-10.31,13.747-15.203
	c2.097-8.247-2.567-18.273-1.771-27.771c0.574-6.838,1.794-16.359,5.728-22.224c4.245-6.329,12.003-8.313,16.519-14.529
	c10.82-14.894,12.669-30.349,11.58-49.1c-17.716-10.172-35.484-26.336-55.837-28.027c0.707,0.544,1.65,1.3,2.521,1.927
	c-6.024-0.148-15.696-2.174-19.484,3.077c-7.094-6.444-19.734-17.767-29.859-15.985c-0.433,4.353-3.877,8.177-7.793,9.457
	c2.319-4.232,6.691-8.844,7.475-13.472c-8.664-0.462-18.187-1.211-25.694,2.701c2.428-1.985,8.733-6.206,10.343-9.527
	c3.209-6.625,0.183-8.274-2.493-14.552c-4.927-11.557-7.98-17.696-19.81-24.02c-11.085-5.925-22.321-4.866-34-8.726
	c-8.843-2.922-17.541-15.134-27.369-16.979c3.579-1.973,1.924-2.359,3.05-5.902c-6.146-0.208-16.947-1.857-14.872-10.123
	c-0.444-1.307,0.402,1.711,0.646,2.077c-5.699,0.494-9.357-2.518-14.676-3.28c-2.193,5.944-12.278,4.942-18.025,4.178
	c-7.865-1.045-7.629-4.246-13.701-7.278c-6.065-3.028-11.774-3.677-17.306-0.777c-7.68,4.025-5.583,6.658-6.096,15.9
	c-1.708,0.552-5.019,0.539-6.717,0.027c-1.476-6.704,3.225-3.657,4.92-7.772c1.925-4.672-2.83-9.694,4.578-10.24
	c0.337-7.975-15.838-5.285-16.797,2.993c-10.838,2.646-14.081,5.657-20.774,13.448c-4.169,4.854-17.117,16.128-21.223,3.815
	c-4.8-1.744-10.329-4.495-15.857-3.164c-6.636,1.598-4.409,8.082-12.214,4.513C21.889,24.573,12.739,8.076,13.032,3.55
	C8.667,3.415,3.802,2.968,0.187,4.422"/>
<path fill="none" stroke="#000000" d="M108.853,357.755"/>
<path fill="none" stroke="#000000" d="M64.187,41.422c4.751,11.587-1.045,50.602-18.845,47.374
	c-1.272,9.851-7.657,17.112-7.027,27.475c1.9-0.367,5.129,0.862,6.741,0.548c-1.499,4.288-9.183,7.751-10.443,11.776
	c-1.101,3.514,3.111,12.42,1.699,18.708c18.179-0.499,13.658,27.796,23.708,35.283c0.451,5.34,5.417,6.703,6.968,11.258
	c1.923,5.646-2.61,12.006,6.025,12.729c-3.618,16.204,43.958,19.939,44.29,40.705c11.252,2.745-0.318,31.666,1.277,37.95
	c0.887-0.038,1.716,0.158,2.488,0.588c0.546,0.304,0.175,5.803,0.183,6.591c0.021,2.259-0.002,4.518-0.095,6.774
	c-0.178,4.358-0.604,8.712-1.425,12.999c-0.653,3.406-1.275,8.711-3.48,11.485c-0.961,1.21-1.832,1.655-2.374,3.239
	c-0.445,1.298-0.601,2.673-0.857,4.013c-0.537,2.808-1.667,5.02-2,8.013c-0.311,2.793-0.69,5.777-1.536,8.456
	c-0.437,1.384-0.944,2.257-0.963,3.906c-0.019,1.636,0.097,3.294,0,4.926c-0.036,0.604-0.014,1.013-0.271,1.554"/>
<path fill="none" stroke="#000000" d="M13.186,25.088c4.981,5.696,3.478,4.637,11.319,7.454c4.743,1.704,9.602,1.118,12.982,6.857
	c1.55,0.76,3.472,1.26,5.135,1.975c2.744-1.634,3.666-4.452,2.948-7.689c9.335-3.02,20.901,2.563,18.948,9.237"/>
<path fill="none" stroke="#BF0000" d="M113.52,3.755c-1.688-0.44-6.464-0.37-8.179-0.234c0.513,11.791-13.777,19.35-5.37,32.143
	c5.622,8.554,22.538,7.825,33.048,11.147c0.099,0.831,0.204,1.662,0.315,2.491c7.673-0.444,14.733-4.531,19.027-11.707
	c11.022-0.436,20.551-5.761,30.658-5.345c2.227-1.351,5.817-2.552,8.242-5.229c-0.084,1.091,1.268,0.99,1.092,2.067"/>
<path fill="none" stroke="#BF0000" d="M115.853,241.088c6.52-0.367,11.953-5.468,15.485-11.673
	c-7.565-9.966,1.069-23.814-0.128-34.947c-1.138-10.577-18.921-9.997-16.023-24.521c0.156,1.441-0.176,2.936-0.171,4.301
	c-1.09,1.16-1.162,0.234-2.003,2.003c-5.083,1.12-8.583-2.049-12.703-3.98c0.696-11.952-11.692-18.108-1.123-30.071
	c4.659-5.272,23.718-8.993,20.826-18.6c-4.211-1.718-5.456-5.697-9-7.952c-3.857-2.454-8.354-2.221-12.607-5.445
	c-12.508-9.482-17.885-18.995-20.616,1.044c-5.615,3.288-14.311,9.129-18.851,13.93c-6.429,6.798-6.402,17.285-15.582,7.07
	c0.442-2.603-0.828-6.266-0.544-8.674c-1.438-0.197-3.167-0.402-4.626-0.151"/>
<path fill="none" stroke="#BF0000" d="M125.02,237.255c0.109,8.199,0.737,11.43,5.389,17.722c2.919,3.948,9.84,8.331,11.548,12.893
	c3.069,8.2-1.959,13.829-4.016,20.255c-2.231,6.97-2.061,15.199-4.258,21.794c-4.496,13.499-11.666,21.772-11.497,36.28
	c0.211,18.1,0.627,28.478-10.178,41.469c5.66,6.144-0.82,20.675-0.822,29.531c-0.002,11.164-0.115,22.788-1.052,33.394
	c-0.943,10.673-0.331,19.383-5.696,28.301c-2.749,4.57-16.073,20.85-0.396,18.676c2.51,9.538,19.09,8.518,26.811,10.02
	c-0.726,5.589,1.332,14.274,5.426,17.833c-0.559,1.889-3.861,2.513-5.426,3.167"/>
<path fill="none" stroke="#BF0000" d="M128.02,188.422c5.783,0.671,10.417,0.341,11.286-5.829c6.33-3.428,11.068-5.242,18.753-4.797
	c-0.94,18.192,17.885,17.949,29.327,24.408c12.613,7.12,12.079,25.257,28.657,27.363c2.306,7.704,11.319,23.314-2.324,22.125
	c-10.834-0.944-15.894-11.15-25.557,0.707c-6.525,8.007-2.74,19.124-14.948,21.025c-6.875,1.071-10.17-3.339-16.25-3.777
	c-5.416-0.391-8.954,2.537-14.111,3.611"/>
<path fill="none" stroke="#BF0000" d="M216.187,249.422c0,6.254-0.216,12.643,0.174,18.822
	c12.762,3.293,25.176,10.315,25.826,24.955c1.083,24.426-13.17,16.223-29.842,17.127c-0.043-5.256,5.276-10.402,2.643-14.705
	c-0.871-1.423-11.314-5.343-14.075-6.977c-8.454-5.005-17.158-7.994-21.893-17.556"/>
<path fill="none" stroke="#BF0000" d="M239.687,307.172c2.911-5.635,2.609-6.578,9.326-7.622
	c-1.915,12.699,4.228,9.973-6.123,17.604c-5.584,4.116-11.083,9.685-15.958,13.962c-6.575,5.771-9.823,9.691-12.3,17.553
	c-1.58,5.013-7.297,17.878-2.945,20.254"/>
<path fill="none" stroke="#BF0000" d="M224.187,333.422c0.155,0.982-0.122,1.82,0.123,2.803
	c11.351,7.727,34.269,4.205,31.627,24.447"/>
<path fill="none" stroke="#BF0000" d="M144.52,46.255c-3.463,11.309-4.469,25.881-0.492,35.796
	c-5.794,0.85-15.748-1.737-17.74,5.203c2.878,0.719,3.068,2.244,5.066,3.214c-6.088,1.305-8.932,0.291-11.441,6.925
	c-1.792,4.735-1.637,10.435,4.151,11.425c-0.091-2.042-2.608,15.569-4.044,14.27"/>
<path fill="none" stroke="#BF0000" d="M141.52,82.255c2,5.833,6.301,4.488,12.467,4.144c4.1-0.229,4.571-0.201,7.947-1.449
	c3.256-1.203,1.254-6.072,8.125-4.656c2.454-7.964-5.447-11.457-5.741-18.776c9.509-0.314,19.223,0.231,28.717-0.248
	c0.667-12.83,2.077-17.617,8.151-27.849"/>
<path fill="none" stroke="#BF0000" d="M193.52,60.755c2.169-1.473,2.463-1.54,4.474-4.286c2.214,4.942,3.944,10.778,4.363,16.805
	c2.883,2.999,4.125,11.434,8.729,13.192c3.831,1.463,16.079-2.283,20.87-3.219c8.278-1.617,34.985-4.608,35.396-16.659"/>
<path fill="none" stroke="#BF0000" d="M224.187,47.422c-2.417,0.932-2.968,2.615-5.877,3.151c0.284,3.582-1.875,8.552-1.368,11.655
	c0.773,4.734,1.998,3.673,4.078,7.409c3.657,6.566,6.818,7.415,4.167,15.451"/>
<path fill="none" stroke="#BF0000" d="M250.187,53.422c-6.802,3.557,0.315,20.781-7.667,28"/>
<path fill="none" stroke="#0060B6" d="M283.687,113.755"/>
<path fill="none" stroke="#0060B6" d="M277.02,112.588"/>
<path fill="none" stroke="#0060B6" d="M101.187,123.422c10.304-1.364,13.925,7.474,21.196,7.797
	c4.247,0.188,13.775-8.704,19.052-10.379c17.667-5.609,31.456,7.194,48.53,7.582c8.69,0.197,18.012-0.293,26.171-2
	c7.9-1.653,11.775-7.478,19.007-10.048c19.931-7.084,38.093,0.708,48.545-2.618"/>
<path fill="none" stroke="#0060B6" d="M155.187,98.422c13.508-4.301,17.827,4.036,27.968,10.055
	c8.564,5.083,16.755,7.314,15.866,19.778"/>
<path fill="none" stroke="#0060B6" d="M226.187,106.422c6.13,3.832,6.179,6.621,14.877,8.123c-0.686,4.114-1.767,6.473-3.877,9.877"
	/>
<path fill="none" stroke="#BF0000" d="M48.687,89.422c0.905,1.358,2.226,1.095,3.568,1.682c1.242,0.543,2.117,1.403,3.424,1.826
	c2.748,0.887,5.511,1.278,8.397,2.047c5.472,1.458,11.405,4.534,17.36,4.695"/>
</svg>
