<?xml version='1.0' encoding='utf-8'?>
<svg height="857.40mm" viewBox="0.0 0.0 222.20 857.40" width="222.20mm" xmlns="http://www.w3.org/2000/svg" xmlns:cc="http://creativecommons.org/ns#" xmlns:dc="http://purl.org/dc/elements/1.1/" xmlns:inkscape="http://www.inkscape.org/namespaces/inkscape" xmlns:rdf="http://www.w3.org/1999/02/22-rdf-syntax-ns#" xmlns:svg="http://www.w3.org/2000/svg" xmlns:xlink="http://www.w3.org/1999/xlink">
<!--
TrayInsert - Tray insert without floor and outer walls - allows only continuous walls


## Tray/Box insert dividers.
Tray insert with extra margin for that perfect fit.

You can specify the grid sizes with the standard `(sx, sy)` format, which allows nice
variable rows and columns.  If you  check the `outside` box, the full outside of the
tray insert ends up being the sum of all the sx/sy values.  However, if you want a
consistent cell size, and uncheck outside, then the overall dimensions end up
larger by `(n-1)*thickness`, to make space for your walls.

You can specify the `x` and `y` parameters if you like, just make them larger than
what the sum of `(sx, sy)` would end up with, and the walls be automatically extended to
to exactly fill the inside of your tray or box.

So, for example, if you're fitting `30mm x 40mm` items and want them to
fit inside a `250mm x 300mm` box, you can specify

    sx = 30*8
    sy = 40*7
    uncheck outside
    x=250
    y=300

This frees your mind into separately thinking about the cell size vs the overall box size.

![Tray Extra](static/samples/TrayInsert-3.jpg)
    


Created with Boxes.py (https://boxes.hackerspace-bamberg.de/)
Creation date: 2025-07-11 08:05:09
Command line (remove spaces between dashes): boxes TrayInsert '- -sx=27*7' '- -sy=27*7' - -h=50 - -x=202 - -y=202
Url: https://boxes.hackerspace-bamberg.de/TrayInsert?sx=27*7&sy=27*7&h=50&outside=0&outside=1&x=202&y=202&draft_angle=0.0&thickness=3.0&format=svg&tabs=0.0&qr_code=0&debug=0&labels=0&labels=1&reference=100.0&inner_corners=loop&burn=0.1&language=de&render=2
Url short: https://boxes.hackerspace-bamberg.de/TrayInsert?sx=27*7&sy=27*7&h=50&x=202&y=202
SettingsUrl: https://boxes.hackerspace-bamberg.de/TrayInsert?sx=27*7&sy=27*7&h=50&outside=0&outside=1&x=202&y=202&draft_angle=0.0&thickness=3.0&format=svg&tabs=0.0&qr_code=0&debug=0&labels=0&labels=1&reference=100.0&inner_corners=loop&burn=0.1&language=de&render=2
SettingsUrl short: https://boxes.hackerspace-bamberg.de/TrayInsert?sx=27*7&sy=27*7&h=50&x=202&y=202
-->
<title>TrayInsert</title>
<metadata>
<rdf:RDF><cc:Work>
<dc:title>Tray - TrayInsert</dc:title>
<dc:date>2025-07-11 08:05:09</dc:date>
<dc:source>https://boxes.hackerspace-bamberg.de/TrayInsert?sx=27*7&amp;sy=27*7&amp;h=50&amp;outside=0&amp;outside=1&amp;x=202&amp;y=202&amp;draft_angle=0.0&amp;thickness=3.0&amp;format=svg&amp;tabs=0.0&amp;qr_code=0&amp;debug=0&amp;labels=0&amp;labels=1&amp;reference=100.0&amp;inner_corners=loop&amp;burn=0.1&amp;language=de&amp;render=2</dc:source>
<dc:source>https://boxes.hackerspace-bamberg.de/TrayInsert?sx=27*7&amp;sy=27*7&amp;h=50&amp;x=202&amp;y=202</dc:source>
<dc:description>Tray insert without floor and outer walls - allows only continuous walls

## Tray/Box insert dividers.
Tray insert with extra margin for that perfect fit.

You can specify the grid sizes with the standard `(sx, sy)` format, which allows nice
variable rows and columns.  If you  check the `outside` box, the full outside of the
tray insert ends up being the sum of all the sx/sy values.  However, if you want a
consistent cell size, and uncheck outside, then the overall dimensions end up
larger by `(n-1)*thickness`, to make space for your walls.

You can specify the `x` and `y` parameters if you like, just make them larger than
what the sum of `(sx, sy)` would end up with, and the walls be automatically extended to
to exactly fill the inside of your tray or box.

So, for example, if you're fitting `30mm x 40mm` items and want them to
fit inside a `250mm x 300mm` box, you can specify

    sx = 30*8
    sy = 40*7
    uncheck outside
    x=250
    y=300

This frees your mind into separately thinking about the cell size vs the overall box size.

![Tray Extra](static/samples/TrayInsert-3.jpg)
    

Created with Boxes.py (https://boxes.hackerspace-bamberg.de/)
Command line: boxes TrayInsert '--sx=27*7' '--sy=27*7' --h=50 --outside=0 --outside=1 --x=202 --y=202 --draft_angle=0.0 --thickness=3.0 --format=svg --tabs=0.0 --qr_code=0 --debug=0 --labels=0 --labels=1 --reference=100.0 --inner_corners=loop --burn=0.1
Command line short: boxes TrayInsert '--sx=27*7' '--sy=27*7' --h=50 --x=202 --y=202
Url: https://boxes.hackerspace-bamberg.de/TrayInsert?sx=27*7&amp;sy=27*7&amp;h=50&amp;outside=0&amp;outside=1&amp;x=202&amp;y=202&amp;draft_angle=0.0&amp;thickness=3.0&amp;format=svg&amp;tabs=0.0&amp;qr_code=0&amp;debug=0&amp;labels=0&amp;labels=1&amp;reference=100.0&amp;inner_corners=loop&amp;burn=0.1&amp;language=de&amp;render=2
Url short: https://boxes.hackerspace-bamberg.de/TrayInsert?sx=27*7&amp;sy=27*7&amp;h=50&amp;x=202&amp;y=202
SettingsUrl: https://boxes.hackerspace-bamberg.de/TrayInsert?sx=27*7&amp;sy=27*7&amp;h=50&amp;outside=0&amp;outside=1&amp;x=202&amp;y=202&amp;draft_angle=0.0&amp;thickness=3.0&amp;format=svg&amp;tabs=0.0&amp;qr_code=0&amp;debug=0&amp;labels=0&amp;labels=1&amp;reference=100.0&amp;inner_corners=loop&amp;burn=0.1&amp;language=de&amp;render=2
SettingsUrl short: https://boxes.hackerspace-bamberg.de/TrayInsert?sx=27*7&amp;sy=27*7&amp;h=50&amp;x=202&amp;y=202
</dc:description>
</cc:Work></rdf:RDF></metadata>
<g id="p-0" style="fill:none;stroke-linecap:round;stroke-linejoin:round;">
  <path d="M 10.100 847.400 H 110.100 V 837.400 H 10.100 V 847.400 Z" stroke="rgb(0,0,0)" stroke-width="0.20" />
  <text dominant-baseline="hanging" font-size="6px" style="font-family: sans-serif ; font-weight: normal; font-style: normal; fill: rgb(255,0,0)" text-anchor="middle" transform="matrix( 1.000 0.000 0.000 1.000 60.100 839.400 )">100.0mm, burn:0.10mm</text>
</g>
<g id="p-1" style="fill:none;stroke-linecap:round;stroke-linejoin:round;">
  <path d="M 10.100 835.700 H 13.600 C 13.655 835.700 13.700 835.655 13.700 835.600 V 810.700 C 13.700 810.600 13.600 810.700 13.700 810.700 H 16.500 C 16.600 810.700 16.500 810.600 16.500 810.700 V 835.600 C 16.500 835.655 16.545 835.700 16.600 835.700 H 41.029 C 41.084 835.700 41.129 835.655 41.129 835.600 V 810.700 C 41.129 810.600 41.029 810.700 41.129 810.700 H 43.929 C 44.029 810.700 43.929 810.600 43.929 810.700 V 835.600 C 43.929 835.655 43.973 835.700 44.029 835.700 H 68.457 C 68.512 835.700 68.557 835.655 68.557 835.600 V 810.700 C 68.557 810.600 68.457 810.700 68.557 810.700 H 71.357 C 71.457 810.700 71.357 810.600 71.357 810.700 V 835.600 C 71.357 835.655 71.402 835.700 71.457 835.700 H 95.886 C 95.941 835.700 95.986 835.655 95.986 835.600 V 810.700 C 95.986 810.600 95.886 810.700 95.986 810.700 H 98.786 C 98.886 810.700 98.786 810.600 98.786 810.700 V 835.600 C 98.786 835.655 98.830 835.700 98.886 835.700 H 123.314 C 123.370 835.700 123.414 835.655 123.414 835.600 V 810.700 C 123.414 810.600 123.314 810.700 123.414 810.700 H 126.214 C 126.314 810.700 126.214 810.600 126.214 810.700 V 835.600 C 126.214 835.655 126.259 835.700 126.314 835.700 H 150.743 C 150.798 835.700 150.843 835.655 150.843 835.600 V 810.700 C 150.843 810.600 150.743 810.700 150.843 810.700 H 153.643 C 153.743 810.700 153.643 810.600 153.643 810.700 V 835.600 C 153.643 835.655 153.688 835.700 153.743 835.700 H 178.171 C 178.227 835.700 178.271 835.655 178.271 835.600 V 810.700 C 178.271 810.600 178.171 810.700 178.271 810.700 H 181.071 C 181.171 810.700 181.071 810.600 181.071 810.700 V 835.600 C 181.071 835.655 181.116 835.700 181.171 835.700 H 205.600 C 205.655 835.700 205.700 835.655 205.700 835.600 V 810.700 C 205.700 810.600 205.600 810.700 205.700 810.700 H 208.500 C 208.600 810.700 208.500 810.600 208.500 810.700 V 835.600 C 208.500 835.655 208.545 835.700 208.600 835.700 H 212.100 C 212.155 835.700 212.200 835.655 212.200 835.600 V 785.600 C 212.200 785.545 212.155 785.500 212.100 785.500 H 10.100 C 10.045 785.500 10.000 785.545 10.000 785.600 V 835.600 C 10.000 835.655 10.045 835.700 10.100 835.700 Z" stroke="rgb(0,0,0)" stroke-width="0.20" />
</g>
<g id="p-2" style="fill:none;stroke-linecap:round;stroke-linejoin:round;">
  <path d="M 10.100 784.000 H 13.600 C 13.655 784.000 13.700 783.955 13.700 783.900 V 759.000 C 13.700 758.900 13.600 759.000 13.700 759.000 H 16.500 C 16.600 759.000 16.500 758.900 16.500 759.000 V 783.900 C 16.500 783.955 16.545 784.000 16.600 784.000 H 41.029 C 41.084 784.000 41.129 783.955 41.129 783.900 V 759.000 C 41.129 758.900 41.029 759.000 41.129 759.000 H 43.929 C 44.029 759.000 43.929 758.900 43.929 759.000 V 783.900 C 43.929 783.955 43.973 784.000 44.029 784.000 H 68.457 C 68.512 784.000 68.557 783.955 68.557 783.900 V 759.000 C 68.557 758.900 68.457 759.000 68.557 759.000 H 71.357 C 71.457 759.000 71.357 758.900 71.357 759.000 V 783.900 C 71.357 783.955 71.402 784.000 71.457 784.000 H 95.886 C 95.941 784.000 95.986 783.955 95.986 783.900 V 759.000 C 95.986 758.900 95.886 759.000 95.986 759.000 H 98.786 C 98.886 759.000 98.786 758.900 98.786 759.000 V 783.900 C 98.786 783.955 98.830 784.000 98.886 784.000 H 123.314 C 123.370 784.000 123.414 783.955 123.414 783.900 V 759.000 C 123.414 758.900 123.314 759.000 123.414 759.000 H 126.214 C 126.314 759.000 126.214 758.900 126.214 759.000 V 783.900 C 126.214 783.955 126.259 784.000 126.314 784.000 H 150.743 C 150.798 784.000 150.843 783.955 150.843 783.900 V 759.000 C 150.843 758.900 150.743 759.000 150.843 759.000 H 153.643 C 153.743 759.000 153.643 758.900 153.643 759.000 V 783.900 C 153.643 783.955 153.688 784.000 153.743 784.000 H 178.171 C 178.227 784.000 178.271 783.955 178.271 783.900 V 759.000 C 178.271 758.900 178.171 759.000 178.271 759.000 H 181.071 C 181.171 759.000 181.071 758.900 181.071 759.000 V 783.900 C 181.071 783.955 181.116 784.000 181.171 784.000 H 205.600 C 205.655 784.000 205.700 783.955 205.700 783.900 V 759.000 C 205.700 758.900 205.600 759.000 205.700 759.000 H 208.500 C 208.600 759.000 208.500 758.900 208.500 759.000 V 783.900 C 208.500 783.955 208.545 784.000 208.600 784.000 H 212.100 C 212.155 784.000 212.200 783.955 212.200 783.900 V 733.900 C 212.200 733.845 212.155 733.800 212.100 733.800 H 10.100 C 10.045 733.800 10.000 733.845 10.000 733.900 V 783.900 C 10.000 783.955 10.045 784.000 10.100 784.000 Z" stroke="rgb(0,0,0)" stroke-width="0.20" />
</g>
<g id="p-3" style="fill:none;stroke-linecap:round;stroke-linejoin:round;">
  <path d="M 10.100 732.300 H 13.600 C 13.655 732.300 13.700 732.255 13.700 732.200 V 707.300 C 13.700 707.200 13.600 707.300 13.700 707.300 H 16.500 C 16.600 707.300 16.500 707.200 16.500 707.300 V 732.200 C 16.500 732.255 16.545 732.300 16.600 732.300 H 41.029 C 41.084 732.300 41.129 732.255 41.129 732.200 V 707.300 C 41.129 707.200 41.029 707.300 41.129 707.300 H 43.929 C 44.029 707.300 43.929 707.200 43.929 707.300 V 732.200 C 43.929 732.255 43.973 732.300 44.029 732.300 H 68.457 C 68.512 732.300 68.557 732.255 68.557 732.200 V 707.300 C 68.557 707.200 68.457 707.300 68.557 707.300 H 71.357 C 71.457 707.300 71.357 707.200 71.357 707.300 V 732.200 C 71.357 732.255 71.402 732.300 71.457 732.300 H 95.886 C 95.941 732.300 95.986 732.255 95.986 732.200 V 707.300 C 95.986 707.200 95.886 707.300 95.986 707.300 H 98.786 C 98.886 707.300 98.786 707.200 98.786 707.300 V 732.200 C 98.786 732.255 98.830 732.300 98.886 732.300 H 123.314 C 123.370 732.300 123.414 732.255 123.414 732.200 V 707.300 C 123.414 707.200 123.314 707.300 123.414 707.300 H 126.214 C 126.314 707.300 126.214 707.200 126.214 707.300 V 732.200 C 126.214 732.255 126.259 732.300 126.314 732.300 H 150.743 C 150.798 732.300 150.843 732.255 150.843 732.200 V 707.300 C 150.843 707.200 150.743 707.300 150.843 707.300 H 153.643 C 153.743 707.300 153.643 707.200 153.643 707.300 V 732.200 C 153.643 732.255 153.688 732.300 153.743 732.300 H 178.171 C 178.227 732.300 178.271 732.255 178.271 732.200 V 707.300 C 178.271 707.200 178.171 707.300 178.271 707.300 H 181.071 C 181.171 707.300 181.071 707.200 181.071 707.300 V 732.200 C 181.071 732.255 181.116 732.300 181.171 732.300 H 205.600 C 205.655 732.300 205.700 732.255 205.700 732.200 V 707.300 C 205.700 707.200 205.600 707.300 205.700 707.300 H 208.500 C 208.600 707.300 208.500 707.200 208.500 707.300 V 732.200 C 208.500 732.255 208.545 732.300 208.600 732.300 H 212.100 C 212.155 732.300 212.200 732.255 212.200 732.200 V 682.200 C 212.200 682.145 212.155 682.100 212.100 682.100 H 10.100 C 10.045 682.100 10.000 682.145 10.000 682.200 V 732.200 C 10.000 732.255 10.045 732.300 10.100 732.300 Z" stroke="rgb(0,0,0)" stroke-width="0.20" />
</g>
<g id="p-4" style="fill:none;stroke-linecap:round;stroke-linejoin:round;">
  <path d="M 10.100 680.600 H 13.600 C 13.655 680.600 13.700 680.555 13.700 680.500 V 655.600 C 13.700 655.500 13.600 655.600 13.700 655.600 H 16.500 C 16.600 655.600 16.500 655.500 16.500 655.600 V 680.500 C 16.500 680.555 16.545 680.600 16.600 680.600 H 41.029 C 41.084 680.600 41.129 680.555 41.129 680.500 V 655.600 C 41.129 655.500 41.029 655.600 41.129 655.600 H 43.929 C 44.029 655.600 43.929 655.500 43.929 655.600 V 680.500 C 43.929 680.555 43.973 680.600 44.029 680.600 H 68.457 C 68.512 680.600 68.557 680.555 68.557 680.500 V 655.600 C 68.557 655.500 68.457 655.600 68.557 655.600 H 71.357 C 71.457 655.600 71.357 655.500 71.357 655.600 V 680.500 C 71.357 680.555 71.402 680.600 71.457 680.600 H 95.886 C 95.941 680.600 95.986 680.555 95.986 680.500 V 655.600 C 95.986 655.500 95.886 655.600 95.986 655.600 H 98.786 C 98.886 655.600 98.786 655.500 98.786 655.600 V 680.500 C 98.786 680.555 98.830 680.600 98.886 680.600 H 123.314 C 123.370 680.600 123.414 680.555 123.414 680.500 V 655.600 C 123.414 655.500 123.314 655.600 123.414 655.600 H 126.214 C 126.314 655.600 126.214 655.500 126.214 655.600 V 680.500 C 126.214 680.555 126.259 680.600 126.314 680.600 H 150.743 C 150.798 680.600 150.843 680.555 150.843 680.500 V 655.600 C 150.843 655.500 150.743 655.600 150.843 655.600 H 153.643 C 153.743 655.600 153.643 655.500 153.643 655.600 V 680.500 C 153.643 680.555 153.688 680.600 153.743 680.600 H 178.171 C 178.227 680.600 178.271 680.555 178.271 680.500 V 655.600 C 178.271 655.500 178.171 655.600 178.271 655.600 H 181.071 C 181.171 655.600 181.071 655.500 181.071 655.600 V 680.500 C 181.071 680.555 181.116 680.600 181.171 680.600 H 205.600 C 205.655 680.600 205.700 680.555 205.700 680.500 V 655.600 C 205.700 655.500 205.600 655.600 205.700 655.600 H 208.500 C 208.600 655.600 208.500 655.500 208.500 655.600 V 680.500 C 208.500 680.555 208.545 680.600 208.600 680.600 H 212.100 C 212.155 680.600 212.200 680.555 212.200 680.500 V 630.500 C 212.200 630.445 212.155 630.400 212.100 630.400 H 10.100 C 10.045 630.400 10.000 630.445 10.000 630.500 V 680.500 C 10.000 680.555 10.045 680.600 10.100 680.600 Z" stroke="rgb(0,0,0)" stroke-width="0.20" />
</g>
<g id="p-5" style="fill:none;stroke-linecap:round;stroke-linejoin:round;">
  <path d="M 10.100 628.900 H 13.600 C 13.655 628.900 13.700 628.855 13.700 628.800 V 603.900 C 13.700 603.800 13.600 603.900 13.700 603.900 H 16.500 C 16.600 603.900 16.500 603.800 16.500 603.900 V 628.800 C 16.500 628.855 16.545 628.900 16.600 628.900 H 41.029 C 41.084 628.900 41.129 628.855 41.129 628.800 V 603.900 C 41.129 603.800 41.029 603.900 41.129 603.900 H 43.929 C 44.029 603.900 43.929 603.800 43.929 603.900 V 628.800 C 43.929 628.855 43.973 628.900 44.029 628.900 H 68.457 C 68.512 628.900 68.557 628.855 68.557 628.800 V 603.900 C 68.557 603.800 68.457 603.900 68.557 603.900 H 71.357 C 71.457 603.900 71.357 603.800 71.357 603.900 V 628.800 C 71.357 628.855 71.402 628.900 71.457 628.900 H 95.886 C 95.941 628.900 95.986 628.855 95.986 628.800 V 603.900 C 95.986 603.800 95.886 603.900 95.986 603.900 H 98.786 C 98.886 603.900 98.786 603.800 98.786 603.900 V 628.800 C 98.786 628.855 98.830 628.900 98.886 628.900 H 123.314 C 123.370 628.900 123.414 628.855 123.414 628.800 V 603.900 C 123.414 603.800 123.314 603.900 123.414 603.900 H 126.214 C 126.314 603.900 126.214 603.800 126.214 603.900 V 628.800 C 126.214 628.855 126.259 628.900 126.314 628.900 H 150.743 C 150.798 628.900 150.843 628.855 150.843 628.800 V 603.900 C 150.843 603.800 150.743 603.900 150.843 603.900 H 153.643 C 153.743 603.900 153.643 603.800 153.643 603.900 V 628.800 C 153.643 628.855 153.688 628.900 153.743 628.900 H 178.171 C 178.227 628.900 178.271 628.855 178.271 628.800 V 603.900 C 178.271 603.800 178.171 603.900 178.271 603.900 H 181.071 C 181.171 603.900 181.071 603.800 181.071 603.900 V 628.800 C 181.071 628.855 181.116 628.900 181.171 628.900 H 205.600 C 205.655 628.900 205.700 628.855 205.700 628.800 V 603.900 C 205.700 603.800 205.600 603.900 205.700 603.900 H 208.500 C 208.600 603.900 208.500 603.800 208.500 603.900 V 628.800 C 208.500 628.855 208.545 628.900 208.600 628.900 H 212.100 C 212.155 628.900 212.200 628.855 212.200 628.800 V 578.800 C 212.200 578.745 212.155 578.700 212.100 578.700 H 10.100 C 10.045 578.700 10.000 578.745 10.000 578.800 V 628.800 C 10.000 628.855 10.045 628.900 10.100 628.900 Z" stroke="rgb(0,0,0)" stroke-width="0.20" />
</g>
<g id="p-6" style="fill:none;stroke-linecap:round;stroke-linejoin:round;">
  <path d="M 10.100 577.200 H 13.600 C 13.655 577.200 13.700 577.155 13.700 577.100 V 552.200 C 13.700 552.100 13.600 552.200 13.700 552.200 H 16.500 C 16.600 552.200 16.500 552.100 16.500 552.200 V 577.100 C 16.500 577.155 16.545 577.200 16.600 577.200 H 41.029 C 41.084 577.200 41.129 577.155 41.129 577.100 V 552.200 C 41.129 552.100 41.029 552.200 41.129 552.200 H 43.929 C 44.029 552.200 43.929 552.100 43.929 552.200 V 577.100 C 43.929 577.155 43.973 577.200 44.029 577.200 H 68.457 C 68.512 577.200 68.557 577.155 68.557 577.100 V 552.200 C 68.557 552.100 68.457 552.200 68.557 552.200 H 71.357 C 71.457 552.200 71.357 552.100 71.357 552.200 V 577.100 C 71.357 577.155 71.402 577.200 71.457 577.200 H 95.886 C 95.941 577.200 95.986 577.155 95.986 577.100 V 552.200 C 95.986 552.100 95.886 552.200 95.986 552.200 H 98.786 C 98.886 552.200 98.786 552.100 98.786 552.200 V 577.100 C 98.786 577.155 98.830 577.200 98.886 577.200 H 123.314 C 123.370 577.200 123.414 577.155 123.414 577.100 V 552.200 C 123.414 552.100 123.314 552.200 123.414 552.200 H 126.214 C 126.314 552.200 126.214 552.100 126.214 552.200 V 577.100 C 126.214 577.155 126.259 577.200 126.314 577.200 H 150.743 C 150.798 577.200 150.843 577.155 150.843 577.100 V 552.200 C 150.843 552.100 150.743 552.200 150.843 552.200 H 153.643 C 153.743 552.200 153.643 552.100 153.643 552.200 V 577.100 C 153.643 577.155 153.688 577.200 153.743 577.200 H 178.171 C 178.227 577.200 178.271 577.155 178.271 577.100 V 552.200 C 178.271 552.100 178.171 552.200 178.271 552.200 H 181.071 C 181.171 552.200 181.071 552.100 181.071 552.200 V 577.100 C 181.071 577.155 181.116 577.200 181.171 577.200 H 205.600 C 205.655 577.200 205.700 577.155 205.700 577.100 V 552.200 C 205.700 552.100 205.600 552.200 205.700 552.200 H 208.500 C 208.600 552.200 208.500 552.100 208.500 552.200 V 577.100 C 208.500 577.155 208.545 577.200 208.600 577.200 H 212.100 C 212.155 577.200 212.200 577.155 212.200 577.100 V 527.100 C 212.200 527.045 212.155 527.000 212.100 527.000 H 10.100 C 10.045 527.000 10.000 527.045 10.000 527.100 V 577.100 C 10.000 577.155 10.045 577.200 10.100 577.200 Z" stroke="rgb(0,0,0)" stroke-width="0.20" />
</g>
<g id="p-7" style="fill:none;stroke-linecap:round;stroke-linejoin:round;">
  <path d="M 10.100 525.500 H 13.600 C 13.655 525.500 13.700 525.455 13.700 525.400 V 500.500 C 13.700 500.400 13.600 500.500 13.700 500.500 H 16.500 C 16.600 500.500 16.500 500.400 16.500 500.500 V 525.400 C 16.500 525.455 16.545 525.500 16.600 525.500 H 41.029 C 41.084 525.500 41.129 525.455 41.129 525.400 V 500.500 C 41.129 500.400 41.029 500.500 41.129 500.500 H 43.929 C 44.029 500.500 43.929 500.400 43.929 500.500 V 525.400 C 43.929 525.455 43.973 525.500 44.029 525.500 H 68.457 C 68.512 525.500 68.557 525.455 68.557 525.400 V 500.500 C 68.557 500.400 68.457 500.500 68.557 500.500 H 71.357 C 71.457 500.500 71.357 500.400 71.357 500.500 V 525.400 C 71.357 525.455 71.402 525.500 71.457 525.500 H 95.886 C 95.941 525.500 95.986 525.455 95.986 525.400 V 500.500 C 95.986 500.400 95.886 500.500 95.986 500.500 H 98.786 C 98.886 500.500 98.786 500.400 98.786 500.500 V 525.400 C 98.786 525.455 98.830 525.500 98.886 525.500 H 123.314 C 123.370 525.500 123.414 525.455 123.414 525.400 V 500.500 C 123.414 500.400 123.314 500.500 123.414 500.500 H 126.214 C 126.314 500.500 126.214 500.400 126.214 500.500 V 525.400 C 126.214 525.455 126.259 525.500 126.314 525.500 H 150.743 C 150.798 525.500 150.843 525.455 150.843 525.400 V 500.500 C 150.843 500.400 150.743 500.500 150.843 500.500 H 153.643 C 153.743 500.500 153.643 500.400 153.643 500.500 V 525.400 C 153.643 525.455 153.688 525.500 153.743 525.500 H 178.171 C 178.227 525.500 178.271 525.455 178.271 525.400 V 500.500 C 178.271 500.400 178.171 500.500 178.271 500.500 H 181.071 C 181.171 500.500 181.071 500.400 181.071 500.500 V 525.400 C 181.071 525.455 181.116 525.500 181.171 525.500 H 205.600 C 205.655 525.500 205.700 525.455 205.700 525.400 V 500.500 C 205.700 500.400 205.600 500.500 205.700 500.500 H 208.500 C 208.600 500.500 208.500 500.400 208.500 500.500 V 525.400 C 208.500 525.455 208.545 525.500 208.600 525.500 H 212.100 C 212.155 525.500 212.200 525.455 212.200 525.400 V 475.400 C 212.200 475.345 212.155 475.300 212.100 475.300 H 10.100 C 10.045 475.300 10.000 475.345 10.000 475.400 V 525.400 C 10.000 525.455 10.045 525.500 10.100 525.500 Z" stroke="rgb(0,0,0)" stroke-width="0.20" />
</g>
<g id="p-8" style="fill:none;stroke-linecap:round;stroke-linejoin:round;">
  <path d="M 10.100 473.800 H 13.600 C 13.655 473.800 13.700 473.755 13.700 473.700 V 448.800 C 13.700 448.700 13.600 448.800 13.700 448.800 H 16.500 C 16.600 448.800 16.500 448.700 16.500 448.800 V 473.700 C 16.500 473.755 16.545 473.800 16.600 473.800 H 41.029 C 41.084 473.800 41.129 473.755 41.129 473.700 V 448.800 C 41.129 448.700 41.029 448.800 41.129 448.800 H 43.929 C 44.029 448.800 43.929 448.700 43.929 448.800 V 473.700 C 43.929 473.755 43.973 473.800 44.029 473.800 H 68.457 C 68.512 473.800 68.557 473.755 68.557 473.700 V 448.800 C 68.557 448.700 68.457 448.800 68.557 448.800 H 71.357 C 71.457 448.800 71.357 448.700 71.357 448.800 V 473.700 C 71.357 473.755 71.402 473.800 71.457 473.800 H 95.886 C 95.941 473.800 95.986 473.755 95.986 473.700 V 448.800 C 95.986 448.700 95.886 448.800 95.986 448.800 H 98.786 C 98.886 448.800 98.786 448.700 98.786 448.800 V 473.700 C 98.786 473.755 98.830 473.800 98.886 473.800 H 123.314 C 123.370 473.800 123.414 473.755 123.414 473.700 V 448.800 C 123.414 448.700 123.314 448.800 123.414 448.800 H 126.214 C 126.314 448.800 126.214 448.700 126.214 448.800 V 473.700 C 126.214 473.755 126.259 473.800 126.314 473.800 H 150.743 C 150.798 473.800 150.843 473.755 150.843 473.700 V 448.800 C 150.843 448.700 150.743 448.800 150.843 448.800 H 153.643 C 153.743 448.800 153.643 448.700 153.643 448.800 V 473.700 C 153.643 473.755 153.688 473.800 153.743 473.800 H 178.171 C 178.227 473.800 178.271 473.755 178.271 473.700 V 448.800 C 178.271 448.700 178.171 448.800 178.271 448.800 H 181.071 C 181.171 448.800 181.071 448.700 181.071 448.800 V 473.700 C 181.071 473.755 181.116 473.800 181.171 473.800 H 205.600 C 205.655 473.800 205.700 473.755 205.700 473.700 V 448.800 C 205.700 448.700 205.600 448.800 205.700 448.800 H 208.500 C 208.600 448.800 208.500 448.700 208.500 448.800 V 473.700 C 208.500 473.755 208.545 473.800 208.600 473.800 H 212.100 C 212.155 473.800 212.200 473.755 212.200 473.700 V 423.700 C 212.200 423.645 212.155 423.600 212.100 423.600 H 10.100 C 10.045 423.600 10.000 423.645 10.000 423.700 V 473.700 C 10.000 473.755 10.045 473.800 10.100 473.800 Z" stroke="rgb(0,0,0)" stroke-width="0.20" />
</g>
<g id="p-9" style="fill:none;stroke-linecap:round;stroke-linejoin:round;">
  <path d="M 10.100 422.100 H 212.100 C 212.155 422.100 212.200 422.055 212.200 422.000 V 372.000 C 212.200 371.945 212.155 371.900 212.100 371.900 H 208.600 C 208.545 371.900 208.500 371.945 208.500 372.000 V 396.900 C 208.500 397.000 208.600 396.900 208.500 396.900 H 205.700 C 205.600 396.900 205.700 397.000 205.700 396.900 V 372.000 C 205.700 371.945 205.655 371.900 205.600 371.900 H 181.171 C 181.116 371.900 181.071 371.945 181.071 372.000 V 396.900 C 181.071 397.000 181.171 396.900 181.071 396.900 H 178.271 C 178.171 396.900 178.271 397.000 178.271 396.900 V 372.000 C 178.271 371.945 178.227 371.900 178.171 371.900 H 153.743 C 153.688 371.900 153.643 371.945 153.643 372.000 V 396.900 C 153.643 397.000 153.743 396.900 153.643 396.900 H 150.843 C 150.743 396.900 150.843 397.000 150.843 396.900 V 372.000 C 150.843 371.945 150.798 371.900 150.743 371.900 H 126.314 C 126.259 371.900 126.214 371.945 126.214 372.000 V 396.900 C 126.214 397.000 126.314 396.900 126.214 396.900 H 123.414 C 123.314 396.900 123.414 397.000 123.414 396.900 V 372.000 C 123.414 371.945 123.370 371.900 123.314 371.900 H 98.886 C 98.830 371.900 98.786 371.945 98.786 372.000 V 396.900 C 98.786 397.000 98.886 396.900 98.786 396.900 H 95.986 C 95.886 396.900 95.986 397.000 95.986 396.900 V 372.000 C 95.986 371.945 95.941 371.900 95.886 371.900 H 71.457 C 71.402 371.900 71.357 371.945 71.357 372.000 V 396.900 C 71.357 397.000 71.457 396.900 71.357 396.900 H 68.557 C 68.457 396.900 68.557 397.000 68.557 396.900 V 372.000 C 68.557 371.945 68.512 371.900 68.457 371.900 H 44.029 C 43.973 371.900 43.929 371.945 43.929 372.000 V 396.900 C 43.929 397.000 44.029 396.900 43.929 396.900 H 41.129 C 41.029 396.900 41.129 397.000 41.129 396.900 V 372.000 C 41.129 371.945 41.084 371.900 41.029 371.900 H 16.600 C 16.545 371.900 16.500 371.945 16.500 372.000 V 396.900 C 16.500 397.000 16.600 396.900 16.500 396.900 H 13.700 C 13.600 396.900 13.700 397.000 13.700 396.900 V 372.000 C 13.700 371.945 13.655 371.900 13.600 371.900 H 10.100 C 10.045 371.900 10.000 371.945 10.000 372.000 V 422.000 C 10.000 422.055 10.045 422.100 10.100 422.100 Z" stroke="rgb(0,0,0)" stroke-width="0.20" />
</g>
<g id="p-10" style="fill:none;stroke-linecap:round;stroke-linejoin:round;">
  <path d="M 10.100 370.400 H 212.100 C 212.155 370.400 212.200 370.355 212.200 370.300 V 320.300 C 212.200 320.245 212.155 320.200 212.100 320.200 H 208.600 C 208.545 320.200 208.500 320.245 208.500 320.300 V 345.200 C 208.500 345.300 208.600 345.200 208.500 345.200 H 205.700 C 205.600 345.200 205.700 345.300 205.700 345.200 V 320.300 C 205.700 320.245 205.655 320.200 205.600 320.200 H 181.171 C 181.116 320.200 181.071 320.245 181.071 320.300 V 345.200 C 181.071 345.300 181.171 345.200 181.071 345.200 H 178.271 C 178.171 345.200 178.271 345.300 178.271 345.200 V 320.300 C 178.271 320.245 178.227 320.200 178.171 320.200 H 153.743 C 153.688 320.200 153.643 320.245 153.643 320.300 V 345.200 C 153.643 345.300 153.743 345.200 153.643 345.200 H 150.843 C 150.743 345.200 150.843 345.300 150.843 345.200 V 320.300 C 150.843 320.245 150.798 320.200 150.743 320.200 H 126.314 C 126.259 320.200 126.214 320.245 126.214 320.300 V 345.200 C 126.214 345.300 126.314 345.200 126.214 345.200 H 123.414 C 123.314 345.200 123.414 345.300 123.414 345.200 V 320.300 C 123.414 320.245 123.370 320.200 123.314 320.200 H 98.886 C 98.830 320.200 98.786 320.245 98.786 320.300 V 345.200 C 98.786 345.300 98.886 345.200 98.786 345.200 H 95.986 C 95.886 345.200 95.986 345.300 95.986 345.200 V 320.300 C 95.986 320.245 95.941 320.200 95.886 320.200 H 71.457 C 71.402 320.200 71.357 320.245 71.357 320.300 V 345.200 C 71.357 345.300 71.457 345.200 71.357 345.200 H 68.557 C 68.457 345.200 68.557 345.300 68.557 345.200 V 320.300 C 68.557 320.245 68.512 320.200 68.457 320.200 H 44.029 C 43.973 320.200 43.929 320.245 43.929 320.300 V 345.200 C 43.929 345.300 44.029 345.200 43.929 345.200 H 41.129 C 41.029 345.200 41.129 345.300 41.129 345.200 V 320.300 C 41.129 320.245 41.084 320.200 41.029 320.200 H 16.600 C 16.545 320.200 16.500 320.245 16.500 320.300 V 345.200 C 16.500 345.300 16.600 345.200 16.500 345.200 H 13.700 C 13.600 345.200 13.700 345.300 13.700 345.200 V 320.300 C 13.700 320.245 13.655 320.200 13.600 320.200 H 10.100 C 10.045 320.200 10.000 320.245 10.000 320.300 V 370.300 C 10.000 370.355 10.045 370.400 10.100 370.400 Z" stroke="rgb(0,0,0)" stroke-width="0.20" />
</g>
<g id="p-11" style="fill:none;stroke-linecap:round;stroke-linejoin:round;">
  <path d="M 10.100 318.700 H 212.100 C 212.155 318.700 212.200 318.655 212.200 318.600 V 268.600 C 212.200 268.545 212.155 268.500 212.100 268.500 H 208.600 C 208.545 268.500 208.500 268.545 208.500 268.600 V 293.500 C 208.500 293.600 208.600 293.500 208.500 293.500 H 205.700 C 205.600 293.500 205.700 293.600 205.700 293.500 V 268.600 C 205.700 268.545 205.655 268.500 205.600 268.500 H 181.171 C 181.116 268.500 181.071 268.545 181.071 268.600 V 293.500 C 181.071 293.600 181.171 293.500 181.071 293.500 H 178.271 C 178.171 293.500 178.271 293.600 178.271 293.500 V 268.600 C 178.271 268.545 178.227 268.500 178.171 268.500 H 153.743 C 153.688 268.500 153.643 268.545 153.643 268.600 V 293.500 C 153.643 293.600 153.743 293.500 153.643 293.500 H 150.843 C 150.743 293.500 150.843 293.600 150.843 293.500 V 268.600 C 150.843 268.545 150.798 268.500 150.743 268.500 H 126.314 C 126.259 268.500 126.214 268.545 126.214 268.600 V 293.500 C 126.214 293.600 126.314 293.500 126.214 293.500 H 123.414 C 123.314 293.500 123.414 293.600 123.414 293.500 V 268.600 C 123.414 268.545 123.370 268.500 123.314 268.500 H 98.886 C 98.830 268.500 98.786 268.545 98.786 268.600 V 293.500 C 98.786 293.600 98.886 293.500 98.786 293.500 H 95.986 C 95.886 293.500 95.986 293.600 95.986 293.500 V 268.600 C 95.986 268.545 95.941 268.500 95.886 268.500 H 71.457 C 71.402 268.500 71.357 268.545 71.357 268.600 V 293.500 C 71.357 293.600 71.457 293.500 71.357 293.500 H 68.557 C 68.457 293.500 68.557 293.600 68.557 293.500 V 268.600 C 68.557 268.545 68.512 268.500 68.457 268.500 H 44.029 C 43.973 268.500 43.929 268.545 43.929 268.600 V 293.500 C 43.929 293.600 44.029 293.500 43.929 293.500 H 41.129 C 41.029 293.500 41.129 293.600 41.129 293.500 V 268.600 C 41.129 268.545 41.084 268.500 41.029 268.500 H 16.600 C 16.545 268.500 16.500 268.545 16.500 268.600 V 293.500 C 16.500 293.600 16.600 293.500 16.500 293.500 H 13.700 C 13.600 293.500 13.700 293.600 13.700 293.500 V 268.600 C 13.700 268.545 13.655 268.500 13.600 268.500 H 10.100 C 10.045 268.500 10.000 268.545 10.000 268.600 V 318.600 C 10.000 318.655 10.045 318.700 10.100 318.700 Z" stroke="rgb(0,0,0)" stroke-width="0.20" />
</g>
<g id="p-12" style="fill:none;stroke-linecap:round;stroke-linejoin:round;">
  <path d="M 10.100 267.000 H 212.100 C 212.155 267.000 212.200 266.955 212.200 266.900 V 216.900 C 212.200 216.845 212.155 216.800 212.100 216.800 H 208.600 C 208.545 216.800 208.500 216.845 208.500 216.900 V 241.800 C 208.500 241.900 208.600 241.800 208.500 241.800 H 205.700 C 205.600 241.800 205.700 241.900 205.700 241.800 V 216.900 C 205.700 216.845 205.655 216.800 205.600 216.800 H 181.171 C 181.116 216.800 181.071 216.845 181.071 216.900 V 241.800 C 181.071 241.900 181.171 241.800 181.071 241.800 H 178.271 C 178.171 241.800 178.271 241.900 178.271 241.800 V 216.900 C 178.271 216.845 178.227 216.800 178.171 216.800 H 153.743 C 153.688 216.800 153.643 216.845 153.643 216.900 V 241.800 C 153.643 241.900 153.743 241.800 153.643 241.800 H 150.843 C 150.743 241.800 150.843 241.900 150.843 241.800 V 216.900 C 150.843 216.845 150.798 216.800 150.743 216.800 H 126.314 C 126.259 216.800 126.214 216.845 126.214 216.900 V 241.800 C 126.214 241.900 126.314 241.800 126.214 241.800 H 123.414 C 123.314 241.800 123.414 241.900 123.414 241.800 V 216.900 C 123.414 216.845 123.370 216.800 123.314 216.800 H 98.886 C 98.830 216.800 98.786 216.845 98.786 216.900 V 241.800 C 98.786 241.900 98.886 241.800 98.786 241.800 H 95.986 C 95.886 241.800 95.986 241.900 95.986 241.800 V 216.900 C 95.986 216.845 95.941 216.800 95.886 216.800 H 71.457 C 71.402 216.800 71.357 216.845 71.357 216.900 V 241.800 C 71.357 241.900 71.457 241.800 71.357 241.800 H 68.557 C 68.457 241.800 68.557 241.900 68.557 241.800 V 216.900 C 68.557 216.845 68.512 216.800 68.457 216.800 H 44.029 C 43.973 216.800 43.929 216.845 43.929 216.900 V 241.800 C 43.929 241.900 44.029 241.800 43.929 241.800 H 41.129 C 41.029 241.800 41.129 241.900 41.129 241.800 V 216.900 C 41.129 216.845 41.084 216.800 41.029 216.800 H 16.600 C 16.545 216.800 16.500 216.845 16.500 216.900 V 241.800 C 16.500 241.900 16.600 241.800 16.500 241.800 H 13.700 C 13.600 241.800 13.700 241.900 13.700 241.800 V 216.900 C 13.700 216.845 13.655 216.800 13.600 216.800 H 10.100 C 10.045 216.800 10.000 216.845 10.000 216.900 V 266.900 C 10.000 266.955 10.045 267.000 10.100 267.000 Z" stroke="rgb(0,0,0)" stroke-width="0.20" />
</g>
<g id="p-13" style="fill:none;stroke-linecap:round;stroke-linejoin:round;">
  <path d="M 10.100 215.300 H 212.100 C 212.155 215.300 212.200 215.255 212.200 215.200 V 165.200 C 212.200 165.145 212.155 165.100 212.100 165.100 H 208.600 C 208.545 165.100 208.500 165.145 208.500 165.200 V 190.100 C 208.500 190.200 208.600 190.100 208.500 190.100 H 205.700 C 205.600 190.100 205.700 190.200 205.700 190.100 V 165.200 C 205.700 165.145 205.655 165.100 205.600 165.100 H 181.171 C 181.116 165.100 181.071 165.145 181.071 165.200 V 190.100 C 181.071 190.200 181.171 190.100 181.071 190.100 H 178.271 C 178.171 190.100 178.271 190.200 178.271 190.100 V 165.200 C 178.271 165.145 178.227 165.100 178.171 165.100 H 153.743 C 153.688 165.100 153.643 165.145 153.643 165.200 V 190.100 C 153.643 190.200 153.743 190.100 153.643 190.100 H 150.843 C 150.743 190.100 150.843 190.200 150.843 190.100 V 165.200 C 150.843 165.145 150.798 165.100 150.743 165.100 H 126.314 C 126.259 165.100 126.214 165.145 126.214 165.200 V 190.100 C 126.214 190.200 126.314 190.100 126.214 190.100 H 123.414 C 123.314 190.100 123.414 190.200 123.414 190.100 V 165.200 C 123.414 165.145 123.370 165.100 123.314 165.100 H 98.886 C 98.830 165.100 98.786 165.145 98.786 165.200 V 190.100 C 98.786 190.200 98.886 190.100 98.786 190.100 H 95.986 C 95.886 190.100 95.986 190.200 95.986 190.100 V 165.200 C 95.986 165.145 95.941 165.100 95.886 165.100 H 71.457 C 71.402 165.100 71.357 165.145 71.357 165.200 V 190.100 C 71.357 190.200 71.457 190.100 71.357 190.100 H 68.557 C 68.457 190.100 68.557 190.200 68.557 190.100 V 165.200 C 68.557 165.145 68.512 165.100 68.457 165.100 H 44.029 C 43.973 165.100 43.929 165.145 43.929 165.200 V 190.100 C 43.929 190.200 44.029 190.100 43.929 190.100 H 41.129 C 41.029 190.100 41.129 190.200 41.129 190.100 V 165.200 C 41.129 165.145 41.084 165.100 41.029 165.100 H 16.600 C 16.545 165.100 16.500 165.145 16.500 165.200 V 190.100 C 16.500 190.200 16.600 190.100 16.500 190.100 H 13.700 C 13.600 190.100 13.700 190.200 13.700 190.100 V 165.200 C 13.700 165.145 13.655 165.100 13.600 165.100 H 10.100 C 10.045 165.100 10.000 165.145 10.000 165.200 V 215.200 C 10.000 215.255 10.045 215.300 10.100 215.300 Z" stroke="rgb(0,0,0)" stroke-width="0.20" />
</g>
<g id="p-14" style="fill:none;stroke-linecap:round;stroke-linejoin:round;">
  <path d="M 10.100 163.600 H 212.100 C 212.155 163.600 212.200 163.555 212.200 163.500 V 113.500 C 212.200 113.445 212.155 113.400 212.100 113.400 H 208.600 C 208.545 113.400 208.500 113.445 208.500 113.500 V 138.400 C 208.500 138.500 208.600 138.400 208.500 138.400 H 205.700 C 205.600 138.400 205.700 138.500 205.700 138.400 V 113.500 C 205.700 113.445 205.655 113.400 205.600 113.400 H 181.171 C 181.116 113.400 181.071 113.445 181.071 113.500 V 138.400 C 181.071 138.500 181.171 138.400 181.071 138.400 H 178.271 C 178.171 138.400 178.271 138.500 178.271 138.400 V 113.500 C 178.271 113.445 178.227 113.400 178.171 113.400 H 153.743 C 153.688 113.400 153.643 113.445 153.643 113.500 V 138.400 C 153.643 138.500 153.743 138.400 153.643 138.400 H 150.843 C 150.743 138.400 150.843 138.500 150.843 138.400 V 113.500 C 150.843 113.445 150.798 113.400 150.743 113.400 H 126.314 C 126.259 113.400 126.214 113.445 126.214 113.500 V 138.400 C 126.214 138.500 126.314 138.400 126.214 138.400 H 123.414 C 123.314 138.400 123.414 138.500 123.414 138.400 V 113.500 C 123.414 113.445 123.370 113.400 123.314 113.400 H 98.886 C 98.830 113.400 98.786 113.445 98.786 113.500 V 138.400 C 98.786 138.500 98.886 138.400 98.786 138.400 H 95.986 C 95.886 138.400 95.986 138.500 95.986 138.400 V 113.500 C 95.986 113.445 95.941 113.400 95.886 113.400 H 71.457 C 71.402 113.400 71.357 113.445 71.357 113.500 V 138.400 C 71.357 138.500 71.457 138.400 71.357 138.400 H 68.557 C 68.457 138.400 68.557 138.500 68.557 138.400 V 113.500 C 68.557 113.445 68.512 113.400 68.457 113.400 H 44.029 C 43.973 113.400 43.929 113.445 43.929 113.500 V 138.400 C 43.929 138.500 44.029 138.400 43.929 138.400 H 41.129 C 41.029 138.400 41.129 138.500 41.129 138.400 V 113.500 C 41.129 113.445 41.084 113.400 41.029 113.400 H 16.600 C 16.545 113.400 16.500 113.445 16.500 113.500 V 138.400 C 16.500 138.500 16.600 138.400 16.500 138.400 H 13.700 C 13.600 138.400 13.700 138.500 13.700 138.400 V 113.500 C 13.700 113.445 13.655 113.400 13.600 113.400 H 10.100 C 10.045 113.400 10.000 113.445 10.000 113.500 V 163.500 C 10.000 163.555 10.045 163.600 10.100 163.600 Z" stroke="rgb(0,0,0)" stroke-width="0.20" />
</g>
<g id="p-15" style="fill:none;stroke-linecap:round;stroke-linejoin:round;">
  <path d="M 10.100 111.900 H 212.100 C 212.155 111.900 212.200 111.855 212.200 111.800 V 61.800 C 212.200 61.745 212.155 61.700 212.100 61.700 H 208.600 C 208.545 61.700 208.500 61.745 208.500 61.800 V 86.700 C 208.500 86.800 208.600 86.700 208.500 86.700 H 205.700 C 205.600 86.700 205.700 86.800 205.700 86.700 V 61.800 C 205.700 61.745 205.655 61.700 205.600 61.700 H 181.171 C 181.116 61.700 181.071 61.745 181.071 61.800 V 86.700 C 181.071 86.800 181.171 86.700 181.071 86.700 H 178.271 C 178.171 86.700 178.271 86.800 178.271 86.700 V 61.800 C 178.271 61.745 178.227 61.700 178.171 61.700 H 153.743 C 153.688 61.700 153.643 61.745 153.643 61.800 V 86.700 C 153.643 86.800 153.743 86.700 153.643 86.700 H 150.843 C 150.743 86.700 150.843 86.800 150.843 86.700 V 61.800 C 150.843 61.745 150.798 61.700 150.743 61.700 H 126.314 C 126.259 61.700 126.214 61.745 126.214 61.800 V 86.700 C 126.214 86.800 126.314 86.700 126.214 86.700 H 123.414 C 123.314 86.700 123.414 86.800 123.414 86.700 V 61.800 C 123.414 61.745 123.370 61.700 123.314 61.700 H 98.886 C 98.830 61.700 98.786 61.745 98.786 61.800 V 86.700 C 98.786 86.800 98.886 86.700 98.786 86.700 H 95.986 C 95.886 86.700 95.986 86.800 95.986 86.700 V 61.800 C 95.986 61.745 95.941 61.700 95.886 61.700 H 71.457 C 71.402 61.700 71.357 61.745 71.357 61.800 V 86.700 C 71.357 86.800 71.457 86.700 71.357 86.700 H 68.557 C 68.457 86.700 68.557 86.800 68.557 86.700 V 61.800 C 68.557 61.745 68.512 61.700 68.457 61.700 H 44.029 C 43.973 61.700 43.929 61.745 43.929 61.800 V 86.700 C 43.929 86.800 44.029 86.700 43.929 86.700 H 41.129 C 41.029 86.700 41.129 86.800 41.129 86.700 V 61.800 C 41.129 61.745 41.084 61.700 41.029 61.700 H 16.600 C 16.545 61.700 16.500 61.745 16.500 61.800 V 86.700 C 16.500 86.800 16.600 86.700 16.500 86.700 H 13.700 C 13.600 86.700 13.700 86.800 13.700 86.700 V 61.800 C 13.700 61.745 13.655 61.700 13.600 61.700 H 10.100 C 10.045 61.700 10.000 61.745 10.000 61.800 V 111.800 C 10.000 111.855 10.045 111.900 10.100 111.900 Z" stroke="rgb(0,0,0)" stroke-width="0.20" />
</g>
<g id="p-16" style="fill:none;stroke-linecap:round;stroke-linejoin:round;">
  <path d="M 10.100 60.200 H 212.100 C 212.155 60.200 212.200 60.155 212.200 60.100 V 10.100 C 212.200 10.045 212.155 10.000 212.100 10.000 H 208.600 C 208.545 10.000 208.500 10.045 208.500 10.100 V 35.000 C 208.500 35.100 208.600 35.000 208.500 35.000 H 205.700 C 205.600 35.000 205.700 35.100 205.700 35.000 V 10.100 C 205.700 10.045 205.655 10.000 205.600 10.000 H 181.171 C 181.116 10.000 181.071 10.045 181.071 10.100 V 35.000 C 181.071 35.100 181.171 35.000 181.071 35.000 H 178.271 C 178.171 35.000 178.271 35.100 178.271 35.000 V 10.100 C 178.271 10.045 178.227 10.000 178.171 10.000 H 153.743 C 153.688 10.000 153.643 10.045 153.643 10.100 V 35.000 C 153.643 35.100 153.743 35.000 153.643 35.000 H 150.843 C 150.743 35.000 150.843 35.100 150.843 35.000 V 10.100 C 150.843 10.045 150.798 10.000 150.743 10.000 H 126.314 C 126.259 10.000 126.214 10.045 126.214 10.100 V 35.000 C 126.214 35.100 126.314 35.000 126.214 35.000 H 123.414 C 123.314 35.000 123.414 35.100 123.414 35.000 V 10.100 C 123.414 10.045 123.370 10.000 123.314 10.000 H 98.886 C 98.830 10.000 98.786 10.045 98.786 10.100 V 35.000 C 98.786 35.100 98.886 35.000 98.786 35.000 H 95.986 C 95.886 35.000 95.986 35.100 95.986 35.000 V 10.100 C 95.986 10.045 95.941 10.000 95.886 10.000 H 71.457 C 71.402 10.000 71.357 10.045 71.357 10.100 V 35.000 C 71.357 35.100 71.457 35.000 71.357 35.000 H 68.557 C 68.457 35.000 68.557 35.100 68.557 35.000 V 10.100 C 68.557 10.045 68.512 10.000 68.457 10.000 H 44.029 C 43.973 10.000 43.929 10.045 43.929 10.100 V 35.000 C 43.929 35.100 44.029 35.000 43.929 35.000 H 41.129 C 41.029 35.000 41.129 35.100 41.129 35.000 V 10.100 C 41.129 10.045 41.084 10.000 41.029 10.000 H 16.600 C 16.545 10.000 16.500 10.045 16.500 10.100 V 35.000 C 16.500 35.100 16.600 35.000 16.500 35.000 H 13.700 C 13.600 35.000 13.700 35.100 13.700 35.000 V 10.100 C 13.700 10.045 13.655 10.000 13.600 10.000 H 10.100 C 10.045 10.000 10.000 10.045 10.000 10.100 V 60.100 C 10.000 60.155 10.045 60.200 10.100 60.200 Z" stroke="rgb(0,0,0)" stroke-width="0.20" />
</g>
</svg>