<?xml version="1.0" encoding="UTF-8" standalone="no"?>
<svg
   height="849.40mm"
   viewBox="0.0 0.0 222.20 849.40"
   width="222.20mm"
   version="1.1"
   id="svg17"
   sodipodi:docname="TrayInsert(4).svg"
   inkscape:version="1.4 (e7c3feb1, 2024-10-09)"
   xmlns:inkscape="http://www.inkscape.org/namespaces/inkscape"
   xmlns:sodipodi="http://sodipodi.sourceforge.net/DTD/sodipodi-0.dtd"
   xmlns="http://www.w3.org/2000/svg"
   xmlns:svg="http://www.w3.org/2000/svg"
   xmlns:rdf="http://www.w3.org/1999/02/22-rdf-syntax-ns#"
   xmlns:cc="http://creativecommons.org/ns#"
   xmlns:dc="http://purl.org/dc/elements/1.1/">
  <defs
     id="defs17" />
  <sodipodi:namedview
     id="namedview17"
     pagecolor="#ffffff"
     bordercolor="#000000"
     borderopacity="0.25"
     inkscape:showpageshadow="2"
     inkscape:pageopacity="0.0"
     inkscape:pagecheckerboard="0"
     inkscape:deskcolor="#d1d1d1"
     inkscape:document-units="mm"
     inkscape:zoom="0.20357861"
     inkscape:cx="-17.192376"
     inkscape:cy="1510.4731"
     inkscape:window-width="1344"
     inkscape:window-height="576"
     inkscape:window-x="0"
     inkscape:window-y="37"
     inkscape:window-maximized="0"
     inkscape:current-layer="svg17" />
  <!--
TrayInsert - Tray insert without floor and outer walls - allows only continuous walls


## Tray/Box insert dividers.
Tray insert with extra margin for that perfect fit.

You can specify the grid sizes with the standard `(sx, sy)` format, which allows nice
variable rows and columns.  If you  check the `outside` box, the full outside of the
tray insert ends up being the sum of all the sx/sy values.  However, if you want a
consistent cell size, and uncheck outside, then the overall dimensions end up
larger by `(n-1)*thickness`, to make space for your walls.

You can specify the `x` and `y` parameters if you like, just make them larger than
what the sum of `(sx, sy)` would end up with, and the walls be automatically extended to
to exactly fill the inside of your tray or box.

So, for example, if you're fitting `30mm x 40mm` items and want them to
fit inside a `250mm x 300mm` box, you can specify

    sx = 30*8
    sy = 40*7
    uncheck outside
    x=250
    y=300

This frees your mind into separately thinking about the cell size vs the overall box size.

![Tray Extra](static/samples/TrayInsert-3.jpg)
    


Created with Boxes.py (https://boxes.hackerspace-bamberg.de/)
Creation date: 2025-07-11 08:15:55
Command line (remove spaces between dashes): boxes TrayInsert '- -sx=27*7' '- -sy=27*7' - -h=50 - -x=202 - -y=202 - -thickness=2
Url: https://boxes.hackerspace-bamberg.de/TrayInsert?sx=27*7&sy=27*7&h=50&outside=0&outside=1&x=202&y=202&draft_angle=0.0&thickness=2&format=svg&tabs=0.0&qr_code=0&debug=0&labels=0&labels=1&reference=100.0&inner_corners=loop&burn=0.1&language=de&render=2
Url short: https://boxes.hackerspace-bamberg.de/TrayInsert?sx=27*7&sy=27*7&h=50&x=202&y=202&thickness=2
SettingsUrl: https://boxes.hackerspace-bamberg.de/TrayInsert?sx=27*7&sy=27*7&h=50&outside=0&outside=1&x=202&y=202&draft_angle=0.0&thickness=2&format=svg&tabs=0.0&qr_code=0&debug=0&labels=0&labels=1&reference=100.0&inner_corners=loop&burn=0.1&language=de&render=2
SettingsUrl short: https://boxes.hackerspace-bamberg.de/TrayInsert?sx=27*7&sy=27*7&h=50&x=202&y=202&thickness=2
-->
  <title
     id="title1">TrayInsert</title>
  <metadata
     id="metadata1">
    <rdf:RDF>
      <cc:Work>
        <dc:title>Tray - TrayInsert</dc:title>
        <dc:date>2025-07-11 08:15:55</dc:date>
        <dc:source>https://boxes.hackerspace-bamberg.de/TrayInsert?sx=27*7&amp;sy=27*7&amp;h=50&amp;outside=0&amp;outside=1&amp;x=202&amp;y=202&amp;draft_angle=0.0&amp;thickness=2&amp;format=svg&amp;tabs=0.0&amp;qr_code=0&amp;debug=0&amp;labels=0&amp;labels=1&amp;reference=100.0&amp;inner_corners=loop&amp;burn=0.1&amp;language=de&amp;render=2</dc:source>
        <dc:source>https://boxes.hackerspace-bamberg.de/TrayInsert?sx=27*7&amp;sy=27*7&amp;h=50&amp;x=202&amp;y=202&amp;thickness=2</dc:source>
        <dc:description>Tray insert without floor and outer walls - allows only continuous walls

## Tray/Box insert dividers.
Tray insert with extra margin for that perfect fit.

You can specify the grid sizes with the standard `(sx, sy)` format, which allows nice
variable rows and columns.  If you  check the `outside` box, the full outside of the
tray insert ends up being the sum of all the sx/sy values.  However, if you want a
consistent cell size, and uncheck outside, then the overall dimensions end up
larger by `(n-1)*thickness`, to make space for your walls.

You can specify the `x` and `y` parameters if you like, just make them larger than
what the sum of `(sx, sy)` would end up with, and the walls be automatically extended to
to exactly fill the inside of your tray or box.

So, for example, if you're fitting `30mm x 40mm` items and want them to
fit inside a `250mm x 300mm` box, you can specify

    sx = 30*8
    sy = 40*7
    uncheck outside
    x=250
    y=300

This frees your mind into separately thinking about the cell size vs the overall box size.

![Tray Extra](static/samples/TrayInsert-3.jpg)
    

Created with Boxes.py (https://boxes.hackerspace-bamberg.de/)
Command line: boxes TrayInsert '--sx=27*7' '--sy=27*7' --h=50 --outside=0 --outside=1 --x=202 --y=202 --draft_angle=0.0 --thickness=2 --format=svg --tabs=0.0 --qr_code=0 --debug=0 --labels=0 --labels=1 --reference=100.0 --inner_corners=loop --burn=0.1
Command line short: boxes TrayInsert '--sx=27*7' '--sy=27*7' --h=50 --x=202 --y=202 --thickness=2
Url: https://boxes.hackerspace-bamberg.de/TrayInsert?sx=27*7&amp;sy=27*7&amp;h=50&amp;outside=0&amp;outside=1&amp;x=202&amp;y=202&amp;draft_angle=0.0&amp;thickness=2&amp;format=svg&amp;tabs=0.0&amp;qr_code=0&amp;debug=0&amp;labels=0&amp;labels=1&amp;reference=100.0&amp;inner_corners=loop&amp;burn=0.1&amp;language=de&amp;render=2
Url short: https://boxes.hackerspace-bamberg.de/TrayInsert?sx=27*7&amp;sy=27*7&amp;h=50&amp;x=202&amp;y=202&amp;thickness=2
SettingsUrl: https://boxes.hackerspace-bamberg.de/TrayInsert?sx=27*7&amp;sy=27*7&amp;h=50&amp;outside=0&amp;outside=1&amp;x=202&amp;y=202&amp;draft_angle=0.0&amp;thickness=2&amp;format=svg&amp;tabs=0.0&amp;qr_code=0&amp;debug=0&amp;labels=0&amp;labels=1&amp;reference=100.0&amp;inner_corners=loop&amp;burn=0.1&amp;language=de&amp;render=2
SettingsUrl short: https://boxes.hackerspace-bamberg.de/TrayInsert?sx=27*7&amp;sy=27*7&amp;h=50&amp;x=202&amp;y=202&amp;thickness=2
</dc:description>
      </cc:Work>
    </rdf:RDF>
  </metadata>
  <g
     id="p-1"
     style="fill:none;stroke-linecap:round;stroke-linejoin:round;stroke:#ff0000;stroke-opacity:1;stroke-width:0.01;stroke-dasharray:none">
    <path
       d="M 10.100 828.200 H 14.600 C 14.655 828.200 14.700 828.155 14.700 828.100 V 803.200 C 14.700 803.100 14.600 803.200 14.700 803.200 H 16.500 C 16.600 803.200 16.500 803.100 16.500 803.200 V 828.100 C 16.500 828.155 16.545 828.200 16.600 828.200 H 41.886 C 41.941 828.200 41.986 828.155 41.986 828.100 V 803.200 C 41.986 803.100 41.886 803.200 41.986 803.200 H 43.786 C 43.886 803.200 43.786 803.100 43.786 803.200 V 828.100 C 43.786 828.155 43.830 828.200 43.886 828.200 H 69.171 C 69.227 828.200 69.271 828.155 69.271 828.100 V 803.200 C 69.271 803.100 69.171 803.200 69.271 803.200 H 71.071 C 71.171 803.200 71.071 803.100 71.071 803.200 V 828.100 C 71.071 828.155 71.116 828.200 71.171 828.200 H 96.457 C 96.512 828.200 96.557 828.155 96.557 828.100 V 803.200 C 96.557 803.100 96.457 803.200 96.557 803.200 H 98.357 C 98.457 803.200 98.357 803.100 98.357 803.200 V 828.100 C 98.357 828.155 98.402 828.200 98.457 828.200 H 123.743 C 123.798 828.200 123.843 828.155 123.843 828.100 V 803.200 C 123.843 803.100 123.743 803.200 123.843 803.200 H 125.643 C 125.743 803.200 125.643 803.100 125.643 803.200 V 828.100 C 125.643 828.155 125.688 828.200 125.743 828.200 H 151.029 C 151.084 828.200 151.129 828.155 151.129 828.100 V 803.200 C 151.129 803.100 151.029 803.200 151.129 803.200 H 152.929 C 153.029 803.200 152.929 803.100 152.929 803.200 V 828.100 C 152.929 828.155 152.973 828.200 153.029 828.200 H 178.314 C 178.370 828.200 178.414 828.155 178.414 828.100 V 803.200 C 178.414 803.100 178.314 803.200 178.414 803.200 H 180.214 C 180.314 803.200 180.214 803.100 180.214 803.200 V 828.100 C 180.214 828.155 180.259 828.200 180.314 828.200 H 205.600 C 205.655 828.200 205.700 828.155 205.700 828.100 V 803.200 C 205.700 803.100 205.600 803.200 205.700 803.200 H 207.500 C 207.600 803.200 207.500 803.100 207.500 803.200 V 828.100 C 207.500 828.155 207.545 828.200 207.600 828.200 H 212.100 C 212.155 828.200 212.200 828.155 212.200 828.100 V 778.100 C 212.200 778.045 212.155 778.000 212.100 778.000 H 10.100 C 10.045 778.000 10.000 778.045 10.000 778.100 V 828.100 C 10.000 828.155 10.045 828.200 10.100 828.200 Z"
       stroke="rgb(0,0,0)"
       stroke-width="0.20"
       id="path2"
       style="stroke:#ff0000;stroke-opacity:1;stroke-width:0.01;stroke-dasharray:none" />
  </g>
  <g
     id="p-2"
     style="fill:none;stroke-linecap:round;stroke-linejoin:round;stroke:#ff0000;stroke-opacity:1;stroke-width:0.01;stroke-dasharray:none">
    <path
       d="M 10.100 777.000 H 14.600 C 14.655 777.000 14.700 776.955 14.700 776.900 V 752.000 C 14.700 751.900 14.600 752.000 14.700 752.000 H 16.500 C 16.600 752.000 16.500 751.900 16.500 752.000 V 776.900 C 16.500 776.955 16.545 777.000 16.600 777.000 H 41.886 C 41.941 777.000 41.986 776.955 41.986 776.900 V 752.000 C 41.986 751.900 41.886 752.000 41.986 752.000 H 43.786 C 43.886 752.000 43.786 751.900 43.786 752.000 V 776.900 C 43.786 776.955 43.830 777.000 43.886 777.000 H 69.171 C 69.227 777.000 69.271 776.955 69.271 776.900 V 752.000 C 69.271 751.900 69.171 752.000 69.271 752.000 H 71.071 C 71.171 752.000 71.071 751.900 71.071 752.000 V 776.900 C 71.071 776.955 71.116 777.000 71.171 777.000 H 96.457 C 96.512 777.000 96.557 776.955 96.557 776.900 V 752.000 C 96.557 751.900 96.457 752.000 96.557 752.000 H 98.357 C 98.457 752.000 98.357 751.900 98.357 752.000 V 776.900 C 98.357 776.955 98.402 777.000 98.457 777.000 H 123.743 C 123.798 777.000 123.843 776.955 123.843 776.900 V 752.000 C 123.843 751.900 123.743 752.000 123.843 752.000 H 125.643 C 125.743 752.000 125.643 751.900 125.643 752.000 V 776.900 C 125.643 776.955 125.688 777.000 125.743 777.000 H 151.029 C 151.084 777.000 151.129 776.955 151.129 776.900 V 752.000 C 151.129 751.900 151.029 752.000 151.129 752.000 H 152.929 C 153.029 752.000 152.929 751.900 152.929 752.000 V 776.900 C 152.929 776.955 152.973 777.000 153.029 777.000 H 178.314 C 178.370 777.000 178.414 776.955 178.414 776.900 V 752.000 C 178.414 751.900 178.314 752.000 178.414 752.000 H 180.214 C 180.314 752.000 180.214 751.900 180.214 752.000 V 776.900 C 180.214 776.955 180.259 777.000 180.314 777.000 H 205.600 C 205.655 777.000 205.700 776.955 205.700 776.900 V 752.000 C 205.700 751.900 205.600 752.000 205.700 752.000 H 207.500 C 207.600 752.000 207.500 751.900 207.500 752.000 V 776.900 C 207.500 776.955 207.545 777.000 207.600 777.000 H 212.100 C 212.155 777.000 212.200 776.955 212.200 776.900 V 726.900 C 212.200 726.845 212.155 726.800 212.100 726.800 H 10.100 C 10.045 726.800 10.000 726.845 10.000 726.900 V 776.900 C 10.000 776.955 10.045 777.000 10.100 777.000 Z"
       stroke="rgb(0,0,0)"
       stroke-width="0.20"
       id="path3"
       style="stroke:#ff0000;stroke-opacity:1;stroke-width:0.01;stroke-dasharray:none" />
  </g>
  <g
     id="p-3"
     style="fill:none;stroke-linecap:round;stroke-linejoin:round;stroke:#ff0000;stroke-opacity:1;stroke-width:0.01;stroke-dasharray:none">
    <path
       d="M 10.100 725.800 H 14.600 C 14.655 725.800 14.700 725.755 14.700 725.700 V 700.800 C 14.700 700.700 14.600 700.800 14.700 700.800 H 16.500 C 16.600 700.800 16.500 700.700 16.500 700.800 V 725.700 C 16.500 725.755 16.545 725.800 16.600 725.800 H 41.886 C 41.941 725.800 41.986 725.755 41.986 725.700 V 700.800 C 41.986 700.700 41.886 700.800 41.986 700.800 H 43.786 C 43.886 700.800 43.786 700.700 43.786 700.800 V 725.700 C 43.786 725.755 43.830 725.800 43.886 725.800 H 69.171 C 69.227 725.800 69.271 725.755 69.271 725.700 V 700.800 C 69.271 700.700 69.171 700.800 69.271 700.800 H 71.071 C 71.171 700.800 71.071 700.700 71.071 700.800 V 725.700 C 71.071 725.755 71.116 725.800 71.171 725.800 H 96.457 C 96.512 725.800 96.557 725.755 96.557 725.700 V 700.800 C 96.557 700.700 96.457 700.800 96.557 700.800 H 98.357 C 98.457 700.800 98.357 700.700 98.357 700.800 V 725.700 C 98.357 725.755 98.402 725.800 98.457 725.800 H 123.743 C 123.798 725.800 123.843 725.755 123.843 725.700 V 700.800 C 123.843 700.700 123.743 700.800 123.843 700.800 H 125.643 C 125.743 700.800 125.643 700.700 125.643 700.800 V 725.700 C 125.643 725.755 125.688 725.800 125.743 725.800 H 151.029 C 151.084 725.800 151.129 725.755 151.129 725.700 V 700.800 C 151.129 700.700 151.029 700.800 151.129 700.800 H 152.929 C 153.029 700.800 152.929 700.700 152.929 700.800 V 725.700 C 152.929 725.755 152.973 725.800 153.029 725.800 H 178.314 C 178.370 725.800 178.414 725.755 178.414 725.700 V 700.800 C 178.414 700.700 178.314 700.800 178.414 700.800 H 180.214 C 180.314 700.800 180.214 700.700 180.214 700.800 V 725.700 C 180.214 725.755 180.259 725.800 180.314 725.800 H 205.600 C 205.655 725.800 205.700 725.755 205.700 725.700 V 700.800 C 205.700 700.700 205.600 700.800 205.700 700.800 H 207.500 C 207.600 700.800 207.500 700.700 207.500 700.800 V 725.700 C 207.500 725.755 207.545 725.800 207.600 725.800 H 212.100 C 212.155 725.800 212.200 725.755 212.200 725.700 V 675.700 C 212.200 675.645 212.155 675.600 212.100 675.600 H 10.100 C 10.045 675.600 10.000 675.645 10.000 675.700 V 725.700 C 10.000 725.755 10.045 725.800 10.100 725.800 Z"
       stroke="rgb(0,0,0)"
       stroke-width="0.20"
       id="path4"
       style="stroke:#ff0000;stroke-opacity:1;stroke-width:0.01;stroke-dasharray:none" />
  </g>
  <g
     id="p-4"
     style="fill:none;stroke-linecap:round;stroke-linejoin:round;stroke:#ff0000;stroke-opacity:1;stroke-width:0.01;stroke-dasharray:none">
    <path
       d="M 10.100 674.600 H 14.600 C 14.655 674.600 14.700 674.555 14.700 674.500 V 649.600 C 14.700 649.500 14.600 649.600 14.700 649.600 H 16.500 C 16.600 649.600 16.500 649.500 16.500 649.600 V 674.500 C 16.500 674.555 16.545 674.600 16.600 674.600 H 41.886 C 41.941 674.600 41.986 674.555 41.986 674.500 V 649.600 C 41.986 649.500 41.886 649.600 41.986 649.600 H 43.786 C 43.886 649.600 43.786 649.500 43.786 649.600 V 674.500 C 43.786 674.555 43.830 674.600 43.886 674.600 H 69.171 C 69.227 674.600 69.271 674.555 69.271 674.500 V 649.600 C 69.271 649.500 69.171 649.600 69.271 649.600 H 71.071 C 71.171 649.600 71.071 649.500 71.071 649.600 V 674.500 C 71.071 674.555 71.116 674.600 71.171 674.600 H 96.457 C 96.512 674.600 96.557 674.555 96.557 674.500 V 649.600 C 96.557 649.500 96.457 649.600 96.557 649.600 H 98.357 C 98.457 649.600 98.357 649.500 98.357 649.600 V 674.500 C 98.357 674.555 98.402 674.600 98.457 674.600 H 123.743 C 123.798 674.600 123.843 674.555 123.843 674.500 V 649.600 C 123.843 649.500 123.743 649.600 123.843 649.600 H 125.643 C 125.743 649.600 125.643 649.500 125.643 649.600 V 674.500 C 125.643 674.555 125.688 674.600 125.743 674.600 H 151.029 C 151.084 674.600 151.129 674.555 151.129 674.500 V 649.600 C 151.129 649.500 151.029 649.600 151.129 649.600 H 152.929 C 153.029 649.600 152.929 649.500 152.929 649.600 V 674.500 C 152.929 674.555 152.973 674.600 153.029 674.600 H 178.314 C 178.370 674.600 178.414 674.555 178.414 674.500 V 649.600 C 178.414 649.500 178.314 649.600 178.414 649.600 H 180.214 C 180.314 649.600 180.214 649.500 180.214 649.600 V 674.500 C 180.214 674.555 180.259 674.600 180.314 674.600 H 205.600 C 205.655 674.600 205.700 674.555 205.700 674.500 V 649.600 C 205.700 649.500 205.600 649.600 205.700 649.600 H 207.500 C 207.600 649.600 207.500 649.500 207.500 649.600 V 674.500 C 207.500 674.555 207.545 674.600 207.600 674.600 H 212.100 C 212.155 674.600 212.200 674.555 212.200 674.500 V 624.500 C 212.200 624.445 212.155 624.400 212.100 624.400 H 10.100 C 10.045 624.400 10.000 624.445 10.000 624.500 V 674.500 C 10.000 674.555 10.045 674.600 10.100 674.600 Z"
       stroke="rgb(0,0,0)"
       stroke-width="0.20"
       id="path5"
       style="stroke:#ff0000;stroke-opacity:1;stroke-width:0.01;stroke-dasharray:none" />
  </g>
  <g
     id="p-5"
     style="fill:none;stroke-linecap:round;stroke-linejoin:round;stroke:#ff0000;stroke-opacity:1;stroke-width:0.01;stroke-dasharray:none">
    <path
       d="M 10.100 623.400 H 14.600 C 14.655 623.400 14.700 623.355 14.700 623.300 V 598.400 C 14.700 598.300 14.600 598.400 14.700 598.400 H 16.500 C 16.600 598.400 16.500 598.300 16.500 598.400 V 623.300 C 16.500 623.355 16.545 623.400 16.600 623.400 H 41.886 C 41.941 623.400 41.986 623.355 41.986 623.300 V 598.400 C 41.986 598.300 41.886 598.400 41.986 598.400 H 43.786 C 43.886 598.400 43.786 598.300 43.786 598.400 V 623.300 C 43.786 623.355 43.830 623.400 43.886 623.400 H 69.171 C 69.227 623.400 69.271 623.355 69.271 623.300 V 598.400 C 69.271 598.300 69.171 598.400 69.271 598.400 H 71.071 C 71.171 598.400 71.071 598.300 71.071 598.400 V 623.300 C 71.071 623.355 71.116 623.400 71.171 623.400 H 96.457 C 96.512 623.400 96.557 623.355 96.557 623.300 V 598.400 C 96.557 598.300 96.457 598.400 96.557 598.400 H 98.357 C 98.457 598.400 98.357 598.300 98.357 598.400 V 623.300 C 98.357 623.355 98.402 623.400 98.457 623.400 H 123.743 C 123.798 623.400 123.843 623.355 123.843 623.300 V 598.400 C 123.843 598.300 123.743 598.400 123.843 598.400 H 125.643 C 125.743 598.400 125.643 598.300 125.643 598.400 V 623.300 C 125.643 623.355 125.688 623.400 125.743 623.400 H 151.029 C 151.084 623.400 151.129 623.355 151.129 623.300 V 598.400 C 151.129 598.300 151.029 598.400 151.129 598.400 H 152.929 C 153.029 598.400 152.929 598.300 152.929 598.400 V 623.300 C 152.929 623.355 152.973 623.400 153.029 623.400 H 178.314 C 178.370 623.400 178.414 623.355 178.414 623.300 V 598.400 C 178.414 598.300 178.314 598.400 178.414 598.400 H 180.214 C 180.314 598.400 180.214 598.300 180.214 598.400 V 623.300 C 180.214 623.355 180.259 623.400 180.314 623.400 H 205.600 C 205.655 623.400 205.700 623.355 205.700 623.300 V 598.400 C 205.700 598.300 205.600 598.400 205.700 598.400 H 207.500 C 207.600 598.400 207.500 598.300 207.500 598.400 V 623.300 C 207.500 623.355 207.545 623.400 207.600 623.400 H 212.100 C 212.155 623.400 212.200 623.355 212.200 623.300 V 573.300 C 212.200 573.245 212.155 573.200 212.100 573.200 H 10.100 C 10.045 573.200 10.000 573.245 10.000 573.300 V 623.300 C 10.000 623.355 10.045 623.400 10.100 623.400 Z"
       stroke="rgb(0,0,0)"
       stroke-width="0.20"
       id="path6"
       style="stroke:#ff0000;stroke-opacity:1;stroke-width:0.01;stroke-dasharray:none" />
  </g>
  <g
     id="p-6"
     style="fill:none;stroke-linecap:round;stroke-linejoin:round;stroke:#ff0000;stroke-opacity:1;stroke-width:0.01;stroke-dasharray:none">
    <path
       d="M 10.100 572.200 H 14.600 C 14.655 572.200 14.700 572.155 14.700 572.100 V 547.200 C 14.700 547.100 14.600 547.200 14.700 547.200 H 16.500 C 16.600 547.200 16.500 547.100 16.500 547.200 V 572.100 C 16.500 572.155 16.545 572.200 16.600 572.200 H 41.886 C 41.941 572.200 41.986 572.155 41.986 572.100 V 547.200 C 41.986 547.100 41.886 547.200 41.986 547.200 H 43.786 C 43.886 547.200 43.786 547.100 43.786 547.200 V 572.100 C 43.786 572.155 43.830 572.200 43.886 572.200 H 69.171 C 69.227 572.200 69.271 572.155 69.271 572.100 V 547.200 C 69.271 547.100 69.171 547.200 69.271 547.200 H 71.071 C 71.171 547.200 71.071 547.100 71.071 547.200 V 572.100 C 71.071 572.155 71.116 572.200 71.171 572.200 H 96.457 C 96.512 572.200 96.557 572.155 96.557 572.100 V 547.200 C 96.557 547.100 96.457 547.200 96.557 547.200 H 98.357 C 98.457 547.200 98.357 547.100 98.357 547.200 V 572.100 C 98.357 572.155 98.402 572.200 98.457 572.200 H 123.743 C 123.798 572.200 123.843 572.155 123.843 572.100 V 547.200 C 123.843 547.100 123.743 547.200 123.843 547.200 H 125.643 C 125.743 547.200 125.643 547.100 125.643 547.200 V 572.100 C 125.643 572.155 125.688 572.200 125.743 572.200 H 151.029 C 151.084 572.200 151.129 572.155 151.129 572.100 V 547.200 C 151.129 547.100 151.029 547.200 151.129 547.200 H 152.929 C 153.029 547.200 152.929 547.100 152.929 547.200 V 572.100 C 152.929 572.155 152.973 572.200 153.029 572.200 H 178.314 C 178.370 572.200 178.414 572.155 178.414 572.100 V 547.200 C 178.414 547.100 178.314 547.200 178.414 547.200 H 180.214 C 180.314 547.200 180.214 547.100 180.214 547.200 V 572.100 C 180.214 572.155 180.259 572.200 180.314 572.200 H 205.600 C 205.655 572.200 205.700 572.155 205.700 572.100 V 547.200 C 205.700 547.100 205.600 547.200 205.700 547.200 H 207.500 C 207.600 547.200 207.500 547.100 207.500 547.200 V 572.100 C 207.500 572.155 207.545 572.200 207.600 572.200 H 212.100 C 212.155 572.200 212.200 572.155 212.200 572.100 V 522.100 C 212.200 522.045 212.155 522.000 212.100 522.000 H 10.100 C 10.045 522.000 10.000 522.045 10.000 522.100 V 572.100 C 10.000 572.155 10.045 572.200 10.100 572.200 Z"
       stroke="rgb(0,0,0)"
       stroke-width="0.20"
       id="path7"
       style="stroke:#ff0000;stroke-opacity:1;stroke-width:0.01;stroke-dasharray:none" />
  </g>
  <g
     id="p-7"
     style="fill:none;stroke-linecap:round;stroke-linejoin:round;stroke:#ff0000;stroke-opacity:1;stroke-width:0.01;stroke-dasharray:none">
    <path
       d="M 10.100 521.000 H 14.600 C 14.655 521.000 14.700 520.955 14.700 520.900 V 496.000 C 14.700 495.900 14.600 496.000 14.700 496.000 H 16.500 C 16.600 496.000 16.500 495.900 16.500 496.000 V 520.900 C 16.500 520.955 16.545 521.000 16.600 521.000 H 41.886 C 41.941 521.000 41.986 520.955 41.986 520.900 V 496.000 C 41.986 495.900 41.886 496.000 41.986 496.000 H 43.786 C 43.886 496.000 43.786 495.900 43.786 496.000 V 520.900 C 43.786 520.955 43.830 521.000 43.886 521.000 H 69.171 C 69.227 521.000 69.271 520.955 69.271 520.900 V 496.000 C 69.271 495.900 69.171 496.000 69.271 496.000 H 71.071 C 71.171 496.000 71.071 495.900 71.071 496.000 V 520.900 C 71.071 520.955 71.116 521.000 71.171 521.000 H 96.457 C 96.512 521.000 96.557 520.955 96.557 520.900 V 496.000 C 96.557 495.900 96.457 496.000 96.557 496.000 H 98.357 C 98.457 496.000 98.357 495.900 98.357 496.000 V 520.900 C 98.357 520.955 98.402 521.000 98.457 521.000 H 123.743 C 123.798 521.000 123.843 520.955 123.843 520.900 V 496.000 C 123.843 495.900 123.743 496.000 123.843 496.000 H 125.643 C 125.743 496.000 125.643 495.900 125.643 496.000 V 520.900 C 125.643 520.955 125.688 521.000 125.743 521.000 H 151.029 C 151.084 521.000 151.129 520.955 151.129 520.900 V 496.000 C 151.129 495.900 151.029 496.000 151.129 496.000 H 152.929 C 153.029 496.000 152.929 495.900 152.929 496.000 V 520.900 C 152.929 520.955 152.973 521.000 153.029 521.000 H 178.314 C 178.370 521.000 178.414 520.955 178.414 520.900 V 496.000 C 178.414 495.900 178.314 496.000 178.414 496.000 H 180.214 C 180.314 496.000 180.214 495.900 180.214 496.000 V 520.900 C 180.214 520.955 180.259 521.000 180.314 521.000 H 205.600 C 205.655 521.000 205.700 520.955 205.700 520.900 V 496.000 C 205.700 495.900 205.600 496.000 205.700 496.000 H 207.500 C 207.600 496.000 207.500 495.900 207.500 496.000 V 520.900 C 207.500 520.955 207.545 521.000 207.600 521.000 H 212.100 C 212.155 521.000 212.200 520.955 212.200 520.900 V 470.900 C 212.200 470.845 212.155 470.800 212.100 470.800 H 10.100 C 10.045 470.800 10.000 470.845 10.000 470.900 V 520.900 C 10.000 520.955 10.045 521.000 10.100 521.000 Z"
       stroke="rgb(0,0,0)"
       stroke-width="0.20"
       id="path8"
       style="stroke:#ff0000;stroke-opacity:1;stroke-width:0.01;stroke-dasharray:none" />
  </g>
  <g
     id="p-8"
     style="fill:none;stroke-linecap:round;stroke-linejoin:round;stroke:#ff0000;stroke-opacity:1;stroke-width:0.01;stroke-dasharray:none">
    <path
       d="M 10.100 469.800 H 14.600 C 14.655 469.800 14.700 469.755 14.700 469.700 V 444.800 C 14.700 444.700 14.600 444.800 14.700 444.800 H 16.500 C 16.600 444.800 16.500 444.700 16.500 444.800 V 469.700 C 16.500 469.755 16.545 469.800 16.600 469.800 H 41.886 C 41.941 469.800 41.986 469.755 41.986 469.700 V 444.800 C 41.986 444.700 41.886 444.800 41.986 444.800 H 43.786 C 43.886 444.800 43.786 444.700 43.786 444.800 V 469.700 C 43.786 469.755 43.830 469.800 43.886 469.800 H 69.171 C 69.227 469.800 69.271 469.755 69.271 469.700 V 444.800 C 69.271 444.700 69.171 444.800 69.271 444.800 H 71.071 C 71.171 444.800 71.071 444.700 71.071 444.800 V 469.700 C 71.071 469.755 71.116 469.800 71.171 469.800 H 96.457 C 96.512 469.800 96.557 469.755 96.557 469.700 V 444.800 C 96.557 444.700 96.457 444.800 96.557 444.800 H 98.357 C 98.457 444.800 98.357 444.700 98.357 444.800 V 469.700 C 98.357 469.755 98.402 469.800 98.457 469.800 H 123.743 C 123.798 469.800 123.843 469.755 123.843 469.700 V 444.800 C 123.843 444.700 123.743 444.800 123.843 444.800 H 125.643 C 125.743 444.800 125.643 444.700 125.643 444.800 V 469.700 C 125.643 469.755 125.688 469.800 125.743 469.800 H 151.029 C 151.084 469.800 151.129 469.755 151.129 469.700 V 444.800 C 151.129 444.700 151.029 444.800 151.129 444.800 H 152.929 C 153.029 444.800 152.929 444.700 152.929 444.800 V 469.700 C 152.929 469.755 152.973 469.800 153.029 469.800 H 178.314 C 178.370 469.800 178.414 469.755 178.414 469.700 V 444.800 C 178.414 444.700 178.314 444.800 178.414 444.800 H 180.214 C 180.314 444.800 180.214 444.700 180.214 444.800 V 469.700 C 180.214 469.755 180.259 469.800 180.314 469.800 H 205.600 C 205.655 469.800 205.700 469.755 205.700 469.700 V 444.800 C 205.700 444.700 205.600 444.800 205.700 444.800 H 207.500 C 207.600 444.800 207.500 444.700 207.500 444.800 V 469.700 C 207.500 469.755 207.545 469.800 207.600 469.800 H 212.100 C 212.155 469.800 212.200 469.755 212.200 469.700 V 419.700 C 212.200 419.645 212.155 419.600 212.100 419.600 H 10.100 C 10.045 419.600 10.000 419.645 10.000 419.700 V 469.700 C 10.000 469.755 10.045 469.800 10.100 469.800 Z"
       stroke="rgb(0,0,0)"
       stroke-width="0.20"
       id="path9"
       style="stroke:#ff0000;stroke-opacity:1;stroke-width:0.01;stroke-dasharray:none" />
  </g>
  <g
     id="p-9"
     style="fill:none;stroke-linecap:round;stroke-linejoin:round;stroke:#ff0000;stroke-opacity:1;stroke-width:0.01;stroke-dasharray:none">
    <path
       d="M 10.100 418.600 H 212.100 C 212.155 418.600 212.200 418.555 212.200 418.500 V 368.500 C 212.200 368.445 212.155 368.400 212.100 368.400 H 207.600 C 207.545 368.400 207.500 368.445 207.500 368.500 V 393.400 C 207.500 393.500 207.600 393.400 207.500 393.400 H 205.700 C 205.600 393.400 205.700 393.500 205.700 393.400 V 368.500 C 205.700 368.445 205.655 368.400 205.600 368.400 H 180.314 C 180.259 368.400 180.214 368.445 180.214 368.500 V 393.400 C 180.214 393.500 180.314 393.400 180.214 393.400 H 178.414 C 178.314 393.400 178.414 393.500 178.414 393.400 V 368.500 C 178.414 368.445 178.370 368.400 178.314 368.400 H 153.029 C 152.973 368.400 152.929 368.445 152.929 368.500 V 393.400 C 152.929 393.500 153.029 393.400 152.929 393.400 H 151.129 C 151.029 393.400 151.129 393.500 151.129 393.400 V 368.500 C 151.129 368.445 151.084 368.400 151.029 368.400 H 125.743 C 125.688 368.400 125.643 368.445 125.643 368.500 V 393.400 C 125.643 393.500 125.743 393.400 125.643 393.400 H 123.843 C 123.743 393.400 123.843 393.500 123.843 393.400 V 368.500 C 123.843 368.445 123.798 368.400 123.743 368.400 H 98.457 C 98.402 368.400 98.357 368.445 98.357 368.500 V 393.400 C 98.357 393.500 98.457 393.400 98.357 393.400 H 96.557 C 96.457 393.400 96.557 393.500 96.557 393.400 V 368.500 C 96.557 368.445 96.512 368.400 96.457 368.400 H 71.171 C 71.116 368.400 71.071 368.445 71.071 368.500 V 393.400 C 71.071 393.500 71.171 393.400 71.071 393.400 H 69.271 C 69.171 393.400 69.271 393.500 69.271 393.400 V 368.500 C 69.271 368.445 69.227 368.400 69.171 368.400 H 43.886 C 43.830 368.400 43.786 368.445 43.786 368.500 V 393.400 C 43.786 393.500 43.886 393.400 43.786 393.400 H 41.986 C 41.886 393.400 41.986 393.500 41.986 393.400 V 368.500 C 41.986 368.445 41.941 368.400 41.886 368.400 H 16.600 C 16.545 368.400 16.500 368.445 16.500 368.500 V 393.400 C 16.500 393.500 16.600 393.400 16.500 393.400 H 14.700 C 14.600 393.400 14.700 393.500 14.700 393.400 V 368.500 C 14.700 368.445 14.655 368.400 14.600 368.400 H 10.100 C 10.045 368.400 10.000 368.445 10.000 368.500 V 418.500 C 10.000 418.555 10.045 418.600 10.100 418.600 Z"
       stroke="rgb(0,0,0)"
       stroke-width="0.20"
       id="path10"
       style="stroke:#ff0000;stroke-opacity:1;stroke-width:0.01;stroke-dasharray:none" />
  </g>
  <g
     id="p-10"
     style="fill:none;stroke-linecap:round;stroke-linejoin:round;stroke:#ff0000;stroke-opacity:1;stroke-width:0.01;stroke-dasharray:none">
    <path
       d="M 10.100 367.400 H 212.100 C 212.155 367.400 212.200 367.355 212.200 367.300 V 317.300 C 212.200 317.245 212.155 317.200 212.100 317.200 H 207.600 C 207.545 317.200 207.500 317.245 207.500 317.300 V 342.200 C 207.500 342.300 207.600 342.200 207.500 342.200 H 205.700 C 205.600 342.200 205.700 342.300 205.700 342.200 V 317.300 C 205.700 317.245 205.655 317.200 205.600 317.200 H 180.314 C 180.259 317.200 180.214 317.245 180.214 317.300 V 342.200 C 180.214 342.300 180.314 342.200 180.214 342.200 H 178.414 C 178.314 342.200 178.414 342.300 178.414 342.200 V 317.300 C 178.414 317.245 178.370 317.200 178.314 317.200 H 153.029 C 152.973 317.200 152.929 317.245 152.929 317.300 V 342.200 C 152.929 342.300 153.029 342.200 152.929 342.200 H 151.129 C 151.029 342.200 151.129 342.300 151.129 342.200 V 317.300 C 151.129 317.245 151.084 317.200 151.029 317.200 H 125.743 C 125.688 317.200 125.643 317.245 125.643 317.300 V 342.200 C 125.643 342.300 125.743 342.200 125.643 342.200 H 123.843 C 123.743 342.200 123.843 342.300 123.843 342.200 V 317.300 C 123.843 317.245 123.798 317.200 123.743 317.200 H 98.457 C 98.402 317.200 98.357 317.245 98.357 317.300 V 342.200 C 98.357 342.300 98.457 342.200 98.357 342.200 H 96.557 C 96.457 342.200 96.557 342.300 96.557 342.200 V 317.300 C 96.557 317.245 96.512 317.200 96.457 317.200 H 71.171 C 71.116 317.200 71.071 317.245 71.071 317.300 V 342.200 C 71.071 342.300 71.171 342.200 71.071 342.200 H 69.271 C 69.171 342.200 69.271 342.300 69.271 342.200 V 317.300 C 69.271 317.245 69.227 317.200 69.171 317.200 H 43.886 C 43.830 317.200 43.786 317.245 43.786 317.300 V 342.200 C 43.786 342.300 43.886 342.200 43.786 342.200 H 41.986 C 41.886 342.200 41.986 342.300 41.986 342.200 V 317.300 C 41.986 317.245 41.941 317.200 41.886 317.200 H 16.600 C 16.545 317.200 16.500 317.245 16.500 317.300 V 342.200 C 16.500 342.300 16.600 342.200 16.500 342.200 H 14.700 C 14.600 342.200 14.700 342.300 14.700 342.200 V 317.300 C 14.700 317.245 14.655 317.200 14.600 317.200 H 10.100 C 10.045 317.200 10.000 317.245 10.000 317.300 V 367.300 C 10.000 367.355 10.045 367.400 10.100 367.400 Z"
       stroke="rgb(0,0,0)"
       stroke-width="0.20"
       id="path11"
       style="stroke:#ff0000;stroke-opacity:1;stroke-width:0.01;stroke-dasharray:none" />
  </g>
  <g
     id="p-11"
     style="fill:none;stroke-linecap:round;stroke-linejoin:round;stroke:#ff0000;stroke-opacity:1;stroke-width:0.01;stroke-dasharray:none">
    <path
       d="M 10.100 316.200 H 212.100 C 212.155 316.200 212.200 316.155 212.200 316.100 V 266.100 C 212.200 266.045 212.155 266.000 212.100 266.000 H 207.600 C 207.545 266.000 207.500 266.045 207.500 266.100 V 291.000 C 207.500 291.100 207.600 291.000 207.500 291.000 H 205.700 C 205.600 291.000 205.700 291.100 205.700 291.000 V 266.100 C 205.700 266.045 205.655 266.000 205.600 266.000 H 180.314 C 180.259 266.000 180.214 266.045 180.214 266.100 V 291.000 C 180.214 291.100 180.314 291.000 180.214 291.000 H 178.414 C 178.314 291.000 178.414 291.100 178.414 291.000 V 266.100 C 178.414 266.045 178.370 266.000 178.314 266.000 H 153.029 C 152.973 266.000 152.929 266.045 152.929 266.100 V 291.000 C 152.929 291.100 153.029 291.000 152.929 291.000 H 151.129 C 151.029 291.000 151.129 291.100 151.129 291.000 V 266.100 C 151.129 266.045 151.084 266.000 151.029 266.000 H 125.743 C 125.688 266.000 125.643 266.045 125.643 266.100 V 291.000 C 125.643 291.100 125.743 291.000 125.643 291.000 H 123.843 C 123.743 291.000 123.843 291.100 123.843 291.000 V 266.100 C 123.843 266.045 123.798 266.000 123.743 266.000 H 98.457 C 98.402 266.000 98.357 266.045 98.357 266.100 V 291.000 C 98.357 291.100 98.457 291.000 98.357 291.000 H 96.557 C 96.457 291.000 96.557 291.100 96.557 291.000 V 266.100 C 96.557 266.045 96.512 266.000 96.457 266.000 H 71.171 C 71.116 266.000 71.071 266.045 71.071 266.100 V 291.000 C 71.071 291.100 71.171 291.000 71.071 291.000 H 69.271 C 69.171 291.000 69.271 291.100 69.271 291.000 V 266.100 C 69.271 266.045 69.227 266.000 69.171 266.000 H 43.886 C 43.830 266.000 43.786 266.045 43.786 266.100 V 291.000 C 43.786 291.100 43.886 291.000 43.786 291.000 H 41.986 C 41.886 291.000 41.986 291.100 41.986 291.000 V 266.100 C 41.986 266.045 41.941 266.000 41.886 266.000 H 16.600 C 16.545 266.000 16.500 266.045 16.500 266.100 V 291.000 C 16.500 291.100 16.600 291.000 16.500 291.000 H 14.700 C 14.600 291.000 14.700 291.100 14.700 291.000 V 266.100 C 14.700 266.045 14.655 266.000 14.600 266.000 H 10.100 C 10.045 266.000 10.000 266.045 10.000 266.100 V 316.100 C 10.000 316.155 10.045 316.200 10.100 316.200 Z"
       stroke="rgb(0,0,0)"
       stroke-width="0.20"
       id="path12"
       style="stroke:#ff0000;stroke-opacity:1;stroke-width:0.01;stroke-dasharray:none" />
  </g>
  <g
     id="p-12"
     style="fill:none;stroke-linecap:round;stroke-linejoin:round;stroke:#ff0000;stroke-opacity:1;stroke-width:0.01;stroke-dasharray:none">
    <path
       d="M 10.100 265.000 H 212.100 C 212.155 265.000 212.200 264.955 212.200 264.900 V 214.900 C 212.200 214.845 212.155 214.800 212.100 214.800 H 207.600 C 207.545 214.800 207.500 214.845 207.500 214.900 V 239.800 C 207.500 239.900 207.600 239.800 207.500 239.800 H 205.700 C 205.600 239.800 205.700 239.900 205.700 239.800 V 214.900 C 205.700 214.845 205.655 214.800 205.600 214.800 H 180.314 C 180.259 214.800 180.214 214.845 180.214 214.900 V 239.800 C 180.214 239.900 180.314 239.800 180.214 239.800 H 178.414 C 178.314 239.800 178.414 239.900 178.414 239.800 V 214.900 C 178.414 214.845 178.370 214.800 178.314 214.800 H 153.029 C 152.973 214.800 152.929 214.845 152.929 214.900 V 239.800 C 152.929 239.900 153.029 239.800 152.929 239.800 H 151.129 C 151.029 239.800 151.129 239.900 151.129 239.800 V 214.900 C 151.129 214.845 151.084 214.800 151.029 214.800 H 125.743 C 125.688 214.800 125.643 214.845 125.643 214.900 V 239.800 C 125.643 239.900 125.743 239.800 125.643 239.800 H 123.843 C 123.743 239.800 123.843 239.900 123.843 239.800 V 214.900 C 123.843 214.845 123.798 214.800 123.743 214.800 H 98.457 C 98.402 214.800 98.357 214.845 98.357 214.900 V 239.800 C 98.357 239.900 98.457 239.800 98.357 239.800 H 96.557 C 96.457 239.800 96.557 239.900 96.557 239.800 V 214.900 C 96.557 214.845 96.512 214.800 96.457 214.800 H 71.171 C 71.116 214.800 71.071 214.845 71.071 214.900 V 239.800 C 71.071 239.900 71.171 239.800 71.071 239.800 H 69.271 C 69.171 239.800 69.271 239.900 69.271 239.800 V 214.900 C 69.271 214.845 69.227 214.800 69.171 214.800 H 43.886 C 43.830 214.800 43.786 214.845 43.786 214.900 V 239.800 C 43.786 239.900 43.886 239.800 43.786 239.800 H 41.986 C 41.886 239.800 41.986 239.900 41.986 239.800 V 214.900 C 41.986 214.845 41.941 214.800 41.886 214.800 H 16.600 C 16.545 214.800 16.500 214.845 16.500 214.900 V 239.800 C 16.500 239.900 16.600 239.800 16.500 239.800 H 14.700 C 14.600 239.800 14.700 239.900 14.700 239.800 V 214.900 C 14.700 214.845 14.655 214.800 14.600 214.800 H 10.100 C 10.045 214.800 10.000 214.845 10.000 214.900 V 264.900 C 10.000 264.955 10.045 265.000 10.100 265.000 Z"
       stroke="rgb(0,0,0)"
       stroke-width="0.20"
       id="path13"
       style="stroke:#ff0000;stroke-opacity:1;stroke-width:0.01;stroke-dasharray:none" />
  </g>
  <g
     id="p-13"
     style="fill:none;stroke-linecap:round;stroke-linejoin:round;stroke:#ff0000;stroke-opacity:1;stroke-width:0.01;stroke-dasharray:none">
    <path
       d="M 10.100 213.800 H 212.100 C 212.155 213.800 212.200 213.755 212.200 213.700 V 163.700 C 212.200 163.645 212.155 163.600 212.100 163.600 H 207.600 C 207.545 163.600 207.500 163.645 207.500 163.700 V 188.600 C 207.500 188.700 207.600 188.600 207.500 188.600 H 205.700 C 205.600 188.600 205.700 188.700 205.700 188.600 V 163.700 C 205.700 163.645 205.655 163.600 205.600 163.600 H 180.314 C 180.259 163.600 180.214 163.645 180.214 163.700 V 188.600 C 180.214 188.700 180.314 188.600 180.214 188.600 H 178.414 C 178.314 188.600 178.414 188.700 178.414 188.600 V 163.700 C 178.414 163.645 178.370 163.600 178.314 163.600 H 153.029 C 152.973 163.600 152.929 163.645 152.929 163.700 V 188.600 C 152.929 188.700 153.029 188.600 152.929 188.600 H 151.129 C 151.029 188.600 151.129 188.700 151.129 188.600 V 163.700 C 151.129 163.645 151.084 163.600 151.029 163.600 H 125.743 C 125.688 163.600 125.643 163.645 125.643 163.700 V 188.600 C 125.643 188.700 125.743 188.600 125.643 188.600 H 123.843 C 123.743 188.600 123.843 188.700 123.843 188.600 V 163.700 C 123.843 163.645 123.798 163.600 123.743 163.600 H 98.457 C 98.402 163.600 98.357 163.645 98.357 163.700 V 188.600 C 98.357 188.700 98.457 188.600 98.357 188.600 H 96.557 C 96.457 188.600 96.557 188.700 96.557 188.600 V 163.700 C 96.557 163.645 96.512 163.600 96.457 163.600 H 71.171 C 71.116 163.600 71.071 163.645 71.071 163.700 V 188.600 C 71.071 188.700 71.171 188.600 71.071 188.600 H 69.271 C 69.171 188.600 69.271 188.700 69.271 188.600 V 163.700 C 69.271 163.645 69.227 163.600 69.171 163.600 H 43.886 C 43.830 163.600 43.786 163.645 43.786 163.700 V 188.600 C 43.786 188.700 43.886 188.600 43.786 188.600 H 41.986 C 41.886 188.600 41.986 188.700 41.986 188.600 V 163.700 C 41.986 163.645 41.941 163.600 41.886 163.600 H 16.600 C 16.545 163.600 16.500 163.645 16.500 163.700 V 188.600 C 16.500 188.700 16.600 188.600 16.500 188.600 H 14.700 C 14.600 188.600 14.700 188.700 14.700 188.600 V 163.700 C 14.700 163.645 14.655 163.600 14.600 163.600 H 10.100 C 10.045 163.600 10.000 163.645 10.000 163.700 V 213.700 C 10.000 213.755 10.045 213.800 10.100 213.800 Z"
       stroke="rgb(0,0,0)"
       stroke-width="0.20"
       id="path14"
       style="stroke:#ff0000;stroke-opacity:1;stroke-width:0.01;stroke-dasharray:none" />
  </g>
  <g
     id="p-14"
     style="fill:none;stroke-linecap:round;stroke-linejoin:round;stroke:#ff0000;stroke-opacity:1;stroke-width:0.01;stroke-dasharray:none">
    <path
       d="M 10.100 162.600 H 212.100 C 212.155 162.600 212.200 162.555 212.200 162.500 V 112.500 C 212.200 112.445 212.155 112.400 212.100 112.400 H 207.600 C 207.545 112.400 207.500 112.445 207.500 112.500 V 137.400 C 207.500 137.500 207.600 137.400 207.500 137.400 H 205.700 C 205.600 137.400 205.700 137.500 205.700 137.400 V 112.500 C 205.700 112.445 205.655 112.400 205.600 112.400 H 180.314 C 180.259 112.400 180.214 112.445 180.214 112.500 V 137.400 C 180.214 137.500 180.314 137.400 180.214 137.400 H 178.414 C 178.314 137.400 178.414 137.500 178.414 137.400 V 112.500 C 178.414 112.445 178.370 112.400 178.314 112.400 H 153.029 C 152.973 112.400 152.929 112.445 152.929 112.500 V 137.400 C 152.929 137.500 153.029 137.400 152.929 137.400 H 151.129 C 151.029 137.400 151.129 137.500 151.129 137.400 V 112.500 C 151.129 112.445 151.084 112.400 151.029 112.400 H 125.743 C 125.688 112.400 125.643 112.445 125.643 112.500 V 137.400 C 125.643 137.500 125.743 137.400 125.643 137.400 H 123.843 C 123.743 137.400 123.843 137.500 123.843 137.400 V 112.500 C 123.843 112.445 123.798 112.400 123.743 112.400 H 98.457 C 98.402 112.400 98.357 112.445 98.357 112.500 V 137.400 C 98.357 137.500 98.457 137.400 98.357 137.400 H 96.557 C 96.457 137.400 96.557 137.500 96.557 137.400 V 112.500 C 96.557 112.445 96.512 112.400 96.457 112.400 H 71.171 C 71.116 112.400 71.071 112.445 71.071 112.500 V 137.400 C 71.071 137.500 71.171 137.400 71.071 137.400 H 69.271 C 69.171 137.400 69.271 137.500 69.271 137.400 V 112.500 C 69.271 112.445 69.227 112.400 69.171 112.400 H 43.886 C 43.830 112.400 43.786 112.445 43.786 112.500 V 137.400 C 43.786 137.500 43.886 137.400 43.786 137.400 H 41.986 C 41.886 137.400 41.986 137.500 41.986 137.400 V 112.500 C 41.986 112.445 41.941 112.400 41.886 112.400 H 16.600 C 16.545 112.400 16.500 112.445 16.500 112.500 V 137.400 C 16.500 137.500 16.600 137.400 16.500 137.400 H 14.700 C 14.600 137.400 14.700 137.500 14.700 137.400 V 112.500 C 14.700 112.445 14.655 112.400 14.600 112.400 H 10.100 C 10.045 112.400 10.000 112.445 10.000 112.500 V 162.500 C 10.000 162.555 10.045 162.600 10.100 162.600 Z"
       stroke="rgb(0,0,0)"
       stroke-width="0.20"
       id="path15"
       style="stroke:#ff0000;stroke-opacity:1;stroke-width:0.01;stroke-dasharray:none" />
  </g>
  <g
     id="p-15"
     style="fill:none;stroke-linecap:round;stroke-linejoin:round;stroke:#ff0000;stroke-opacity:1;stroke-width:0.01;stroke-dasharray:none">
    <path
       d="M 10.100 111.400 H 212.100 C 212.155 111.400 212.200 111.355 212.200 111.300 V 61.300 C 212.200 61.245 212.155 61.200 212.100 61.200 H 207.600 C 207.545 61.200 207.500 61.245 207.500 61.300 V 86.200 C 207.500 86.300 207.600 86.200 207.500 86.200 H 205.700 C 205.600 86.200 205.700 86.300 205.700 86.200 V 61.300 C 205.700 61.245 205.655 61.200 205.600 61.200 H 180.314 C 180.259 61.200 180.214 61.245 180.214 61.300 V 86.200 C 180.214 86.300 180.314 86.200 180.214 86.200 H 178.414 C 178.314 86.200 178.414 86.300 178.414 86.200 V 61.300 C 178.414 61.245 178.370 61.200 178.314 61.200 H 153.029 C 152.973 61.200 152.929 61.245 152.929 61.300 V 86.200 C 152.929 86.300 153.029 86.200 152.929 86.200 H 151.129 C 151.029 86.200 151.129 86.300 151.129 86.200 V 61.300 C 151.129 61.245 151.084 61.200 151.029 61.200 H 125.743 C 125.688 61.200 125.643 61.245 125.643 61.300 V 86.200 C 125.643 86.300 125.743 86.200 125.643 86.200 H 123.843 C 123.743 86.200 123.843 86.300 123.843 86.200 V 61.300 C 123.843 61.245 123.798 61.200 123.743 61.200 H 98.457 C 98.402 61.200 98.357 61.245 98.357 61.300 V 86.200 C 98.357 86.300 98.457 86.200 98.357 86.200 H 96.557 C 96.457 86.200 96.557 86.300 96.557 86.200 V 61.300 C 96.557 61.245 96.512 61.200 96.457 61.200 H 71.171 C 71.116 61.200 71.071 61.245 71.071 61.300 V 86.200 C 71.071 86.300 71.171 86.200 71.071 86.200 H 69.271 C 69.171 86.200 69.271 86.300 69.271 86.200 V 61.300 C 69.271 61.245 69.227 61.200 69.171 61.200 H 43.886 C 43.830 61.200 43.786 61.245 43.786 61.300 V 86.200 C 43.786 86.300 43.886 86.200 43.786 86.200 H 41.986 C 41.886 86.200 41.986 86.300 41.986 86.200 V 61.300 C 41.986 61.245 41.941 61.200 41.886 61.200 H 16.600 C 16.545 61.200 16.500 61.245 16.500 61.300 V 86.200 C 16.500 86.300 16.600 86.200 16.500 86.200 H 14.700 C 14.600 86.200 14.700 86.300 14.700 86.200 V 61.300 C 14.700 61.245 14.655 61.200 14.600 61.200 H 10.100 C 10.045 61.200 10.000 61.245 10.000 61.300 V 111.300 C 10.000 111.355 10.045 111.400 10.100 111.400 Z"
       stroke="rgb(0,0,0)"
       stroke-width="0.20"
       id="path16"
       style="stroke:#ff0000;stroke-opacity:1;stroke-width:0.01;stroke-dasharray:none" />
  </g>
  <g
     id="p-16"
     style="fill:none;stroke-linecap:round;stroke-linejoin:round;stroke:#ff0000;stroke-opacity:1;stroke-width:0.01;stroke-dasharray:none">
    <path
       d="M 10.100 60.200 H 212.100 C 212.155 60.200 212.200 60.155 212.200 60.100 V 10.100 C 212.200 10.045 212.155 10.000 212.100 10.000 H 207.600 C 207.545 10.000 207.500 10.045 207.500 10.100 V 35.000 C 207.500 35.100 207.600 35.000 207.500 35.000 H 205.700 C 205.600 35.000 205.700 35.100 205.700 35.000 V 10.100 C 205.700 10.045 205.655 10.000 205.600 10.000 H 180.314 C 180.259 10.000 180.214 10.045 180.214 10.100 V 35.000 C 180.214 35.100 180.314 35.000 180.214 35.000 H 178.414 C 178.314 35.000 178.414 35.100 178.414 35.000 V 10.100 C 178.414 10.045 178.370 10.000 178.314 10.000 H 153.029 C 152.973 10.000 152.929 10.045 152.929 10.100 V 35.000 C 152.929 35.100 153.029 35.000 152.929 35.000 H 151.129 C 151.029 35.000 151.129 35.100 151.129 35.000 V 10.100 C 151.129 10.045 151.084 10.000 151.029 10.000 H 125.743 C 125.688 10.000 125.643 10.045 125.643 10.100 V 35.000 C 125.643 35.100 125.743 35.000 125.643 35.000 H 123.843 C 123.743 35.000 123.843 35.100 123.843 35.000 V 10.100 C 123.843 10.045 123.798 10.000 123.743 10.000 H 98.457 C 98.402 10.000 98.357 10.045 98.357 10.100 V 35.000 C 98.357 35.100 98.457 35.000 98.357 35.000 H 96.557 C 96.457 35.000 96.557 35.100 96.557 35.000 V 10.100 C 96.557 10.045 96.512 10.000 96.457 10.000 H 71.171 C 71.116 10.000 71.071 10.045 71.071 10.100 V 35.000 C 71.071 35.100 71.171 35.000 71.071 35.000 H 69.271 C 69.171 35.000 69.271 35.100 69.271 35.000 V 10.100 C 69.271 10.045 69.227 10.000 69.171 10.000 H 43.886 C 43.830 10.000 43.786 10.045 43.786 10.100 V 35.000 C 43.786 35.100 43.886 35.000 43.786 35.000 H 41.986 C 41.886 35.000 41.986 35.100 41.986 35.000 V 10.100 C 41.986 10.045 41.941 10.000 41.886 10.000 H 16.600 C 16.545 10.000 16.500 10.045 16.500 10.100 V 35.000 C 16.500 35.100 16.600 35.000 16.500 35.000 H 14.700 C 14.600 35.000 14.700 35.100 14.700 35.000 V 10.100 C 14.700 10.045 14.655 10.000 14.600 10.000 H 10.100 C 10.045 10.000 10.000 10.045 10.000 10.100 V 60.100 C 10.000 60.155 10.045 60.200 10.100 60.200 Z"
       stroke="rgb(0,0,0)"
       stroke-width="0.20"
       id="path17"
       style="stroke:#ff0000;stroke-opacity:1;stroke-width:0.01;stroke-dasharray:none" />
  </g>
</svg>
